<ttFont>
    <TTGlyph name=".notdef" xMin="69" yMin="-220" xMax="780" yMax="1030">
      <contour>
        <pt x="69" y="1030" on="1"/>
        <pt x="780" y="1030" on="1"/>
        <pt x="780" y="-220" on="1"/>
        <pt x="69" y="-220" on="1"/>
      </contour>
      <contour>
        <pt x="606" y="-59" on="1"/>
        <pt x="606" y="869" on="1"/>
        <pt x="243" y="869" on="1"/>
        <pt x="243" y="-59" on="1"/>
      </contour>
    </TTGlyph>
    <TTGlyph name="A" xMin="-5" yMin="0" xMax="785" yMax="740">
      <contour>
        <pt x="-5" y="11" on="1"/>
        <pt x="223" y="740" on="1"/>
        <pt x="557" y="740" on="1"/>
        <pt x="785" y="11" on="1"/>
        <pt x="785" y="0" on="1"/>
        <pt x="568" y="0" on="1"/>
        <pt x="523" y="151" on="1"/>
        <pt x="256" y="151" on="1"/>
        <pt x="212" y="0" on="1"/>
        <pt x="-5" y="0" on="1"/>
      </contour>
      <contour>
        <pt x="474" y="322" on="1"/>
        <pt x="443" y="432" on="1"/>
        <pt x="399" y="587" on="1"/>
        <pt x="381" y="587" on="1"/>
        <pt x="336" y="430" on="1"/>
        <pt x="306" y="322" on="1"/>
      </contour>
    </TTGlyph>
    <TTGlyph name="A.sc" xMin="-4" yMin="0" xMax="726" yMax="577">
      <contour>
        <pt x="-4" y="10" on="1"/>
        <pt x="204" y="577" on="1"/>
        <pt x="519" y="577" on="1"/>
        <pt x="726" y="10" on="1"/>
        <pt x="726" y="0" on="1"/>
        <pt x="520" y="0" on="1"/>
        <pt x="483" y="94" on="1"/>
        <pt x="238" y="94" on="1"/>
        <pt x="202" y="0" on="1"/>
        <pt x="-4" y="0" on="1"/>
      </contour>
      <contour>
        <pt x="443" y="233" on="1"/>
        <pt x="410" y="327" on="1"/>
        <pt x="369" y="434" on="1"/>
        <pt x="351" y="434" on="1"/>
        <pt x="311" y="326" on="1"/>
        <pt x="278" y="233" on="1"/>
      </contour>
    </TTGlyph>
    <TTGlyph name="AE" xMin="-11" yMin="0" xMax="1016" yMax="740">
      <contour>
        <pt x="-11" y="11" on="1"/>
        <pt x="285" y="740" on="1"/>
        <pt x="999" y="740" on="1"/>
        <pt x="999" y="568" on="1"/>
        <pt x="692" y="568" on="1"/>
        <pt x="700" y="456" on="1"/>
        <pt x="989" y="456" on="1"/>
        <pt x="989" y="284" on="1"/>
        <pt x="713" y="284" on="1"/>
        <pt x="722" y="173" on="1"/>
        <pt x="1016" y="173" on="1"/>
        <pt x="1016" y="0" on="1"/>
        <pt x="498" y="0" on="1"/>
        <pt x="492" y="146" on="1"/>
        <pt x="268" y="146" on="1"/>
        <pt x="210" y="0" on="1"/>
        <pt x="-11" y="0" on="1"/>
      </contour>
      <contour>
        <pt x="340" y="326" on="1"/>
        <pt x="484" y="326" on="1"/>
        <pt x="474" y="586" on="1"/>
        <pt x="445" y="586" on="1"/>
      </contour>
    </TTGlyph>
    <TTGlyph name="AE.sc" xMin="-10" yMin="0" xMax="942" yMax="577">
      <contour>
        <pt x="-10" y="10" on="1"/>
        <pt x="264" y="577" on="1"/>
        <pt x="926" y="577" on="1"/>
        <pt x="926" y="422" on="1"/>
        <pt x="645" y="422" on="1"/>
        <pt x="650" y="357" on="1"/>
        <pt x="918" y="357" on="1"/>
        <pt x="918" y="221" on="1"/>
        <pt x="665" y="221" on="1"/>
        <pt x="673" y="156" on="1"/>
        <pt x="942" y="156" on="1"/>
        <pt x="942" y="0" on="1"/>
        <pt x="461" y="0" on="1"/>
        <pt x="456" y="94" on="1"/>
        <pt x="245" y="94" on="1"/>
        <pt x="199" y="0" on="1"/>
        <pt x="-10" y="0" on="1"/>
      </contour>
      <contour>
        <pt x="313" y="231" on="1"/>
        <pt x="448" y="231" on="1"/>
        <pt x="440" y="434" on="1"/>
        <pt x="413" y="434" on="1"/>
      </contour>
    </TTGlyph>
    <TTGlyph name="AEacute" xMin="-11" yMin="0" xMax="1016" yMax="1003">
      <contour>
        <pt x="477" y="813" on="1"/>
        <pt x="540" y="1003" on="1"/>
        <pt x="764" y="1003" on="1"/>
        <pt x="635" y="803" on="1"/>
      </contour>
      <contour>
        <pt x="-11" y="11" on="1"/>
        <pt x="285" y="740" on="1"/>
        <pt x="999" y="740" on="1"/>
        <pt x="999" y="568" on="1"/>
        <pt x="692" y="568" on="1"/>
        <pt x="700" y="456" on="1"/>
        <pt x="989" y="456" on="1"/>
        <pt x="989" y="284" on="1"/>
        <pt x="713" y="284" on="1"/>
        <pt x="722" y="173" on="1"/>
        <pt x="1016" y="173" on="1"/>
        <pt x="1016" y="0" on="1"/>
        <pt x="498" y="0" on="1"/>
        <pt x="492" y="146" on="1"/>
        <pt x="268" y="146" on="1"/>
        <pt x="210" y="0" on="1"/>
        <pt x="-11" y="0" on="1"/>
      </contour>
      <contour>
        <pt x="340" y="326" on="1"/>
        <pt x="484" y="326" on="1"/>
        <pt x="474" y="586" on="1"/>
        <pt x="445" y="586" on="1"/>
      </contour>
    </TTGlyph>
    <TTGlyph name="AEacute.sc" xMin="-10" yMin="0" xMax="942" yMax="798">
      <contour>
        <pt x="-10" y="10" on="1"/>
        <pt x="264" y="577" on="1"/>
        <pt x="926" y="577" on="1"/>
        <pt x="926" y="422" on="1"/>
        <pt x="645" y="422" on="1"/>
        <pt x="650" y="357" on="1"/>
        <pt x="918" y="357" on="1"/>
        <pt x="918" y="221" on="1"/>
        <pt x="665" y="221" on="1"/>
        <pt x="673" y="156" on="1"/>
        <pt x="942" y="156" on="1"/>
        <pt x="942" y="0" on="1"/>
        <pt x="461" y="0" on="1"/>
        <pt x="456" y="94" on="1"/>
        <pt x="245" y="94" on="1"/>
        <pt x="199" y="0" on="1"/>
        <pt x="-10" y="0" on="1"/>
      </contour>
      <contour>
        <pt x="448" y="231" on="1"/>
        <pt x="440" y="434" on="1"/>
        <pt x="413" y="434" on="1"/>
        <pt x="313" y="231" on="1"/>
      </contour>
      <contour>
        <pt x="436" y="637" on="1"/>
        <pt x="491" y="798" on="1"/>
        <pt x="704" y="798" on="1"/>
        <pt x="585" y="628" on="1"/>
      </contour>
    </TTGlyph>
    <TTGlyph name="Aacute" xMin="-5" yMin="0" xMax="785" yMax="1003">
      <contour>
        <pt x="-5" y="11" on="1"/>
        <pt x="223" y="740" on="1"/>
        <pt x="557" y="740" on="1"/>
        <pt x="785" y="11" on="1"/>
        <pt x="785" y="0" on="1"/>
        <pt x="568" y="0" on="1"/>
        <pt x="523" y="151" on="1"/>
        <pt x="256" y="151" on="1"/>
        <pt x="212" y="0" on="1"/>
        <pt x="-5" y="0" on="1"/>
      </contour>
      <contour>
        <pt x="474" y="322" on="1"/>
        <pt x="443" y="432" on="1"/>
        <pt x="399" y="587" on="1"/>
        <pt x="381" y="587" on="1"/>
        <pt x="336" y="430" on="1"/>
        <pt x="306" y="322" on="1"/>
      </contour>
      <contour>
        <pt x="305" y="813" on="1"/>
        <pt x="368" y="1003" on="1"/>
        <pt x="592" y="1003" on="1"/>
        <pt x="463" y="803" on="1"/>
      </contour>
    </TTGlyph>
    <TTGlyph name="Aacute.sc" xMin="-4" yMin="0" xMax="726" yMax="798">
      <contour>
        <pt x="-4" y="10" on="1"/>
        <pt x="204" y="577" on="1"/>
        <pt x="519" y="577" on="1"/>
        <pt x="726" y="10" on="1"/>
        <pt x="726" y="0" on="1"/>
        <pt x="520" y="0" on="1"/>
        <pt x="483" y="94" on="1"/>
        <pt x="238" y="94" on="1"/>
        <pt x="202" y="0" on="1"/>
        <pt x="-4" y="0" on="1"/>
      </contour>
      <contour>
        <pt x="442" y="240" on="1"/>
        <pt x="410" y="327" on="1"/>
        <pt x="369" y="434" on="1"/>
        <pt x="351" y="434" on="1"/>
        <pt x="311" y="326" on="1"/>
        <pt x="279" y="240" on="1"/>
      </contour>
      <contour>
        <pt x="282" y="637" on="1"/>
        <pt x="338" y="798" on="1"/>
        <pt x="551" y="798" on="1"/>
        <pt x="431" y="628" on="1"/>
      </contour>
    </TTGlyph>
    <TTGlyph name="Abreve" xMin="-5" yMin="0" xMax="785" yMax="999">
      <contour>
        <pt x="-5" y="11" on="1"/>
        <pt x="223" y="740" on="1"/>
        <pt x="557" y="740" on="1"/>
        <pt x="785" y="11" on="1"/>
        <pt x="785" y="0" on="1"/>
        <pt x="568" y="0" on="1"/>
        <pt x="523" y="151" on="1"/>
        <pt x="256" y="151" on="1"/>
        <pt x="212" y="0" on="1"/>
        <pt x="-5" y="0" on="1"/>
      </contour>
      <contour>
        <pt x="474" y="322" on="1"/>
        <pt x="443" y="432" on="1"/>
        <pt x="399" y="587" on="1"/>
        <pt x="381" y="587" on="1"/>
        <pt x="336" y="430" on="1"/>
        <pt x="306" y="322" on="1"/>
      </contour>
      <contour>
        <pt x="390" y="806" on="1"/>
        <pt x="322" y="806" on="0"/>
        <pt x="231" y="835" on="0"/>
        <pt x="175" y="887" on="0"/>
        <pt x="151" y="958" on="0"/>
        <pt x="151" y="999" on="1"/>
        <pt x="294" y="999" on="1"/>
        <pt x="294" y="952" on="0"/>
        <pt x="332" y="906" on="0"/>
        <pt x="390" y="906" on="1"/>
        <pt x="419" y="906" on="0"/>
        <pt x="456" y="918" on="0"/>
        <pt x="477" y="941" on="0"/>
        <pt x="485" y="976" on="0"/>
        <pt x="485" y="999" on="1"/>
        <pt x="629" y="999" on="1"/>
        <pt x="629" y="957" on="0"/>
        <pt x="605" y="886" on="0"/>
        <pt x="549" y="835" on="0"/>
        <pt x="457" y="806" on="0"/>
      </contour>
    </TTGlyph>
    <TTGlyph name="Abreve.sc" xMin="-4" yMin="0" xMax="726" yMax="790">
      <contour>
        <pt x="361" y="628" on="1"/>
        <pt x="297" y="628" on="0"/>
        <pt x="212" y="654" on="0"/>
        <pt x="160" y="698" on="0"/>
        <pt x="138" y="757" on="0"/>
        <pt x="138" y="790" on="1"/>
        <pt x="273" y="790" on="1"/>
        <pt x="273" y="755" on="0"/>
        <pt x="307" y="719" on="0"/>
        <pt x="361" y="719" on="1"/>
        <pt x="415" y="719" on="0"/>
        <pt x="448" y="755" on="0"/>
        <pt x="448" y="790" on="1"/>
        <pt x="583" y="790" on="1"/>
        <pt x="583" y="755" on="0"/>
        <pt x="561" y="696" on="0"/>
        <pt x="510" y="653" on="0"/>
        <pt x="424" y="628" on="0"/>
      </contour>
      <contour>
        <pt x="-4" y="10" on="1"/>
        <pt x="204" y="577" on="1"/>
        <pt x="519" y="577" on="1"/>
        <pt x="726" y="10" on="1"/>
        <pt x="726" y="0" on="1"/>
        <pt x="520" y="0" on="1"/>
        <pt x="483" y="94" on="1"/>
        <pt x="238" y="94" on="1"/>
        <pt x="202" y="0" on="1"/>
        <pt x="-4" y="0" on="1"/>
      </contour>
      <contour>
        <pt x="442" y="240" on="1"/>
        <pt x="410" y="327" on="1"/>
        <pt x="369" y="434" on="1"/>
        <pt x="351" y="434" on="1"/>
        <pt x="311" y="326" on="1"/>
        <pt x="279" y="240" on="1"/>
      </contour>
    </TTGlyph>
    <TTGlyph name="Acircumflex" xMin="-5" yMin="0" xMax="785" yMax="1016">
      <contour>
        <pt x="-5" y="11" on="1"/>
        <pt x="223" y="740" on="1"/>
        <pt x="557" y="740" on="1"/>
        <pt x="785" y="11" on="1"/>
        <pt x="785" y="0" on="1"/>
        <pt x="568" y="0" on="1"/>
        <pt x="523" y="151" on="1"/>
        <pt x="256" y="151" on="1"/>
        <pt x="212" y="0" on="1"/>
        <pt x="-5" y="0" on="1"/>
      </contour>
      <contour>
        <pt x="474" y="322" on="1"/>
        <pt x="443" y="432" on="1"/>
        <pt x="399" y="587" on="1"/>
        <pt x="381" y="587" on="1"/>
        <pt x="336" y="430" on="1"/>
        <pt x="306" y="322" on="1"/>
      </contour>
      <contour>
        <pt x="172" y="936" on="1"/>
        <pt x="389" y="1016" on="1"/>
        <pt x="610" y="936" on="1"/>
        <pt x="610" y="794" on="1"/>
        <pt x="391" y="873" on="1"/>
        <pt x="172" y="794" on="1"/>
      </contour>
    </TTGlyph>
    <TTGlyph name="Acircumflex.sc" xMin="-4" yMin="0" xMax="726" yMax="811">
      <contour>
        <pt x="-4" y="10" on="1"/>
        <pt x="204" y="577" on="1"/>
        <pt x="519" y="577" on="1"/>
        <pt x="726" y="10" on="1"/>
        <pt x="726" y="0" on="1"/>
        <pt x="520" y="0" on="1"/>
        <pt x="483" y="94" on="1"/>
        <pt x="238" y="94" on="1"/>
        <pt x="202" y="0" on="1"/>
        <pt x="-4" y="0" on="1"/>
      </contour>
      <contour>
        <pt x="442" y="240" on="1"/>
        <pt x="410" y="327" on="1"/>
        <pt x="369" y="434" on="1"/>
        <pt x="351" y="434" on="1"/>
        <pt x="311" y="326" on="1"/>
        <pt x="279" y="240" on="1"/>
      </contour>
      <contour>
        <pt x="158" y="747" on="1"/>
        <pt x="361" y="811" on="1"/>
        <pt x="567" y="747" on="1"/>
        <pt x="567" y="616" on="1"/>
        <pt x="363" y="679" on="1"/>
        <pt x="158" y="616" on="1"/>
      </contour>
    </TTGlyph>
    <TTGlyph name="Adblgrave" xMin="-5" yMin="0" xMax="785" yMax="1003">
      <contour>
        <pt x="-5" y="11" on="1"/>
        <pt x="223" y="740" on="1"/>
        <pt x="557" y="740" on="1"/>
        <pt x="785" y="11" on="1"/>
        <pt x="785" y="0" on="1"/>
        <pt x="568" y="0" on="1"/>
        <pt x="523" y="151" on="1"/>
        <pt x="256" y="151" on="1"/>
        <pt x="212" y="0" on="1"/>
        <pt x="-5" y="0" on="1"/>
      </contour>
      <contour>
        <pt x="474" y="322" on="1"/>
        <pt x="443" y="432" on="1"/>
        <pt x="399" y="587" on="1"/>
        <pt x="381" y="587" on="1"/>
        <pt x="336" y="430" on="1"/>
        <pt x="306" y="322" on="1"/>
      </contour>
      <contour>
        <pt x="188" y="803" on="1"/>
        <pt x="57" y="1003" on="1"/>
        <pt x="270" y="1003" on="1"/>
        <pt x="332" y="813" on="1"/>
      </contour>
      <contour>
        <pt x="427" y="803" on="1"/>
        <pt x="296" y="1003" on="1"/>
        <pt x="508" y="1003" on="1"/>
        <pt x="571" y="813" on="1"/>
      </contour>
    </TTGlyph>
    <TTGlyph name="Adblgrave.sc" xMin="-4" yMin="0" xMax="726" yMax="800">
      <contour>
        <pt x="-4" y="10" on="1"/>
        <pt x="204" y="577" on="1"/>
        <pt x="519" y="577" on="1"/>
        <pt x="726" y="10" on="1"/>
        <pt x="726" y="0" on="1"/>
        <pt x="520" y="0" on="1"/>
        <pt x="483" y="94" on="1"/>
        <pt x="238" y="94" on="1"/>
        <pt x="202" y="0" on="1"/>
        <pt x="-4" y="0" on="1"/>
      </contour>
      <contour>
        <pt x="442" y="240" on="1"/>
        <pt x="410" y="327" on="1"/>
        <pt x="369" y="434" on="1"/>
        <pt x="351" y="434" on="1"/>
        <pt x="311" y="326" on="1"/>
        <pt x="279" y="240" on="1"/>
      </contour>
      <contour>
        <pt x="48" y="800" on="1"/>
        <pt x="252" y="800" on="1"/>
        <pt x="306" y="636" on="1"/>
        <pt x="168" y="629" on="1"/>
      </contour>
      <contour>
        <pt x="271" y="800" on="1"/>
        <pt x="474" y="800" on="1"/>
        <pt x="529" y="636" on="1"/>
        <pt x="391" y="629" on="1"/>
      </contour>
    </TTGlyph>
    <TTGlyph name="Adieresis" xMin="-5" yMin="0" xMax="785" yMax="1022">
      <contour>
        <pt x="-5" y="11" on="1"/>
        <pt x="223" y="740" on="1"/>
        <pt x="557" y="740" on="1"/>
        <pt x="785" y="11" on="1"/>
        <pt x="785" y="0" on="1"/>
        <pt x="568" y="0" on="1"/>
        <pt x="523" y="151" on="1"/>
        <pt x="256" y="151" on="1"/>
        <pt x="212" y="0" on="1"/>
        <pt x="-5" y="0" on="1"/>
      </contour>
      <contour>
        <pt x="474" y="322" on="1"/>
        <pt x="443" y="432" on="1"/>
        <pt x="399" y="587" on="1"/>
        <pt x="381" y="587" on="1"/>
        <pt x="336" y="430" on="1"/>
        <pt x="306" y="322" on="1"/>
      </contour>
      <contour>
        <pt x="236" y="795" on="1"/>
        <pt x="173" y="795" on="0"/>
        <pt x="119" y="849" on="0"/>
        <pt x="119" y="909" on="1"/>
        <pt x="119" y="969" on="0"/>
        <pt x="173" y="1022" on="0"/>
        <pt x="236" y="1022" on="1"/>
        <pt x="300" y="1022" on="0"/>
        <pt x="352" y="966" on="0"/>
        <pt x="352" y="909" on="1"/>
        <pt x="352" y="851" on="0"/>
        <pt x="300" y="795" on="0"/>
      </contour>
      <contour>
        <pt x="543" y="795" on="1"/>
        <pt x="479" y="795" on="0"/>
        <pt x="426" y="849" on="0"/>
        <pt x="426" y="909" on="1"/>
        <pt x="426" y="969" on="0"/>
        <pt x="479" y="1022" on="0"/>
        <pt x="543" y="1022" on="1"/>
        <pt x="607" y="1022" on="0"/>
        <pt x="659" y="966" on="0"/>
        <pt x="659" y="909" on="1"/>
        <pt x="659" y="851" on="0"/>
        <pt x="607" y="795" on="0"/>
      </contour>
    </TTGlyph>
    <TTGlyph name="Adieresis.sc" xMin="-4" yMin="0" xMax="726" yMax="823">
      <contour>
        <pt x="220" y="614" on="1"/>
        <pt x="160" y="614" on="0"/>
        <pt x="110" y="663" on="0"/>
        <pt x="110" y="719" on="1"/>
        <pt x="110" y="773" on="0"/>
        <pt x="160" y="823" on="0"/>
        <pt x="220" y="823" on="1"/>
        <pt x="280" y="823" on="0"/>
        <pt x="329" y="772" on="0"/>
        <pt x="329" y="719" on="1"/>
        <pt x="329" y="665" on="0"/>
        <pt x="280" y="614" on="0"/>
      </contour>
      <contour>
        <pt x="502" y="614" on="1"/>
        <pt x="442" y="614" on="0"/>
        <pt x="393" y="663" on="0"/>
        <pt x="393" y="719" on="1"/>
        <pt x="393" y="773" on="0"/>
        <pt x="442" y="823" on="0"/>
        <pt x="502" y="823" on="1"/>
        <pt x="562" y="823" on="0"/>
        <pt x="611" y="772" on="0"/>
        <pt x="611" y="719" on="1"/>
        <pt x="611" y="665" on="0"/>
        <pt x="562" y="614" on="0"/>
      </contour>
      <contour>
        <pt x="-4" y="10" on="1"/>
        <pt x="204" y="577" on="1"/>
        <pt x="519" y="577" on="1"/>
        <pt x="726" y="10" on="1"/>
        <pt x="726" y="0" on="1"/>
        <pt x="520" y="0" on="1"/>
        <pt x="483" y="94" on="1"/>
        <pt x="238" y="94" on="1"/>
        <pt x="202" y="0" on="1"/>
        <pt x="-4" y="0" on="1"/>
      </contour>
      <contour>
        <pt x="442" y="240" on="1"/>
        <pt x="410" y="327" on="1"/>
        <pt x="369" y="434" on="1"/>
        <pt x="351" y="434" on="1"/>
        <pt x="311" y="326" on="1"/>
        <pt x="279" y="240" on="1"/>
      </contour>
    </TTGlyph>
    <TTGlyph name="Agrave" xMin="-5" yMin="0" xMax="785" yMax="1003">
      <contour>
        <pt x="-5" y="11" on="1"/>
        <pt x="223" y="740" on="1"/>
        <pt x="557" y="740" on="1"/>
        <pt x="785" y="11" on="1"/>
        <pt x="785" y="0" on="1"/>
        <pt x="568" y="0" on="1"/>
        <pt x="523" y="151" on="1"/>
        <pt x="256" y="151" on="1"/>
        <pt x="212" y="0" on="1"/>
        <pt x="-5" y="0" on="1"/>
      </contour>
      <contour>
        <pt x="474" y="322" on="1"/>
        <pt x="443" y="432" on="1"/>
        <pt x="399" y="587" on="1"/>
        <pt x="381" y="587" on="1"/>
        <pt x="336" y="430" on="1"/>
        <pt x="306" y="322" on="1"/>
      </contour>
      <contour>
        <pt x="294" y="803" on="1"/>
        <pt x="163" y="1003" on="1"/>
        <pt x="389" y="1003" on="1"/>
        <pt x="451" y="813" on="1"/>
      </contour>
    </TTGlyph>
    <TTGlyph name="Agrave.sc" xMin="-4" yMin="0" xMax="726" yMax="798">
      <contour>
        <pt x="-4" y="10" on="1"/>
        <pt x="204" y="577" on="1"/>
        <pt x="519" y="577" on="1"/>
        <pt x="726" y="10" on="1"/>
        <pt x="726" y="0" on="1"/>
        <pt x="520" y="0" on="1"/>
        <pt x="483" y="94" on="1"/>
        <pt x="238" y="94" on="1"/>
        <pt x="202" y="0" on="1"/>
        <pt x="-4" y="0" on="1"/>
      </contour>
      <contour>
        <pt x="442" y="240" on="1"/>
        <pt x="410" y="327" on="1"/>
        <pt x="369" y="434" on="1"/>
        <pt x="351" y="434" on="1"/>
        <pt x="311" y="326" on="1"/>
        <pt x="279" y="240" on="1"/>
      </contour>
      <contour>
        <pt x="269" y="628" on="1"/>
        <pt x="148" y="798" on="1"/>
        <pt x="362" y="798" on="1"/>
        <pt x="417" y="635" on="1"/>
      </contour>
    </TTGlyph>
    <TTGlyph name="Ainvertedbreve" xMin="-5" yMin="0" xMax="785" yMax="1009">
      <contour>
        <pt x="-5" y="11" on="1"/>
        <pt x="223" y="740" on="1"/>
        <pt x="557" y="740" on="1"/>
        <pt x="785" y="11" on="1"/>
        <pt x="785" y="0" on="1"/>
        <pt x="568" y="0" on="1"/>
        <pt x="523" y="151" on="1"/>
        <pt x="256" y="151" on="1"/>
        <pt x="212" y="0" on="1"/>
        <pt x="-5" y="0" on="1"/>
      </contour>
      <contour>
        <pt x="474" y="322" on="1"/>
        <pt x="443" y="432" on="1"/>
        <pt x="399" y="587" on="1"/>
        <pt x="381" y="587" on="1"/>
        <pt x="336" y="430" on="1"/>
        <pt x="306" y="322" on="1"/>
      </contour>
      <contour>
        <pt x="486" y="816" on="1"/>
        <pt x="486" y="839" on="0"/>
        <pt x="478" y="873" on="0"/>
        <pt x="457" y="896" on="0"/>
        <pt x="420" y="908" on="0"/>
        <pt x="391" y="908" on="1"/>
        <pt x="333" y="908" on="0"/>
        <pt x="295" y="862" on="0"/>
        <pt x="295" y="816" on="1"/>
        <pt x="152" y="816" on="1"/>
        <pt x="152" y="856" on="0"/>
        <pt x="176" y="927" on="0"/>
        <pt x="232" y="979" on="0"/>
        <pt x="323" y="1009" on="0"/>
        <pt x="391" y="1009" on="1"/>
        <pt x="458" y="1009" on="0"/>
        <pt x="550" y="980" on="0"/>
        <pt x="606" y="928" on="0"/>
        <pt x="630" y="858" on="0"/>
        <pt x="630" y="816" on="1"/>
      </contour>
    </TTGlyph>
    <TTGlyph name="Ainvertedbreve.sc" xMin="-4" yMin="0" xMax="726" yMax="799">
      <contour>
        <pt x="138" y="638" on="1"/>
        <pt x="138" y="671" on="0"/>
        <pt x="160" y="730" on="0"/>
        <pt x="212" y="773" on="0"/>
        <pt x="298" y="799" on="0"/>
        <pt x="362" y="799" on="1"/>
        <pt x="425" y="799" on="0"/>
        <pt x="511" y="774" on="0"/>
        <pt x="562" y="731" on="0"/>
        <pt x="584" y="672" on="0"/>
        <pt x="584" y="638" on="1"/>
        <pt x="449" y="638" on="1"/>
        <pt x="449" y="672" on="0"/>
        <pt x="416" y="707" on="0"/>
        <pt x="362" y="707" on="1"/>
        <pt x="308" y="707" on="0"/>
        <pt x="274" y="672" on="0"/>
        <pt x="274" y="638" on="1"/>
      </contour>
      <contour>
        <pt x="-4" y="10" on="1"/>
        <pt x="204" y="577" on="1"/>
        <pt x="519" y="577" on="1"/>
        <pt x="726" y="10" on="1"/>
        <pt x="726" y="0" on="1"/>
        <pt x="520" y="0" on="1"/>
        <pt x="483" y="94" on="1"/>
        <pt x="238" y="94" on="1"/>
        <pt x="202" y="0" on="1"/>
        <pt x="-4" y="0" on="1"/>
      </contour>
      <contour>
        <pt x="442" y="240" on="1"/>
        <pt x="410" y="327" on="1"/>
        <pt x="369" y="434" on="1"/>
        <pt x="351" y="434" on="1"/>
        <pt x="311" y="326" on="1"/>
        <pt x="279" y="240" on="1"/>
      </contour>
    </TTGlyph>
    <TTGlyph name="Amacron" xMin="-5" yMin="0" xMax="785" yMax="983">
      <contour>
        <pt x="-5" y="11" on="1"/>
        <pt x="223" y="740" on="1"/>
        <pt x="557" y="740" on="1"/>
        <pt x="785" y="11" on="1"/>
        <pt x="785" y="0" on="1"/>
        <pt x="568" y="0" on="1"/>
        <pt x="523" y="151" on="1"/>
        <pt x="256" y="151" on="1"/>
        <pt x="212" y="0" on="1"/>
        <pt x="-5" y="0" on="1"/>
      </contour>
      <contour>
        <pt x="474" y="322" on="1"/>
        <pt x="443" y="432" on="1"/>
        <pt x="399" y="587" on="1"/>
        <pt x="381" y="587" on="1"/>
        <pt x="336" y="430" on="1"/>
        <pt x="306" y="322" on="1"/>
      </contour>
      <contour>
        <pt x="172" y="983" on="1"/>
        <pt x="607" y="983" on="1"/>
        <pt x="607" y="841" on="1"/>
        <pt x="172" y="841" on="1"/>
      </contour>
    </TTGlyph>
    <TTGlyph name="Amacron.sc" xMin="-4" yMin="0" xMax="726" yMax="789">
      <contour>
        <pt x="-4" y="10" on="1"/>
        <pt x="204" y="577" on="1"/>
        <pt x="519" y="577" on="1"/>
        <pt x="726" y="10" on="1"/>
        <pt x="726" y="0" on="1"/>
        <pt x="520" y="0" on="1"/>
        <pt x="483" y="94" on="1"/>
        <pt x="238" y="94" on="1"/>
        <pt x="202" y="0" on="1"/>
        <pt x="-4" y="0" on="1"/>
      </contour>
      <contour>
        <pt x="442" y="240" on="1"/>
        <pt x="410" y="327" on="1"/>
        <pt x="369" y="434" on="1"/>
        <pt x="351" y="434" on="1"/>
        <pt x="311" y="326" on="1"/>
        <pt x="279" y="240" on="1"/>
      </contour>
      <contour>
        <pt x="158" y="789" on="1"/>
        <pt x="564" y="789" on="1"/>
        <pt x="564" y="656" on="1"/>
        <pt x="158" y="656" on="1"/>
      </contour>
    </TTGlyph>
    <TTGlyph name="Aogonek" xMin="-6" yMin="-220" xMax="786" yMax="740">
      <contour>
        <pt x="688" y="-220" on="1"/>
        <pt x="610" y="-220" on="0"/>
        <pt x="524" y="-169" on="0"/>
        <pt x="524" y="-122" on="1"/>
        <pt x="524" y="-90" on="0"/>
        <pt x="567" y="-23" on="0"/>
        <pt x="604" y="0" on="1"/>
        <pt x="567" y="0" on="1"/>
        <pt x="522" y="151" on="1"/>
        <pt x="255" y="151" on="1"/>
        <pt x="211" y="0" on="1"/>
        <pt x="-6" y="0" on="1"/>
        <pt x="-6" y="11" on="1"/>
        <pt x="222" y="740" on="1"/>
        <pt x="556" y="740" on="1"/>
        <pt x="784" y="11" on="1"/>
        <pt x="784" y="-5" on="1"/>
        <pt x="749" y="-19" on="0"/>
        <pt x="702" y="-41" on="0"/>
        <pt x="674" y="-61" on="0"/>
        <pt x="662" y="-79" on="0"/>
        <pt x="662" y="-88" on="1"/>
        <pt x="662" y="-107" on="0"/>
        <pt x="691" y="-107" on="1"/>
        <pt x="705" y="-107" on="0"/>
        <pt x="761" y="-97" on="0"/>
        <pt x="786" y="-91" on="1"/>
        <pt x="786" y="-208" on="1"/>
        <pt x="763" y="-214" on="0"/>
        <pt x="715" y="-220" on="0"/>
      </contour>
      <contour>
        <pt x="473" y="322" on="1"/>
        <pt x="442" y="432" on="1"/>
        <pt x="398" y="587" on="1"/>
        <pt x="380" y="587" on="1"/>
        <pt x="335" y="430" on="1"/>
        <pt x="305" y="322" on="1"/>
      </contour>
    </TTGlyph>
    <TTGlyph name="Aogonek.sc" xMin="-4" yMin="-171" xMax="726" yMax="577">
      <contour>
        <pt x="637" y="-171" on="1"/>
        <pt x="564" y="-171" on="0"/>
        <pt x="483" y="-127" on="0"/>
        <pt x="483" y="-90" on="1"/>
        <pt x="483" y="-78" on="0"/>
        <pt x="493" y="-52" on="0"/>
        <pt x="510" y="-27" on="0"/>
        <pt x="533" y="-6" on="0"/>
        <pt x="546" y="0" on="1"/>
        <pt x="519" y="0" on="1"/>
        <pt x="482" y="94" on="1"/>
        <pt x="237" y="94" on="1"/>
        <pt x="202" y="0" on="1"/>
        <pt x="-4" y="0" on="1"/>
        <pt x="-4" y="10" on="1"/>
        <pt x="203" y="577" on="1"/>
        <pt x="518" y="577" on="1"/>
        <pt x="725" y="10" on="1"/>
        <pt x="725" y="-2" on="1"/>
        <pt x="686" y="-15" on="0"/>
        <pt x="642" y="-33" on="0"/>
        <pt x="619" y="-45" on="0"/>
        <pt x="614" y="-53" on="0"/>
        <pt x="614" y="-55" on="1"/>
        <pt x="614" y="-61" on="0"/>
        <pt x="624" y="-64" on="0"/>
        <pt x="635" y="-64" on="1"/>
        <pt x="642" y="-64" on="0"/>
        <pt x="667" y="-62" on="0"/>
        <pt x="693" y="-59" on="0"/>
        <pt x="718" y="-55" on="0"/>
        <pt x="726" y="-53" on="1"/>
        <pt x="726" y="-162" on="1"/>
        <pt x="703" y="-167" on="0"/>
        <pt x="659" y="-171" on="0"/>
      </contour>
      <contour>
        <pt x="440" y="240" on="1"/>
        <pt x="409" y="328" on="1"/>
        <pt x="369" y="434" on="1"/>
        <pt x="351" y="434" on="1"/>
        <pt x="310" y="327" on="1"/>
        <pt x="278" y="240" on="1"/>
      </contour>
    </TTGlyph>
    <TTGlyph name="Aring" xMin="-5" yMin="0" xMax="785" yMax="1013">
      <contour>
        <pt x="-5" y="11" on="1"/>
        <pt x="223" y="740" on="1"/>
        <pt x="557" y="740" on="1"/>
        <pt x="785" y="11" on="1"/>
        <pt x="785" y="0" on="1"/>
        <pt x="568" y="0" on="1"/>
        <pt x="523" y="151" on="1"/>
        <pt x="256" y="151" on="1"/>
        <pt x="212" y="0" on="1"/>
        <pt x="-5" y="0" on="1"/>
      </contour>
      <contour>
        <pt x="474" y="322" on="1"/>
        <pt x="443" y="432" on="1"/>
        <pt x="399" y="587" on="1"/>
        <pt x="381" y="587" on="1"/>
        <pt x="336" y="430" on="1"/>
        <pt x="306" y="322" on="1"/>
      </contour>
      <contour>
        <pt x="390" y="777" on="1"/>
        <pt x="329" y="777" on="0"/>
        <pt x="248" y="841" on="0"/>
        <pt x="248" y="894" on="1"/>
        <pt x="248" y="920" on="0"/>
        <pt x="270" y="964" on="0"/>
        <pt x="308" y="995" on="0"/>
        <pt x="360" y="1013" on="0"/>
        <pt x="390" y="1013" on="1"/>
        <pt x="452" y="1013" on="0"/>
        <pt x="532" y="947" on="0"/>
        <pt x="532" y="894" on="1"/>
        <pt x="532" y="841" on="0"/>
        <pt x="452" y="777" on="0"/>
      </contour>
      <contour>
        <pt x="390" y="845" on="1"/>
        <pt x="425" y="845" on="0"/>
        <pt x="450" y="868" on="0"/>
        <pt x="450" y="894" on="1"/>
        <pt x="450" y="920" on="0"/>
        <pt x="425" y="945" on="0"/>
        <pt x="390" y="945" on="1"/>
        <pt x="355" y="945" on="0"/>
        <pt x="330" y="920" on="0"/>
        <pt x="330" y="894" on="1"/>
        <pt x="330" y="868" on="0"/>
        <pt x="355" y="845" on="0"/>
      </contour>
    </TTGlyph>
    <TTGlyph name="Aring.sc" xMin="-4" yMin="0" xMax="726" yMax="795">
      <contour>
        <pt x="-4" y="10" on="1"/>
        <pt x="204" y="577" on="1"/>
        <pt x="519" y="577" on="1"/>
        <pt x="726" y="10" on="1"/>
        <pt x="726" y="0" on="1"/>
        <pt x="520" y="0" on="1"/>
        <pt x="483" y="94" on="1"/>
        <pt x="238" y="94" on="1"/>
        <pt x="202" y="0" on="1"/>
        <pt x="-4" y="0" on="1"/>
      </contour>
      <contour>
        <pt x="442" y="240" on="1"/>
        <pt x="410" y="327" on="1"/>
        <pt x="369" y="434" on="1"/>
        <pt x="351" y="434" on="1"/>
        <pt x="311" y="326" on="1"/>
        <pt x="279" y="240" on="1"/>
      </contour>
      <contour>
        <pt x="361" y="606" on="1"/>
        <pt x="305" y="606" on="0"/>
        <pt x="231" y="657" on="0"/>
        <pt x="231" y="700" on="1"/>
        <pt x="231" y="721" on="0"/>
        <pt x="251" y="756" on="0"/>
        <pt x="286" y="781" on="0"/>
        <pt x="333" y="795" on="0"/>
        <pt x="361" y="795" on="1"/>
        <pt x="389" y="795" on="0"/>
        <pt x="437" y="781" on="0"/>
        <pt x="471" y="756" on="0"/>
        <pt x="491" y="721" on="0"/>
        <pt x="491" y="700" on="1"/>
        <pt x="491" y="657" on="0"/>
        <pt x="418" y="606" on="0"/>
      </contour>
      <contour>
        <pt x="361" y="666" on="1"/>
        <pt x="393" y="666" on="0"/>
        <pt x="415" y="681" on="0"/>
        <pt x="415" y="700" on="1"/>
        <pt x="415" y="720" on="0"/>
        <pt x="393" y="735" on="0"/>
        <pt x="361" y="735" on="1"/>
        <pt x="329" y="735" on="0"/>
        <pt x="307" y="720" on="0"/>
        <pt x="307" y="700" on="1"/>
        <pt x="307" y="681" on="0"/>
        <pt x="329" y="666" on="0"/>
      </contour>
    </TTGlyph>
    <TTGlyph name="Aringacute" xMin="-5" yMin="0" xMax="784" yMax="1030">
      <contour>
        <pt x="-5" y="11" on="1"/>
        <pt x="207" y="682" on="1"/>
        <pt x="184" y="716" on="0"/>
        <pt x="184" y="760" on="1"/>
        <pt x="184" y="818" on="0"/>
        <pt x="261" y="896" on="0"/>
        <pt x="330" y="910" on="1"/>
        <pt x="369" y="1030" on="1"/>
        <pt x="594" y="1030" on="1"/>
        <pt x="505" y="894" on="1"/>
        <pt x="550" y="874" on="0"/>
        <pt x="602" y="805" on="0"/>
        <pt x="602" y="760" on="1"/>
        <pt x="602" y="737" on="0"/>
        <pt x="587" y="694" on="0"/>
        <pt x="573" y="677" on="1"/>
        <pt x="784" y="11" on="1"/>
        <pt x="784" y="0" on="1"/>
        <pt x="568" y="0" on="1"/>
        <pt x="525" y="146" on="1"/>
        <pt x="254" y="146" on="1"/>
        <pt x="212" y="0" on="1"/>
        <pt x="-5" y="0" on="1"/>
      </contour>
      <contour>
        <pt x="390" y="702" on="1"/>
        <pt x="428" y="702" on="0"/>
        <pt x="475" y="734" on="0"/>
        <pt x="475" y="760" on="1"/>
        <pt x="475" y="787" on="0"/>
        <pt x="428" y="819" on="0"/>
        <pt x="390" y="819" on="1"/>
        <pt x="354" y="819" on="0"/>
        <pt x="310" y="787" on="0"/>
        <pt x="310" y="760" on="1"/>
        <pt x="310" y="734" on="0"/>
        <pt x="355" y="702" on="0"/>
      </contour>
      <contour>
        <pt x="472" y="326" on="1"/>
        <pt x="443" y="432" on="1"/>
        <pt x="399" y="587" on="1"/>
        <pt x="380" y="587" on="1"/>
        <pt x="336" y="430" on="1"/>
        <pt x="307" y="326" on="1"/>
      </contour>
    </TTGlyph>
    <TTGlyph name="Aringacute.sc" xMin="-4" yMin="0" xMax="725" yMax="818">
      <contour>
        <pt x="-4" y="10" on="1"/>
        <pt x="189" y="537" on="1"/>
        <pt x="169" y="563" on="0"/>
        <pt x="169" y="596" on="1"/>
        <pt x="169" y="644" on="0"/>
        <pt x="241" y="709" on="0"/>
        <pt x="304" y="720" on="1"/>
        <pt x="338" y="818" on="1"/>
        <pt x="551" y="818" on="1"/>
        <pt x="470" y="706" on="1"/>
        <pt x="512" y="689" on="0"/>
        <pt x="560" y="632" on="0"/>
        <pt x="560" y="596" on="1"/>
        <pt x="560" y="561" on="0"/>
        <pt x="533" y="531" on="1"/>
        <pt x="725" y="10" on="1"/>
        <pt x="725" y="0" on="1"/>
        <pt x="519" y="0" on="1"/>
        <pt x="483" y="94" on="1"/>
        <pt x="238" y="94" on="1"/>
        <pt x="202" y="0" on="1"/>
        <pt x="-4" y="0" on="1"/>
      </contour>
      <contour>
        <pt x="362" y="553" on="1"/>
        <pt x="397" y="553" on="0"/>
        <pt x="440" y="577" on="0"/>
        <pt x="440" y="596" on="1"/>
        <pt x="440" y="616" on="0"/>
        <pt x="397" y="638" on="0"/>
        <pt x="362" y="638" on="1"/>
        <pt x="328" y="638" on="0"/>
        <pt x="289" y="616" on="0"/>
        <pt x="289" y="596" on="1"/>
        <pt x="289" y="576" on="0"/>
        <pt x="329" y="553" on="0"/>
      </contour>
      <contour>
        <pt x="443" y="240" on="1"/>
        <pt x="410" y="327" on="1"/>
        <pt x="368" y="446" on="1"/>
        <pt x="353" y="446" on="1"/>
        <pt x="311" y="326" on="1"/>
        <pt x="281" y="240" on="1"/>
      </contour>
    </TTGlyph>
    <TTGlyph name="Atilde" xMin="-5" yMin="0" xMax="785" yMax="1000">
      <contour>
        <pt x="-5" y="11" on="1"/>
        <pt x="223" y="740" on="1"/>
        <pt x="557" y="740" on="1"/>
        <pt x="785" y="11" on="1"/>
        <pt x="785" y="0" on="1"/>
        <pt x="568" y="0" on="1"/>
        <pt x="523" y="151" on="1"/>
        <pt x="256" y="151" on="1"/>
        <pt x="212" y="0" on="1"/>
        <pt x="-5" y="0" on="1"/>
      </contour>
      <contour>
        <pt x="474" y="322" on="1"/>
        <pt x="443" y="432" on="1"/>
        <pt x="399" y="587" on="1"/>
        <pt x="381" y="587" on="1"/>
        <pt x="336" y="430" on="1"/>
        <pt x="306" y="322" on="1"/>
      </contour>
      <contour>
        <pt x="140" y="854" on="1"/>
        <pt x="177" y="927" on="0"/>
        <pt x="272" y="1000" on="0"/>
        <pt x="317" y="1000" on="1"/>
        <pt x="344" y="1000" on="0"/>
        <pt x="396" y="988" on="0"/>
        <pt x="449" y="975" on="0"/>
        <pt x="502" y="963" on="0"/>
        <pt x="529" y="963" on="1"/>
        <pt x="552" y="963" on="0"/>
        <pt x="596" y="977" on="0"/>
        <pt x="627" y="1000" on="1"/>
        <pt x="650" y="966" on="1"/>
        <pt x="612" y="892" on="0"/>
        <pt x="517" y="820" on="0"/>
        <pt x="474" y="820" on="1"/>
        <pt x="447" y="820" on="0"/>
        <pt x="394" y="832" on="0"/>
        <pt x="341" y="845" on="0"/>
        <pt x="288" y="857" on="0"/>
        <pt x="261" y="857" on="1"/>
        <pt x="237" y="857" on="0"/>
        <pt x="192" y="843" on="0"/>
        <pt x="163" y="820" on="1"/>
      </contour>
    </TTGlyph>
    <TTGlyph name="Atilde.sc" xMin="-4" yMin="0" xMax="726" yMax="800">
      <contour>
        <pt x="-4" y="10" on="1"/>
        <pt x="204" y="577" on="1"/>
        <pt x="519" y="577" on="1"/>
        <pt x="726" y="10" on="1"/>
        <pt x="726" y="0" on="1"/>
        <pt x="520" y="0" on="1"/>
        <pt x="483" y="94" on="1"/>
        <pt x="238" y="94" on="1"/>
        <pt x="202" y="0" on="1"/>
        <pt x="-4" y="0" on="1"/>
      </contour>
      <contour>
        <pt x="442" y="240" on="1"/>
        <pt x="410" y="327" on="1"/>
        <pt x="369" y="434" on="1"/>
        <pt x="351" y="434" on="1"/>
        <pt x="311" y="326" on="1"/>
        <pt x="279" y="240" on="1"/>
      </contour>
      <contour>
        <pt x="127" y="666" on="1"/>
        <pt x="161" y="733" on="0"/>
        <pt x="250" y="799" on="0"/>
        <pt x="292" y="799" on="1"/>
        <pt x="317" y="799" on="0"/>
        <pt x="366" y="791" on="0"/>
        <pt x="415" y="780" on="0"/>
        <pt x="464" y="772" on="0"/>
        <pt x="489" y="772" on="1"/>
        <pt x="510" y="772" on="0"/>
        <pt x="552" y="782" on="0"/>
        <pt x="581" y="800" on="1"/>
        <pt x="601" y="770" on="1"/>
        <pt x="566" y="703" on="0"/>
        <pt x="476" y="638" on="0"/>
        <pt x="438" y="638" on="1"/>
        <pt x="413" y="638" on="0"/>
        <pt x="363" y="646" on="0"/>
        <pt x="313" y="657" on="0"/>
        <pt x="263" y="665" on="0"/>
        <pt x="238" y="665" on="1"/>
        <pt x="216" y="665" on="0"/>
        <pt x="175" y="655" on="0"/>
        <pt x="149" y="637" on="1"/>
      </contour>
    </TTGlyph>
    <TTGlyph name="B" xMin="61" yMin="-10" xMax="720" yMax="750">
      <contour>
        <pt x="385" y="-10" on="1"/>
        <pt x="304" y="-10" on="0"/>
        <pt x="148" y="-3" on="0"/>
        <pt x="61" y="5" on="1"/>
        <pt x="61" y="735" on="1"/>
        <pt x="141" y="743" on="0"/>
        <pt x="284" y="750" on="0"/>
        <pt x="354" y="750" on="1"/>
        <pt x="532" y="750" on="0"/>
        <pt x="697" y="647" on="0"/>
        <pt x="697" y="537" on="1"/>
        <pt x="697" y="417" on="0"/>
        <pt x="569" y="383" on="1"/>
        <pt x="569" y="379" on="1"/>
        <pt x="643" y="365" on="0"/>
        <pt x="720" y="276" on="0"/>
        <pt x="720" y="205" on="1"/>
        <pt x="720" y="95" on="0"/>
        <pt x="557" y="-10" on="0"/>
      </contour>
      <contour>
        <pt x="382" y="146" on="1"/>
        <pt x="441" y="146" on="0"/>
        <pt x="496" y="185" on="0"/>
        <pt x="496" y="227" on="1"/>
        <pt x="496" y="269" on="0"/>
        <pt x="445" y="302" on="0"/>
        <pt x="381" y="302" on="1"/>
        <pt x="275" y="302" on="1"/>
        <pt x="275" y="150" on="1"/>
        <pt x="281" y="149" on="0"/>
        <pt x="294" y="147" on="0"/>
        <pt x="316" y="146" on="0"/>
        <pt x="352" y="146" on="0"/>
      </contour>
      <contour>
        <pt x="365" y="445" on="1"/>
        <pt x="426" y="445" on="0"/>
        <pt x="474" y="479" on="0"/>
        <pt x="474" y="521" on="1"/>
        <pt x="474" y="561" on="0"/>
        <pt x="426" y="595" on="0"/>
        <pt x="367" y="595" on="1"/>
        <pt x="314" y="595" on="0"/>
        <pt x="275" y="589" on="1"/>
        <pt x="275" y="445" on="1"/>
      </contour>
    </TTGlyph>
    <TTGlyph name="B.sc" xMin="59" yMin="-8" xMax="670" yMax="585">
      <contour>
        <pt x="366" y="-8" on="1"/>
        <pt x="288" y="-8" on="0"/>
        <pt x="142" y="-2" on="0"/>
        <pt x="59" y="4" on="1"/>
        <pt x="59" y="573" on="1"/>
        <pt x="131" y="579" on="0"/>
        <pt x="266" y="585" on="0"/>
        <pt x="333" y="585" on="1"/>
        <pt x="496" y="585" on="0"/>
        <pt x="648" y="504" on="0"/>
        <pt x="648" y="416" on="1"/>
        <pt x="648" y="371" on="0"/>
        <pt x="591" y="315" on="0"/>
        <pt x="532" y="300" on="1"/>
        <pt x="532" y="297" on="1"/>
        <pt x="599" y="286" on="0"/>
        <pt x="670" y="217" on="0"/>
        <pt x="670" y="163" on="1"/>
        <pt x="670" y="74" on="0"/>
        <pt x="523" y="-8" on="0"/>
      </contour>
      <contour>
        <pt x="361" y="133" on="1"/>
        <pt x="412" y="133" on="0"/>
        <pt x="461" y="157" on="0"/>
        <pt x="461" y="185" on="1"/>
        <pt x="461" y="212" on="0"/>
        <pt x="416" y="231" on="0"/>
        <pt x="359" y="231" on="1"/>
        <pt x="261" y="231" on="1"/>
        <pt x="261" y="134" on="1"/>
        <pt x="267" y="133" on="0"/>
        <pt x="278" y="133" on="0"/>
        <pt x="298" y="133" on="0"/>
        <pt x="332" y="133" on="0"/>
      </contour>
      <contour>
        <pt x="343" y="353" on="1"/>
        <pt x="397" y="353" on="0"/>
        <pt x="440" y="373" on="0"/>
        <pt x="440" y="400" on="1"/>
        <pt x="440" y="425" on="0"/>
        <pt x="397" y="445" on="0"/>
        <pt x="345" y="445" on="1"/>
        <pt x="322" y="445" on="0"/>
        <pt x="278" y="444" on="0"/>
        <pt x="261" y="441" on="1"/>
        <pt x="261" y="353" on="1"/>
      </contour>
    </TTGlyph>
    <TTGlyph name="C" xMin="31" yMin="-14" xMax="585" yMax="754">
      <contour>
        <pt x="425" y="-14" on="1"/>
        <pt x="225" y="-14" on="0"/>
        <pt x="31" y="173" on="0"/>
        <pt x="31" y="369" on="1"/>
        <pt x="31" y="566" on="0"/>
        <pt x="218" y="754" on="0"/>
        <pt x="407" y="754" on="1"/>
        <pt x="442" y="754" on="0"/>
        <pt x="525" y="747" on="0"/>
        <pt x="585" y="739" on="1"/>
        <pt x="585" y="562" on="1"/>
        <pt x="552" y="565" on="0"/>
        <pt x="507" y="569" on="0"/>
        <pt x="474" y="571" on="0"/>
        <pt x="449" y="572" on="0"/>
        <pt x="436" y="572" on="1"/>
        <pt x="382" y="572" on="0"/>
        <pt x="315" y="557" on="0"/>
        <pt x="277" y="513" on="0"/>
        <pt x="263" y="433" on="0"/>
        <pt x="263" y="369" on="1"/>
        <pt x="263" y="306" on="0"/>
        <pt x="277" y="228" on="0"/>
        <pt x="315" y="185" on="0"/>
        <pt x="382" y="169" on="0"/>
        <pt x="434" y="169" on="1"/>
        <pt x="451" y="169" on="0"/>
        <pt x="493" y="171" on="0"/>
        <pt x="535" y="175" on="0"/>
        <pt x="572" y="179" on="0"/>
        <pt x="585" y="182" on="1"/>
        <pt x="585" y="4" on="1"/>
        <pt x="548" y="-4" on="0"/>
        <pt x="466" y="-14" on="0"/>
      </contour>
    </TTGlyph>
    <TTGlyph name="C.sc" xMin="31" yMin="-12" xMax="541" yMax="589">
      <contour>
        <pt x="397" y="-12" on="1"/>
        <pt x="210" y="-12" on="0"/>
        <pt x="31" y="134" on="0"/>
        <pt x="31" y="288" on="1"/>
        <pt x="31" y="442" on="0"/>
        <pt x="201" y="589" on="0"/>
        <pt x="378" y="589" on="1"/>
        <pt x="416" y="589" on="0"/>
        <pt x="492" y="584" on="0"/>
        <pt x="541" y="579" on="1"/>
        <pt x="541" y="412" on="1"/>
        <pt x="517" y="414" on="0"/>
        <pt x="482" y="416" on="0"/>
        <pt x="452" y="418" on="0"/>
        <pt x="423" y="418" on="0"/>
        <pt x="405" y="418" on="1"/>
        <pt x="354" y="418" on="0"/>
        <pt x="293" y="410" on="0"/>
        <pt x="261" y="383" on="0"/>
        <pt x="251" y="332" on="0"/>
        <pt x="251" y="288" on="1"/>
        <pt x="251" y="245" on="0"/>
        <pt x="261" y="194" on="0"/>
        <pt x="294" y="168" on="0"/>
        <pt x="353" y="160" on="0"/>
        <pt x="403" y="160" on="1"/>
        <pt x="419" y="160" on="0"/>
        <pt x="457" y="161" on="0"/>
        <pt x="496" y="163" on="0"/>
        <pt x="530" y="166" on="0"/>
        <pt x="541" y="168" on="1"/>
        <pt x="541" y="0" on="1"/>
        <pt x="479" y="-12" on="0"/>
      </contour>
    </TTGlyph>
    <TTGlyph name="Cacute" xMin="31" yMin="-14" xMax="585" yMax="1003">
      <contour>
        <pt x="425" y="-14" on="1"/>
        <pt x="225" y="-14" on="0"/>
        <pt x="31" y="173" on="0"/>
        <pt x="31" y="369" on="1"/>
        <pt x="31" y="566" on="0"/>
        <pt x="218" y="754" on="0"/>
        <pt x="407" y="754" on="1"/>
        <pt x="442" y="754" on="0"/>
        <pt x="525" y="747" on="0"/>
        <pt x="585" y="739" on="1"/>
        <pt x="585" y="562" on="1"/>
        <pt x="552" y="565" on="0"/>
        <pt x="507" y="569" on="0"/>
        <pt x="474" y="571" on="0"/>
        <pt x="449" y="572" on="0"/>
        <pt x="436" y="572" on="1"/>
        <pt x="382" y="572" on="0"/>
        <pt x="315" y="557" on="0"/>
        <pt x="277" y="513" on="0"/>
        <pt x="263" y="433" on="0"/>
        <pt x="263" y="369" on="1"/>
        <pt x="263" y="306" on="0"/>
        <pt x="277" y="228" on="0"/>
        <pt x="315" y="185" on="0"/>
        <pt x="382" y="169" on="0"/>
        <pt x="434" y="169" on="1"/>
        <pt x="451" y="169" on="0"/>
        <pt x="493" y="171" on="0"/>
        <pt x="535" y="175" on="0"/>
        <pt x="572" y="179" on="0"/>
        <pt x="585" y="182" on="1"/>
        <pt x="585" y="4" on="1"/>
        <pt x="548" y="-4" on="0"/>
        <pt x="466" y="-14" on="0"/>
      </contour>
      <contour>
        <pt x="258" y="813" on="1"/>
        <pt x="321" y="1003" on="1"/>
        <pt x="545" y="1003" on="1"/>
        <pt x="416" y="803" on="1"/>
      </contour>
    </TTGlyph>
    <TTGlyph name="Cacute.sc" xMin="30" yMin="-12" xMax="540" yMax="798">
      <contour>
        <pt x="396" y="-12" on="1"/>
        <pt x="209" y="-12" on="0"/>
        <pt x="30" y="133" on="0"/>
        <pt x="30" y="288" on="1"/>
        <pt x="30" y="442" on="0"/>
        <pt x="201" y="589" on="0"/>
        <pt x="377" y="589" on="1"/>
        <pt x="409" y="589" on="0"/>
        <pt x="483" y="585" on="0"/>
        <pt x="540" y="579" on="1"/>
        <pt x="540" y="412" on="1"/>
        <pt x="508" y="414" on="0"/>
        <pt x="467" y="417" on="0"/>
        <pt x="438" y="418" on="0"/>
        <pt x="416" y="418" on="0"/>
        <pt x="404" y="418" on="1"/>
        <pt x="355" y="418" on="0"/>
        <pt x="295" y="412" on="0"/>
        <pt x="262" y="386" on="0"/>
        <pt x="250" y="334" on="0"/>
        <pt x="250" y="288" on="1"/>
        <pt x="250" y="244" on="0"/>
        <pt x="262" y="193" on="0"/>
        <pt x="295" y="167" on="0"/>
        <pt x="354" y="160" on="0"/>
        <pt x="402" y="160" on="1"/>
        <pt x="417" y="160" on="0"/>
        <pt x="455" y="161" on="0"/>
        <pt x="494" y="163" on="0"/>
        <pt x="529" y="166" on="0"/>
        <pt x="540" y="168" on="1"/>
        <pt x="540" y="0" on="1"/>
        <pt x="505" y="-6" on="0"/>
        <pt x="432" y="-12" on="0"/>
      </contour>
      <contour>
        <pt x="237" y="637" on="1"/>
        <pt x="292" y="798" on="1"/>
        <pt x="505" y="798" on="1"/>
        <pt x="385" y="628" on="1"/>
      </contour>
    </TTGlyph>
    <TTGlyph name="Ccaron" xMin="31" yMin="-14" xMax="585" yMax="1016">
      <contour>
        <pt x="425" y="-14" on="1"/>
        <pt x="225" y="-14" on="0"/>
        <pt x="31" y="173" on="0"/>
        <pt x="31" y="369" on="1"/>
        <pt x="31" y="566" on="0"/>
        <pt x="218" y="754" on="0"/>
        <pt x="407" y="754" on="1"/>
        <pt x="442" y="754" on="0"/>
        <pt x="525" y="747" on="0"/>
        <pt x="585" y="739" on="1"/>
        <pt x="585" y="562" on="1"/>
        <pt x="552" y="565" on="0"/>
        <pt x="507" y="569" on="0"/>
        <pt x="474" y="571" on="0"/>
        <pt x="449" y="572" on="0"/>
        <pt x="436" y="572" on="1"/>
        <pt x="382" y="572" on="0"/>
        <pt x="315" y="557" on="0"/>
        <pt x="277" y="513" on="0"/>
        <pt x="263" y="433" on="0"/>
        <pt x="263" y="369" on="1"/>
        <pt x="263" y="306" on="0"/>
        <pt x="277" y="228" on="0"/>
        <pt x="315" y="185" on="0"/>
        <pt x="382" y="169" on="0"/>
        <pt x="434" y="169" on="1"/>
        <pt x="451" y="169" on="0"/>
        <pt x="493" y="171" on="0"/>
        <pt x="535" y="175" on="0"/>
        <pt x="572" y="179" on="0"/>
        <pt x="585" y="182" on="1"/>
        <pt x="585" y="4" on="1"/>
        <pt x="548" y="-4" on="0"/>
        <pt x="466" y="-14" on="0"/>
      </contour>
      <contour>
        <pt x="129" y="1016" on="1"/>
        <pt x="348" y="936" on="1"/>
        <pt x="567" y="1016" on="1"/>
        <pt x="567" y="873" on="1"/>
        <pt x="346" y="794" on="1"/>
        <pt x="129" y="873" on="1"/>
      </contour>
    </TTGlyph>
    <TTGlyph name="Ccaron.sc" xMin="30" yMin="-12" xMax="540" yMax="812">
      <contour>
        <pt x="396" y="-12" on="1"/>
        <pt x="209" y="-12" on="0"/>
        <pt x="30" y="133" on="0"/>
        <pt x="30" y="288" on="1"/>
        <pt x="30" y="442" on="0"/>
        <pt x="201" y="589" on="0"/>
        <pt x="377" y="589" on="1"/>
        <pt x="409" y="589" on="0"/>
        <pt x="483" y="585" on="0"/>
        <pt x="540" y="579" on="1"/>
        <pt x="540" y="412" on="1"/>
        <pt x="508" y="414" on="0"/>
        <pt x="467" y="417" on="0"/>
        <pt x="438" y="418" on="0"/>
        <pt x="416" y="418" on="0"/>
        <pt x="404" y="418" on="1"/>
        <pt x="355" y="418" on="0"/>
        <pt x="295" y="412" on="0"/>
        <pt x="262" y="386" on="0"/>
        <pt x="250" y="334" on="0"/>
        <pt x="250" y="288" on="1"/>
        <pt x="250" y="244" on="0"/>
        <pt x="262" y="193" on="0"/>
        <pt x="295" y="167" on="0"/>
        <pt x="354" y="160" on="0"/>
        <pt x="402" y="160" on="1"/>
        <pt x="417" y="160" on="0"/>
        <pt x="455" y="161" on="0"/>
        <pt x="494" y="163" on="0"/>
        <pt x="529" y="166" on="0"/>
        <pt x="540" y="168" on="1"/>
        <pt x="540" y="0" on="1"/>
        <pt x="505" y="-6" on="0"/>
        <pt x="432" y="-12" on="0"/>
      </contour>
      <contour>
        <pt x="116" y="812" on="1"/>
        <pt x="320" y="747" on="1"/>
        <pt x="524" y="812" on="1"/>
        <pt x="524" y="680" on="1"/>
        <pt x="318" y="616" on="1"/>
        <pt x="116" y="680" on="1"/>
      </contour>
    </TTGlyph>
    <TTGlyph name="Ccedilla" xMin="31" yMin="-220" xMax="585" yMax="754">
      <contour>
        <pt x="352" y="-220" on="1"/>
        <pt x="328" y="-220" on="0"/>
        <pt x="269" y="-213" on="0"/>
        <pt x="238" y="-208" on="1"/>
        <pt x="238" y="-85" on="1"/>
        <pt x="260" y="-90" on="0"/>
        <pt x="307" y="-96" on="0"/>
        <pt x="323" y="-96" on="1"/>
        <pt x="340" y="-96" on="0"/>
        <pt x="350" y="-86" on="0"/>
        <pt x="350" y="-79" on="1"/>
        <pt x="350" y="-68" on="0"/>
        <pt x="332" y="-30" on="0"/>
        <pt x="314" y="-5" on="1"/>
        <pt x="171" y="18" on="0"/>
        <pt x="31" y="202" on="0"/>
        <pt x="31" y="369" on="1"/>
        <pt x="31" y="566" on="0"/>
        <pt x="218" y="754" on="0"/>
        <pt x="407" y="754" on="1"/>
        <pt x="442" y="754" on="0"/>
        <pt x="525" y="747" on="0"/>
        <pt x="585" y="739" on="1"/>
        <pt x="585" y="562" on="1"/>
        <pt x="552" y="565" on="0"/>
        <pt x="507" y="569" on="0"/>
        <pt x="474" y="571" on="0"/>
        <pt x="449" y="572" on="0"/>
        <pt x="436" y="572" on="1"/>
        <pt x="382" y="572" on="0"/>
        <pt x="315" y="557" on="0"/>
        <pt x="277" y="513" on="0"/>
        <pt x="263" y="433" on="0"/>
        <pt x="263" y="369" on="1"/>
        <pt x="263" y="306" on="0"/>
        <pt x="277" y="228" on="0"/>
        <pt x="315" y="185" on="0"/>
        <pt x="382" y="169" on="0"/>
        <pt x="434" y="169" on="1"/>
        <pt x="451" y="169" on="0"/>
        <pt x="493" y="171" on="0"/>
        <pt x="535" y="175" on="0"/>
        <pt x="572" y="179" on="0"/>
        <pt x="585" y="182" on="1"/>
        <pt x="585" y="4" on="1"/>
        <pt x="520" y="-10" on="0"/>
        <pt x="450" y="-13" on="1"/>
        <pt x="472" y="-42" on="0"/>
        <pt x="488" y="-85" on="0"/>
        <pt x="488" y="-109" on="1"/>
        <pt x="488" y="-162" on="0"/>
        <pt x="415" y="-220" on="0"/>
      </contour>
    </TTGlyph>
    <TTGlyph name="Ccedilla.sc" xMin="31" yMin="-172" xMax="541" yMax="589">
      <contour>
        <pt x="329" y="-172" on="1"/>
        <pt x="306" y="-172" on="0"/>
        <pt x="252" y="-165" on="0"/>
        <pt x="223" y="-162" on="1"/>
        <pt x="223" y="-49" on="1"/>
        <pt x="243" y="-53" on="0"/>
        <pt x="288" y="-58" on="0"/>
        <pt x="303" y="-58" on="1"/>
        <pt x="316" y="-58" on="0"/>
        <pt x="324" y="-56" on="0"/>
        <pt x="324" y="-58" on="1"/>
        <pt x="324" y="-42" on="0"/>
        <pt x="297" y="-6" on="1"/>
        <pt x="161" y="11" on="0"/>
        <pt x="31" y="155" on="0"/>
        <pt x="31" y="288" on="1"/>
        <pt x="31" y="442" on="0"/>
        <pt x="202" y="589" on="0"/>
        <pt x="378" y="589" on="1"/>
        <pt x="409" y="589" on="0"/>
        <pt x="484" y="585" on="0"/>
        <pt x="541" y="579" on="1"/>
        <pt x="541" y="412" on="1"/>
        <pt x="509" y="414" on="0"/>
        <pt x="468" y="417" on="0"/>
        <pt x="438" y="418" on="0"/>
        <pt x="417" y="418" on="0"/>
        <pt x="405" y="418" on="1"/>
        <pt x="356" y="418" on="0"/>
        <pt x="296" y="412" on="0"/>
        <pt x="263" y="386" on="0"/>
        <pt x="251" y="334" on="0"/>
        <pt x="251" y="288" on="1"/>
        <pt x="251" y="244" on="0"/>
        <pt x="263" y="193" on="0"/>
        <pt x="296" y="167" on="0"/>
        <pt x="355" y="160" on="0"/>
        <pt x="403" y="160" on="1"/>
        <pt x="418" y="160" on="0"/>
        <pt x="456" y="161" on="0"/>
        <pt x="495" y="163" on="0"/>
        <pt x="529" y="166" on="0"/>
        <pt x="541" y="168" on="1"/>
        <pt x="541" y="0" on="1"/>
        <pt x="513" y="-5" on="0"/>
        <pt x="453" y="-11" on="0"/>
        <pt x="423" y="-12" on="1"/>
        <pt x="440" y="-33" on="0"/>
        <pt x="453" y="-66" on="0"/>
        <pt x="453" y="-85" on="1"/>
        <pt x="453" y="-126" on="0"/>
        <pt x="386" y="-172" on="0"/>
      </contour>
    </TTGlyph>
    <TTGlyph name="Ccircumflex" xMin="31" yMin="-14" xMax="585" yMax="1016">
      <contour>
        <pt x="425" y="-14" on="1"/>
        <pt x="225" y="-14" on="0"/>
        <pt x="31" y="173" on="0"/>
        <pt x="31" y="369" on="1"/>
        <pt x="31" y="566" on="0"/>
        <pt x="218" y="754" on="0"/>
        <pt x="407" y="754" on="1"/>
        <pt x="442" y="754" on="0"/>
        <pt x="525" y="747" on="0"/>
        <pt x="585" y="739" on="1"/>
        <pt x="585" y="562" on="1"/>
        <pt x="552" y="565" on="0"/>
        <pt x="507" y="569" on="0"/>
        <pt x="474" y="571" on="0"/>
        <pt x="449" y="572" on="0"/>
        <pt x="436" y="572" on="1"/>
        <pt x="382" y="572" on="0"/>
        <pt x="315" y="557" on="0"/>
        <pt x="277" y="513" on="0"/>
        <pt x="263" y="433" on="0"/>
        <pt x="263" y="369" on="1"/>
        <pt x="263" y="306" on="0"/>
        <pt x="277" y="228" on="0"/>
        <pt x="315" y="185" on="0"/>
        <pt x="382" y="169" on="0"/>
        <pt x="434" y="169" on="1"/>
        <pt x="451" y="169" on="0"/>
        <pt x="493" y="171" on="0"/>
        <pt x="535" y="175" on="0"/>
        <pt x="572" y="179" on="0"/>
        <pt x="585" y="182" on="1"/>
        <pt x="585" y="4" on="1"/>
        <pt x="548" y="-4" on="0"/>
        <pt x="466" y="-14" on="0"/>
      </contour>
      <contour>
        <pt x="124" y="936" on="1"/>
        <pt x="341" y="1016" on="1"/>
        <pt x="562" y="936" on="1"/>
        <pt x="562" y="794" on="1"/>
        <pt x="343" y="873" on="1"/>
        <pt x="124" y="794" on="1"/>
      </contour>
    </TTGlyph>
    <TTGlyph name="Ccircumflex.sc" xMin="30" yMin="-12" xMax="540" yMax="811">
      <contour>
        <pt x="396" y="-12" on="1"/>
        <pt x="209" y="-12" on="0"/>
        <pt x="30" y="133" on="0"/>
        <pt x="30" y="288" on="1"/>
        <pt x="30" y="442" on="0"/>
        <pt x="201" y="589" on="0"/>
        <pt x="377" y="589" on="1"/>
        <pt x="409" y="589" on="0"/>
        <pt x="483" y="585" on="0"/>
        <pt x="540" y="579" on="1"/>
        <pt x="540" y="412" on="1"/>
        <pt x="508" y="414" on="0"/>
        <pt x="467" y="417" on="0"/>
        <pt x="438" y="418" on="0"/>
        <pt x="416" y="418" on="0"/>
        <pt x="404" y="418" on="1"/>
        <pt x="355" y="418" on="0"/>
        <pt x="295" y="412" on="0"/>
        <pt x="262" y="386" on="0"/>
        <pt x="250" y="334" on="0"/>
        <pt x="250" y="288" on="1"/>
        <pt x="250" y="244" on="0"/>
        <pt x="262" y="193" on="0"/>
        <pt x="295" y="167" on="0"/>
        <pt x="354" y="160" on="0"/>
        <pt x="402" y="160" on="1"/>
        <pt x="417" y="160" on="0"/>
        <pt x="455" y="161" on="0"/>
        <pt x="494" y="163" on="0"/>
        <pt x="529" y="166" on="0"/>
        <pt x="540" y="168" on="1"/>
        <pt x="540" y="0" on="1"/>
        <pt x="505" y="-6" on="0"/>
        <pt x="432" y="-12" on="0"/>
      </contour>
      <contour>
        <pt x="112" y="747" on="1"/>
        <pt x="315" y="811" on="1"/>
        <pt x="521" y="747" on="1"/>
        <pt x="521" y="616" on="1"/>
        <pt x="317" y="679" on="1"/>
        <pt x="112" y="616" on="1"/>
      </contour>
    </TTGlyph>
    <TTGlyph name="Cdotaccent" xMin="31" yMin="-14" xMax="585" yMax="1022">
      <contour>
        <pt x="365" y="795" on="1"/>
        <pt x="302" y="795" on="0"/>
        <pt x="248" y="849" on="0"/>
        <pt x="248" y="909" on="1"/>
        <pt x="248" y="969" on="0"/>
        <pt x="302" y="1022" on="0"/>
        <pt x="365" y="1022" on="1"/>
        <pt x="429" y="1022" on="0"/>
        <pt x="481" y="966" on="0"/>
        <pt x="481" y="909" on="1"/>
        <pt x="481" y="851" on="0"/>
        <pt x="429" y="795" on="0"/>
      </contour>
      <contour>
        <pt x="425" y="-14" on="1"/>
        <pt x="225" y="-14" on="0"/>
        <pt x="31" y="173" on="0"/>
        <pt x="31" y="369" on="1"/>
        <pt x="31" y="566" on="0"/>
        <pt x="218" y="754" on="0"/>
        <pt x="407" y="754" on="1"/>
        <pt x="442" y="754" on="0"/>
        <pt x="525" y="747" on="0"/>
        <pt x="585" y="739" on="1"/>
        <pt x="585" y="562" on="1"/>
        <pt x="552" y="565" on="0"/>
        <pt x="507" y="569" on="0"/>
        <pt x="474" y="571" on="0"/>
        <pt x="449" y="572" on="0"/>
        <pt x="436" y="572" on="1"/>
        <pt x="382" y="572" on="0"/>
        <pt x="315" y="557" on="0"/>
        <pt x="277" y="513" on="0"/>
        <pt x="263" y="433" on="0"/>
        <pt x="263" y="369" on="1"/>
        <pt x="263" y="306" on="0"/>
        <pt x="277" y="228" on="0"/>
        <pt x="315" y="185" on="0"/>
        <pt x="382" y="169" on="0"/>
        <pt x="434" y="169" on="1"/>
        <pt x="451" y="169" on="0"/>
        <pt x="493" y="171" on="0"/>
        <pt x="535" y="175" on="0"/>
        <pt x="572" y="179" on="0"/>
        <pt x="585" y="182" on="1"/>
        <pt x="585" y="4" on="1"/>
        <pt x="548" y="-4" on="0"/>
        <pt x="466" y="-14" on="0"/>
      </contour>
    </TTGlyph>
    <TTGlyph name="Cdotaccent.sc" xMin="30" yMin="-12" xMax="540" yMax="824">
      <contour>
        <pt x="396" y="-12" on="1"/>
        <pt x="209" y="-12" on="0"/>
        <pt x="30" y="133" on="0"/>
        <pt x="30" y="288" on="1"/>
        <pt x="30" y="442" on="0"/>
        <pt x="201" y="589" on="0"/>
        <pt x="377" y="589" on="1"/>
        <pt x="409" y="589" on="0"/>
        <pt x="483" y="585" on="0"/>
        <pt x="540" y="579" on="1"/>
        <pt x="540" y="412" on="1"/>
        <pt x="508" y="414" on="0"/>
        <pt x="467" y="417" on="0"/>
        <pt x="438" y="418" on="0"/>
        <pt x="416" y="418" on="0"/>
        <pt x="404" y="418" on="1"/>
        <pt x="355" y="418" on="0"/>
        <pt x="295" y="412" on="0"/>
        <pt x="262" y="386" on="0"/>
        <pt x="250" y="334" on="0"/>
        <pt x="250" y="288" on="1"/>
        <pt x="250" y="244" on="0"/>
        <pt x="262" y="193" on="0"/>
        <pt x="295" y="167" on="0"/>
        <pt x="354" y="160" on="0"/>
        <pt x="402" y="160" on="1"/>
        <pt x="417" y="160" on="0"/>
        <pt x="455" y="161" on="0"/>
        <pt x="494" y="163" on="0"/>
        <pt x="529" y="166" on="0"/>
        <pt x="540" y="168" on="1"/>
        <pt x="540" y="0" on="1"/>
        <pt x="505" y="-6" on="0"/>
        <pt x="432" y="-12" on="0"/>
      </contour>
      <contour>
        <pt x="339" y="615" on="1"/>
        <pt x="279" y="615" on="0"/>
        <pt x="229" y="664" on="0"/>
        <pt x="229" y="720" on="1"/>
        <pt x="229" y="774" on="0"/>
        <pt x="279" y="824" on="0"/>
        <pt x="339" y="824" on="1"/>
        <pt x="399" y="824" on="0"/>
        <pt x="448" y="773" on="0"/>
        <pt x="448" y="720" on="1"/>
        <pt x="448" y="666" on="0"/>
        <pt x="399" y="615" on="0"/>
      </contour>
    </TTGlyph>
    <TTGlyph name="D" xMin="61" yMin="-11" xMax="771" yMax="750">
      <contour>
        <pt x="295" y="-11" on="1"/>
        <pt x="234" y="-11" on="0"/>
        <pt x="108" y="-4" on="0"/>
        <pt x="61" y="2" on="1"/>
        <pt x="61" y="739" on="1"/>
        <pt x="157" y="744" on="0"/>
        <pt x="289" y="750" on="0"/>
        <pt x="339" y="750" on="1"/>
        <pt x="453" y="750" on="0"/>
        <pt x="616" y="706" on="0"/>
        <pt x="721" y="614" on="0"/>
        <pt x="771" y="469" on="0"/>
        <pt x="771" y="369" on="1"/>
        <pt x="771" y="266" on="0"/>
        <pt x="719" y="122" on="0"/>
        <pt x="605" y="31" on="0"/>
        <pt x="424" y="-11" on="0"/>
      </contour>
      <contour>
        <pt x="386" y="166" on="1"/>
        <pt x="431" y="166" on="0"/>
        <pt x="491" y="184" on="0"/>
        <pt x="527" y="231" on="0"/>
        <pt x="541" y="309" on="0"/>
        <pt x="541" y="369" on="1"/>
        <pt x="541" y="428" on="0"/>
        <pt x="525" y="506" on="0"/>
        <pt x="486" y="553" on="0"/>
        <pt x="422" y="573" on="0"/>
        <pt x="374" y="573" on="1"/>
        <pt x="357" y="573" on="0"/>
        <pt x="317" y="571" on="0"/>
        <pt x="285" y="569" on="1"/>
        <pt x="285" y="173" on="1"/>
        <pt x="308" y="169" on="0"/>
        <pt x="361" y="166" on="0"/>
      </contour>
    </TTGlyph>
    <TTGlyph name="D.sc" xMin="59" yMin="-8" xMax="715" yMax="585">
      <contour>
        <pt x="320" y="-8" on="1"/>
        <pt x="287" y="-8" on="0"/>
        <pt x="216" y="-7" on="0"/>
        <pt x="147" y="-4" on="0"/>
        <pt x="84" y="-1" on="0"/>
        <pt x="59" y="1" on="1"/>
        <pt x="59" y="576" on="1"/>
        <pt x="146" y="581" on="0"/>
        <pt x="270" y="585" on="0"/>
        <pt x="319" y="585" on="1"/>
        <pt x="525" y="585" on="0"/>
        <pt x="715" y="443" on="0"/>
        <pt x="715" y="287" on="1"/>
        <pt x="715" y="210" on="0"/>
        <pt x="669" y="98" on="0"/>
        <pt x="572" y="26" on="0"/>
        <pt x="423" y="-8" on="0"/>
      </contour>
      <contour>
        <pt x="363" y="157" on="1"/>
        <pt x="403" y="157" on="0"/>
        <pt x="455" y="167" on="0"/>
        <pt x="485" y="196" on="0"/>
        <pt x="497" y="247" on="0"/>
        <pt x="497" y="288" on="1"/>
        <pt x="497" y="327" on="0"/>
        <pt x="483" y="378" on="0"/>
        <pt x="450" y="407" on="0"/>
        <pt x="395" y="419" on="0"/>
        <pt x="353" y="419" on="1"/>
        <pt x="334" y="419" on="0"/>
        <pt x="300" y="418" on="0"/>
        <pt x="272" y="417" on="1"/>
        <pt x="272" y="163" on="1"/>
        <pt x="291" y="160" on="0"/>
        <pt x="338" y="157" on="0"/>
      </contour>
    </TTGlyph>
    <TTGlyph name="Dcaron" xMin="61" yMin="-11" xMax="771" yMax="1016">
      <contour>
        <pt x="181" y="1016" on="1"/>
        <pt x="400" y="936" on="1"/>
        <pt x="619" y="1016" on="1"/>
        <pt x="619" y="873" on="1"/>
        <pt x="398" y="794" on="1"/>
        <pt x="181" y="873" on="1"/>
      </contour>
      <contour>
        <pt x="295" y="-11" on="1"/>
        <pt x="234" y="-11" on="0"/>
        <pt x="108" y="-4" on="0"/>
        <pt x="61" y="2" on="1"/>
        <pt x="61" y="739" on="1"/>
        <pt x="157" y="744" on="0"/>
        <pt x="289" y="750" on="0"/>
        <pt x="339" y="750" on="1"/>
        <pt x="453" y="750" on="0"/>
        <pt x="616" y="706" on="0"/>
        <pt x="721" y="614" on="0"/>
        <pt x="771" y="469" on="0"/>
        <pt x="771" y="369" on="1"/>
        <pt x="771" y="266" on="0"/>
        <pt x="719" y="122" on="0"/>
        <pt x="605" y="31" on="0"/>
        <pt x="424" y="-11" on="0"/>
      </contour>
      <contour>
        <pt x="386" y="166" on="1"/>
        <pt x="431" y="166" on="0"/>
        <pt x="491" y="184" on="0"/>
        <pt x="527" y="231" on="0"/>
        <pt x="541" y="309" on="0"/>
        <pt x="541" y="369" on="1"/>
        <pt x="541" y="428" on="0"/>
        <pt x="525" y="506" on="0"/>
        <pt x="486" y="553" on="0"/>
        <pt x="422" y="573" on="0"/>
        <pt x="374" y="573" on="1"/>
        <pt x="357" y="573" on="0"/>
        <pt x="317" y="571" on="0"/>
        <pt x="285" y="569" on="1"/>
        <pt x="285" y="173" on="1"/>
        <pt x="308" y="169" on="0"/>
        <pt x="361" y="166" on="0"/>
      </contour>
    </TTGlyph>
    <TTGlyph name="Dcaron.sc" xMin="59" yMin="-8" xMax="715" yMax="812">
      <contour>
        <pt x="320" y="-8" on="1"/>
        <pt x="287" y="-8" on="0"/>
        <pt x="216" y="-7" on="0"/>
        <pt x="147" y="-4" on="0"/>
        <pt x="84" y="-1" on="0"/>
        <pt x="59" y="1" on="1"/>
        <pt x="59" y="576" on="1"/>
        <pt x="146" y="581" on="0"/>
        <pt x="270" y="585" on="0"/>
        <pt x="319" y="585" on="1"/>
        <pt x="525" y="585" on="0"/>
        <pt x="715" y="443" on="0"/>
        <pt x="715" y="287" on="1"/>
        <pt x="715" y="210" on="0"/>
        <pt x="669" y="98" on="0"/>
        <pt x="572" y="26" on="0"/>
        <pt x="423" y="-8" on="0"/>
      </contour>
      <contour>
        <pt x="363" y="157" on="1"/>
        <pt x="403" y="157" on="0"/>
        <pt x="455" y="167" on="0"/>
        <pt x="485" y="196" on="0"/>
        <pt x="497" y="247" on="0"/>
        <pt x="497" y="288" on="1"/>
        <pt x="497" y="327" on="0"/>
        <pt x="483" y="378" on="0"/>
        <pt x="450" y="407" on="0"/>
        <pt x="395" y="419" on="0"/>
        <pt x="353" y="419" on="1"/>
        <pt x="334" y="419" on="0"/>
        <pt x="300" y="418" on="0"/>
        <pt x="272" y="417" on="1"/>
        <pt x="272" y="163" on="1"/>
        <pt x="291" y="160" on="0"/>
        <pt x="338" y="157" on="0"/>
      </contour>
      <contour>
        <pt x="172" y="680" on="1"/>
        <pt x="172" y="812" on="1"/>
        <pt x="376" y="747" on="1"/>
        <pt x="581" y="812" on="1"/>
        <pt x="581" y="680" on="1"/>
        <pt x="374" y="616" on="1"/>
      </contour>
    </TTGlyph>
    <TTGlyph name="Dcroat" xMin="3" yMin="-11" xMax="799" yMax="750">
      <contour>
        <pt x="3" y="458" on="1"/>
        <pt x="89" y="458" on="1"/>
        <pt x="89" y="739" on="1"/>
        <pt x="185" y="744" on="0"/>
        <pt x="317" y="750" on="0"/>
        <pt x="367" y="750" on="1"/>
        <pt x="481" y="750" on="0"/>
        <pt x="644" y="706" on="0"/>
        <pt x="749" y="614" on="0"/>
        <pt x="799" y="469" on="0"/>
        <pt x="799" y="369" on="1"/>
        <pt x="799" y="266" on="0"/>
        <pt x="747" y="122" on="0"/>
        <pt x="633" y="31" on="0"/>
        <pt x="452" y="-11" on="0"/>
        <pt x="323" y="-11" on="1"/>
        <pt x="262" y="-11" on="0"/>
        <pt x="136" y="-4" on="0"/>
        <pt x="89" y="2" on="1"/>
        <pt x="89" y="291" on="1"/>
        <pt x="3" y="291" on="1"/>
      </contour>
      <contour>
        <pt x="414" y="166" on="1"/>
        <pt x="459" y="166" on="0"/>
        <pt x="519" y="184" on="0"/>
        <pt x="555" y="231" on="0"/>
        <pt x="569" y="309" on="0"/>
        <pt x="569" y="369" on="1"/>
        <pt x="569" y="428" on="0"/>
        <pt x="553" y="506" on="0"/>
        <pt x="514" y="553" on="0"/>
        <pt x="450" y="573" on="0"/>
        <pt x="402" y="573" on="1"/>
        <pt x="385" y="573" on="0"/>
        <pt x="345" y="571" on="0"/>
        <pt x="313" y="569" on="1"/>
        <pt x="313" y="458" on="1"/>
        <pt x="404" y="458" on="1"/>
        <pt x="404" y="291" on="1"/>
        <pt x="313" y="291" on="1"/>
        <pt x="313" y="173" on="1"/>
        <pt x="336" y="169" on="0"/>
        <pt x="389" y="166" on="0"/>
      </contour>
    </TTGlyph>
    <TTGlyph name="Dcroat.sc" xMin="12" yMin="-8" xMax="745" yMax="585">
      <contour>
        <pt x="12" y="372" on="1"/>
        <pt x="89" y="372" on="1"/>
        <pt x="89" y="576" on="1"/>
        <pt x="180" y="581" on="0"/>
        <pt x="303" y="585" on="0"/>
        <pt x="349" y="585" on="1"/>
        <pt x="453" y="585" on="0"/>
        <pt x="603" y="551" on="0"/>
        <pt x="699" y="479" on="0"/>
        <pt x="745" y="366" on="0"/>
        <pt x="745" y="287" on="1"/>
        <pt x="745" y="206" on="0"/>
        <pt x="697" y="94" on="0"/>
        <pt x="592" y="23" on="0"/>
        <pt x="424" y="-8" on="0"/>
        <pt x="305" y="-8" on="1"/>
        <pt x="248" y="-8" on="0"/>
        <pt x="131" y="-3" on="0"/>
        <pt x="89" y="1" on="1"/>
        <pt x="89" y="215" on="1"/>
        <pt x="12" y="215" on="1"/>
      </contour>
      <contour>
        <pt x="392" y="157" on="1"/>
        <pt x="432" y="157" on="0"/>
        <pt x="485" y="167" on="0"/>
        <pt x="516" y="195" on="0"/>
        <pt x="528" y="247" on="0"/>
        <pt x="528" y="288" on="1"/>
        <pt x="528" y="327" on="0"/>
        <pt x="514" y="378" on="0"/>
        <pt x="480" y="408" on="0"/>
        <pt x="425" y="419" on="0"/>
        <pt x="383" y="419" on="1"/>
        <pt x="367" y="419" on="0"/>
        <pt x="331" y="419" on="0"/>
        <pt x="301" y="417" on="1"/>
        <pt x="301" y="372" on="1"/>
        <pt x="380" y="372" on="1"/>
        <pt x="380" y="215" on="1"/>
        <pt x="301" y="215" on="1"/>
        <pt x="301" y="163" on="1"/>
        <pt x="321" y="161" on="0"/>
        <pt x="369" y="157" on="0"/>
      </contour>
    </TTGlyph>
    <TTGlyph name="Ddotbelow" xMin="61" yMin="-220" xMax="771" yMax="750">
      <contour>
        <pt x="391" y="-220" on="1"/>
        <pt x="343" y="-220" on="0"/>
        <pt x="303" y="-181" on="0"/>
        <pt x="303" y="-136" on="1"/>
        <pt x="303" y="-91" on="0"/>
        <pt x="343" y="-51" on="0"/>
        <pt x="391" y="-51" on="1"/>
        <pt x="441" y="-51" on="0"/>
        <pt x="480" y="-92" on="0"/>
        <pt x="480" y="-136" on="1"/>
        <pt x="480" y="-179" on="0"/>
        <pt x="441" y="-220" on="0"/>
      </contour>
      <contour>
        <pt x="295" y="-11" on="1"/>
        <pt x="234" y="-11" on="0"/>
        <pt x="108" y="-4" on="0"/>
        <pt x="61" y="2" on="1"/>
        <pt x="61" y="739" on="1"/>
        <pt x="157" y="744" on="0"/>
        <pt x="289" y="750" on="0"/>
        <pt x="339" y="750" on="1"/>
        <pt x="453" y="750" on="0"/>
        <pt x="616" y="706" on="0"/>
        <pt x="721" y="614" on="0"/>
        <pt x="771" y="469" on="0"/>
        <pt x="771" y="369" on="1"/>
        <pt x="771" y="266" on="0"/>
        <pt x="719" y="122" on="0"/>
        <pt x="605" y="31" on="0"/>
        <pt x="424" y="-11" on="0"/>
      </contour>
      <contour>
        <pt x="386" y="166" on="1"/>
        <pt x="431" y="166" on="0"/>
        <pt x="491" y="184" on="0"/>
        <pt x="527" y="231" on="0"/>
        <pt x="541" y="309" on="0"/>
        <pt x="541" y="369" on="1"/>
        <pt x="541" y="428" on="0"/>
        <pt x="525" y="506" on="0"/>
        <pt x="486" y="553" on="0"/>
        <pt x="422" y="573" on="0"/>
        <pt x="374" y="573" on="1"/>
        <pt x="357" y="573" on="0"/>
        <pt x="317" y="571" on="0"/>
        <pt x="285" y="569" on="1"/>
        <pt x="285" y="173" on="1"/>
        <pt x="308" y="169" on="0"/>
        <pt x="361" y="166" on="0"/>
      </contour>
    </TTGlyph>
    <TTGlyph name="Ddotbelow.sc" xMin="59" yMin="-181" xMax="715" yMax="585">
      <contour>
        <pt x="320" y="-8" on="1"/>
        <pt x="287" y="-8" on="0"/>
        <pt x="216" y="-7" on="0"/>
        <pt x="147" y="-4" on="0"/>
        <pt x="84" y="-1" on="0"/>
        <pt x="59" y="1" on="1"/>
        <pt x="59" y="576" on="1"/>
        <pt x="146" y="581" on="0"/>
        <pt x="270" y="585" on="0"/>
        <pt x="319" y="585" on="1"/>
        <pt x="525" y="585" on="0"/>
        <pt x="715" y="443" on="0"/>
        <pt x="715" y="287" on="1"/>
        <pt x="715" y="210" on="0"/>
        <pt x="669" y="98" on="0"/>
        <pt x="572" y="26" on="0"/>
        <pt x="423" y="-8" on="0"/>
      </contour>
      <contour>
        <pt x="363" y="157" on="1"/>
        <pt x="403" y="157" on="0"/>
        <pt x="455" y="167" on="0"/>
        <pt x="485" y="196" on="0"/>
        <pt x="497" y="247" on="0"/>
        <pt x="497" y="288" on="1"/>
        <pt x="497" y="327" on="0"/>
        <pt x="483" y="378" on="0"/>
        <pt x="450" y="407" on="0"/>
        <pt x="395" y="419" on="0"/>
        <pt x="353" y="419" on="1"/>
        <pt x="334" y="419" on="0"/>
        <pt x="300" y="418" on="0"/>
        <pt x="272" y="417" on="1"/>
        <pt x="272" y="163" on="1"/>
        <pt x="291" y="160" on="0"/>
        <pt x="338" y="157" on="0"/>
      </contour>
      <contour>
        <pt x="367" y="-181" on="1"/>
        <pt x="322" y="-181" on="0"/>
        <pt x="284" y="-145" on="0"/>
        <pt x="284" y="-106" on="1"/>
        <pt x="284" y="-66" on="0"/>
        <pt x="322" y="-30" on="0"/>
        <pt x="367" y="-30" on="1"/>
        <pt x="413" y="-30" on="0"/>
        <pt x="449" y="-68" on="0"/>
        <pt x="449" y="-106" on="1"/>
        <pt x="449" y="-144" on="0"/>
        <pt x="413" y="-181" on="0"/>
      </contour>
    </TTGlyph>
    <TTGlyph name="Delta" xMin="20" yMin="0" xMax="863" yMax="740">
      <contour>
        <pt x="309" y="740" on="1"/>
        <pt x="574" y="740" on="1"/>
        <pt x="863" y="0" on="1"/>
        <pt x="20" y="0" on="1"/>
      </contour>
      <contour>
        <pt x="591" y="172" on="1"/>
        <pt x="441" y="556" on="1"/>
        <pt x="292" y="172" on="1"/>
      </contour>
    </TTGlyph>
    <TTGlyph name="E" xMin="61" yMin="0" xMax="651" yMax="740">
      <contour>
        <pt x="61" y="740" on="1"/>
        <pt x="641" y="740" on="1"/>
        <pt x="641" y="568" on="1"/>
        <pt x="286" y="568" on="1"/>
        <pt x="286" y="456" on="1"/>
        <pt x="603" y="456" on="1"/>
        <pt x="603" y="284" on="1"/>
        <pt x="286" y="284" on="1"/>
        <pt x="286" y="173" on="1"/>
        <pt x="651" y="173" on="1"/>
        <pt x="651" y="0" on="1"/>
        <pt x="61" y="0" on="1"/>
      </contour>
    </TTGlyph>
    <TTGlyph name="E.sc" xMin="59" yMin="0" xMax="605" yMax="577">
      <contour>
        <pt x="59" y="577" on="1"/>
        <pt x="597" y="577" on="1"/>
        <pt x="597" y="422" on="1"/>
        <pt x="272" y="422" on="1"/>
        <pt x="272" y="357" on="1"/>
        <pt x="561" y="357" on="1"/>
        <pt x="561" y="221" on="1"/>
        <pt x="272" y="221" on="1"/>
        <pt x="272" y="156" on="1"/>
        <pt x="605" y="156" on="1"/>
        <pt x="605" y="0" on="1"/>
        <pt x="59" y="0" on="1"/>
      </contour>
    </TTGlyph>
    <TTGlyph name="Eacute" xMin="61" yMin="0" xMax="651" yMax="1003">
      <contour>
        <pt x="261" y="813" on="1"/>
        <pt x="324" y="1003" on="1"/>
        <pt x="548" y="1003" on="1"/>
        <pt x="419" y="803" on="1"/>
      </contour>
      <contour>
        <pt x="61" y="740" on="1"/>
        <pt x="641" y="740" on="1"/>
        <pt x="641" y="568" on="1"/>
        <pt x="286" y="568" on="1"/>
        <pt x="286" y="456" on="1"/>
        <pt x="603" y="456" on="1"/>
        <pt x="603" y="284" on="1"/>
        <pt x="286" y="284" on="1"/>
        <pt x="286" y="173" on="1"/>
        <pt x="651" y="173" on="1"/>
        <pt x="651" y="0" on="1"/>
        <pt x="61" y="0" on="1"/>
      </contour>
    </TTGlyph>
    <TTGlyph name="Eacute.sc" xMin="59" yMin="0" xMax="605" yMax="798">
      <contour>
        <pt x="59" y="577" on="1"/>
        <pt x="597" y="577" on="1"/>
        <pt x="597" y="422" on="1"/>
        <pt x="272" y="422" on="1"/>
        <pt x="272" y="357" on="1"/>
        <pt x="561" y="357" on="1"/>
        <pt x="561" y="221" on="1"/>
        <pt x="272" y="221" on="1"/>
        <pt x="272" y="156" on="1"/>
        <pt x="605" y="156" on="1"/>
        <pt x="605" y="0" on="1"/>
        <pt x="59" y="0" on="1"/>
      </contour>
      <contour>
        <pt x="242" y="637" on="1"/>
        <pt x="298" y="798" on="1"/>
        <pt x="511" y="798" on="1"/>
        <pt x="391" y="628" on="1"/>
      </contour>
    </TTGlyph>
    <TTGlyph name="Ebreve" xMin="61" yMin="0" xMax="651" yMax="999">
      <contour>
        <pt x="345" y="806" on="1"/>
        <pt x="277" y="806" on="0"/>
        <pt x="186" y="835" on="0"/>
        <pt x="130" y="887" on="0"/>
        <pt x="106" y="958" on="0"/>
        <pt x="106" y="999" on="1"/>
        <pt x="249" y="999" on="1"/>
        <pt x="249" y="952" on="0"/>
        <pt x="287" y="906" on="0"/>
        <pt x="345" y="906" on="1"/>
        <pt x="374" y="906" on="0"/>
        <pt x="411" y="918" on="0"/>
        <pt x="432" y="941" on="0"/>
        <pt x="440" y="976" on="0"/>
        <pt x="440" y="999" on="1"/>
        <pt x="584" y="999" on="1"/>
        <pt x="584" y="957" on="0"/>
        <pt x="560" y="886" on="0"/>
        <pt x="504" y="835" on="0"/>
        <pt x="412" y="806" on="0"/>
      </contour>
      <contour>
        <pt x="61" y="740" on="1"/>
        <pt x="641" y="740" on="1"/>
        <pt x="641" y="568" on="1"/>
        <pt x="286" y="568" on="1"/>
        <pt x="286" y="456" on="1"/>
        <pt x="603" y="456" on="1"/>
        <pt x="603" y="284" on="1"/>
        <pt x="286" y="284" on="1"/>
        <pt x="286" y="173" on="1"/>
        <pt x="651" y="173" on="1"/>
        <pt x="651" y="0" on="1"/>
        <pt x="61" y="0" on="1"/>
      </contour>
    </TTGlyph>
    <TTGlyph name="Ebreve.sc" xMin="59" yMin="0" xMax="605" yMax="790">
      <contour>
        <pt x="321" y="628" on="1"/>
        <pt x="257" y="628" on="0"/>
        <pt x="171" y="654" on="0"/>
        <pt x="119" y="698" on="0"/>
        <pt x="97" y="757" on="0"/>
        <pt x="97" y="790" on="1"/>
        <pt x="233" y="790" on="1"/>
        <pt x="233" y="755" on="0"/>
        <pt x="267" y="719" on="0"/>
        <pt x="321" y="719" on="1"/>
        <pt x="375" y="719" on="0"/>
        <pt x="408" y="755" on="0"/>
        <pt x="408" y="790" on="1"/>
        <pt x="543" y="790" on="1"/>
        <pt x="543" y="755" on="0"/>
        <pt x="521" y="696" on="0"/>
        <pt x="470" y="653" on="0"/>
        <pt x="384" y="628" on="0"/>
      </contour>
      <contour>
        <pt x="59" y="577" on="1"/>
        <pt x="597" y="577" on="1"/>
        <pt x="597" y="422" on="1"/>
        <pt x="272" y="422" on="1"/>
        <pt x="272" y="357" on="1"/>
        <pt x="561" y="357" on="1"/>
        <pt x="561" y="221" on="1"/>
        <pt x="272" y="221" on="1"/>
        <pt x="272" y="156" on="1"/>
        <pt x="605" y="156" on="1"/>
        <pt x="605" y="0" on="1"/>
        <pt x="59" y="0" on="1"/>
      </contour>
    </TTGlyph>
    <TTGlyph name="Ecaron" xMin="61" yMin="0" xMax="651" yMax="1016">
      <contour>
        <pt x="135" y="1016" on="1"/>
        <pt x="354" y="936" on="1"/>
        <pt x="573" y="1016" on="1"/>
        <pt x="573" y="873" on="1"/>
        <pt x="352" y="794" on="1"/>
        <pt x="135" y="873" on="1"/>
      </contour>
      <contour>
        <pt x="61" y="740" on="1"/>
        <pt x="641" y="740" on="1"/>
        <pt x="641" y="568" on="1"/>
        <pt x="286" y="568" on="1"/>
        <pt x="286" y="456" on="1"/>
        <pt x="603" y="456" on="1"/>
        <pt x="603" y="284" on="1"/>
        <pt x="286" y="284" on="1"/>
        <pt x="286" y="173" on="1"/>
        <pt x="651" y="173" on="1"/>
        <pt x="651" y="0" on="1"/>
        <pt x="61" y="0" on="1"/>
      </contour>
    </TTGlyph>
    <TTGlyph name="Ecaron.sc" xMin="59" yMin="0" xMax="605" yMax="812">
      <contour>
        <pt x="59" y="577" on="1"/>
        <pt x="597" y="577" on="1"/>
        <pt x="597" y="422" on="1"/>
        <pt x="272" y="422" on="1"/>
        <pt x="272" y="357" on="1"/>
        <pt x="561" y="357" on="1"/>
        <pt x="561" y="221" on="1"/>
        <pt x="272" y="221" on="1"/>
        <pt x="272" y="156" on="1"/>
        <pt x="605" y="156" on="1"/>
        <pt x="605" y="0" on="1"/>
        <pt x="59" y="0" on="1"/>
      </contour>
      <contour>
        <pt x="125" y="680" on="1"/>
        <pt x="125" y="812" on="1"/>
        <pt x="329" y="747" on="1"/>
        <pt x="533" y="812" on="1"/>
        <pt x="533" y="680" on="1"/>
        <pt x="327" y="616" on="1"/>
      </contour>
    </TTGlyph>
    <TTGlyph name="Ecircumflex" xMin="61" yMin="0" xMax="651" yMax="1016">
      <contour>
        <pt x="61" y="740" on="1"/>
        <pt x="641" y="740" on="1"/>
        <pt x="641" y="568" on="1"/>
        <pt x="286" y="568" on="1"/>
        <pt x="286" y="456" on="1"/>
        <pt x="603" y="456" on="1"/>
        <pt x="603" y="284" on="1"/>
        <pt x="286" y="284" on="1"/>
        <pt x="286" y="173" on="1"/>
        <pt x="651" y="173" on="1"/>
        <pt x="651" y="0" on="1"/>
        <pt x="61" y="0" on="1"/>
      </contour>
      <contour>
        <pt x="148" y="936" on="1"/>
        <pt x="365" y="1016" on="1"/>
        <pt x="586" y="936" on="1"/>
        <pt x="586" y="794" on="1"/>
        <pt x="367" y="873" on="1"/>
        <pt x="148" y="794" on="1"/>
      </contour>
    </TTGlyph>
    <TTGlyph name="Ecircumflex.sc" xMin="59" yMin="0" xMax="605" yMax="811">
      <contour>
        <pt x="59" y="577" on="1"/>
        <pt x="597" y="577" on="1"/>
        <pt x="597" y="422" on="1"/>
        <pt x="272" y="422" on="1"/>
        <pt x="272" y="357" on="1"/>
        <pt x="561" y="357" on="1"/>
        <pt x="561" y="221" on="1"/>
        <pt x="272" y="221" on="1"/>
        <pt x="272" y="156" on="1"/>
        <pt x="605" y="156" on="1"/>
        <pt x="605" y="0" on="1"/>
        <pt x="59" y="0" on="1"/>
      </contour>
      <contour>
        <pt x="140" y="747" on="1"/>
        <pt x="342" y="811" on="1"/>
        <pt x="548" y="747" on="1"/>
        <pt x="548" y="616" on="1"/>
        <pt x="344" y="679" on="1"/>
        <pt x="140" y="616" on="1"/>
      </contour>
    </TTGlyph>
    <TTGlyph name="Edblgrave" xMin="26" yMin="0" xMax="651" yMax="1003">
      <contour>
        <pt x="61" y="740" on="1"/>
        <pt x="641" y="740" on="1"/>
        <pt x="641" y="568" on="1"/>
        <pt x="286" y="568" on="1"/>
        <pt x="286" y="456" on="1"/>
        <pt x="603" y="456" on="1"/>
        <pt x="603" y="284" on="1"/>
        <pt x="286" y="284" on="1"/>
        <pt x="286" y="173" on="1"/>
        <pt x="651" y="173" on="1"/>
        <pt x="651" y="0" on="1"/>
        <pt x="61" y="0" on="1"/>
      </contour>
      <contour>
        <pt x="157" y="803" on="1"/>
        <pt x="26" y="1003" on="1"/>
        <pt x="239" y="1003" on="1"/>
        <pt x="301" y="813" on="1"/>
      </contour>
      <contour>
        <pt x="396" y="803" on="1"/>
        <pt x="265" y="1003" on="1"/>
        <pt x="477" y="1003" on="1"/>
        <pt x="540" y="813" on="1"/>
      </contour>
    </TTGlyph>
    <TTGlyph name="Edblgrave.sc" xMin="23" yMin="0" xMax="605" yMax="800">
      <contour>
        <pt x="59" y="577" on="1"/>
        <pt x="597" y="577" on="1"/>
        <pt x="597" y="422" on="1"/>
        <pt x="272" y="422" on="1"/>
        <pt x="272" y="357" on="1"/>
        <pt x="561" y="357" on="1"/>
        <pt x="561" y="221" on="1"/>
        <pt x="272" y="221" on="1"/>
        <pt x="272" y="156" on="1"/>
        <pt x="605" y="156" on="1"/>
        <pt x="605" y="0" on="1"/>
        <pt x="59" y="0" on="1"/>
      </contour>
      <contour>
        <pt x="23" y="800" on="1"/>
        <pt x="226" y="800" on="1"/>
        <pt x="280" y="636" on="1"/>
        <pt x="142" y="629" on="1"/>
      </contour>
      <contour>
        <pt x="246" y="800" on="1"/>
        <pt x="449" y="800" on="1"/>
        <pt x="504" y="636" on="1"/>
        <pt x="365" y="629" on="1"/>
      </contour>
    </TTGlyph>
    <TTGlyph name="Edieresis" xMin="61" yMin="0" xMax="651" yMax="1022">
      <contour>
        <pt x="209" y="795" on="1"/>
        <pt x="146" y="795" on="0"/>
        <pt x="92" y="849" on="0"/>
        <pt x="92" y="909" on="1"/>
        <pt x="92" y="969" on="0"/>
        <pt x="146" y="1022" on="0"/>
        <pt x="209" y="1022" on="1"/>
        <pt x="273" y="1022" on="0"/>
        <pt x="325" y="966" on="0"/>
        <pt x="325" y="909" on="1"/>
        <pt x="325" y="851" on="0"/>
        <pt x="273" y="795" on="0"/>
      </contour>
      <contour>
        <pt x="516" y="795" on="1"/>
        <pt x="452" y="795" on="0"/>
        <pt x="399" y="849" on="0"/>
        <pt x="399" y="909" on="1"/>
        <pt x="399" y="969" on="0"/>
        <pt x="452" y="1022" on="0"/>
        <pt x="516" y="1022" on="1"/>
        <pt x="580" y="1022" on="0"/>
        <pt x="632" y="966" on="0"/>
        <pt x="632" y="909" on="1"/>
        <pt x="632" y="851" on="0"/>
        <pt x="580" y="795" on="0"/>
      </contour>
      <contour>
        <pt x="61" y="740" on="1"/>
        <pt x="641" y="740" on="1"/>
        <pt x="641" y="568" on="1"/>
        <pt x="286" y="568" on="1"/>
        <pt x="286" y="456" on="1"/>
        <pt x="603" y="456" on="1"/>
        <pt x="603" y="284" on="1"/>
        <pt x="286" y="284" on="1"/>
        <pt x="286" y="173" on="1"/>
        <pt x="651" y="173" on="1"/>
        <pt x="651" y="0" on="1"/>
        <pt x="61" y="0" on="1"/>
      </contour>
    </TTGlyph>
    <TTGlyph name="Edieresis.sc" xMin="59" yMin="0" xMax="605" yMax="823">
      <contour>
        <pt x="197" y="614" on="1"/>
        <pt x="137" y="614" on="0"/>
        <pt x="87" y="663" on="0"/>
        <pt x="87" y="719" on="1"/>
        <pt x="87" y="773" on="0"/>
        <pt x="137" y="823" on="0"/>
        <pt x="197" y="823" on="1"/>
        <pt x="258" y="823" on="0"/>
        <pt x="307" y="772" on="0"/>
        <pt x="307" y="719" on="1"/>
        <pt x="307" y="665" on="0"/>
        <pt x="258" y="614" on="0"/>
      </contour>
      <contour>
        <pt x="480" y="614" on="1"/>
        <pt x="420" y="614" on="0"/>
        <pt x="370" y="663" on="0"/>
        <pt x="370" y="719" on="1"/>
        <pt x="370" y="773" on="0"/>
        <pt x="420" y="823" on="0"/>
        <pt x="480" y="823" on="1"/>
        <pt x="540" y="823" on="0"/>
        <pt x="589" y="772" on="0"/>
        <pt x="589" y="719" on="1"/>
        <pt x="589" y="665" on="0"/>
        <pt x="540" y="614" on="0"/>
      </contour>
      <contour>
        <pt x="59" y="577" on="1"/>
        <pt x="597" y="577" on="1"/>
        <pt x="597" y="422" on="1"/>
        <pt x="272" y="422" on="1"/>
        <pt x="272" y="357" on="1"/>
        <pt x="561" y="357" on="1"/>
        <pt x="561" y="221" on="1"/>
        <pt x="272" y="221" on="1"/>
        <pt x="272" y="156" on="1"/>
        <pt x="605" y="156" on="1"/>
        <pt x="605" y="0" on="1"/>
        <pt x="59" y="0" on="1"/>
      </contour>
    </TTGlyph>
    <TTGlyph name="Edotaccent" xMin="61" yMin="0" xMax="651" yMax="1022">
      <contour>
        <pt x="345" y="795" on="1"/>
        <pt x="282" y="795" on="0"/>
        <pt x="228" y="849" on="0"/>
        <pt x="228" y="909" on="1"/>
        <pt x="228" y="969" on="0"/>
        <pt x="282" y="1022" on="0"/>
        <pt x="345" y="1022" on="1"/>
        <pt x="409" y="1022" on="0"/>
        <pt x="461" y="966" on="0"/>
        <pt x="461" y="909" on="1"/>
        <pt x="461" y="851" on="0"/>
        <pt x="409" y="795" on="0"/>
      </contour>
      <contour>
        <pt x="61" y="740" on="1"/>
        <pt x="641" y="740" on="1"/>
        <pt x="641" y="568" on="1"/>
        <pt x="286" y="568" on="1"/>
        <pt x="286" y="456" on="1"/>
        <pt x="603" y="456" on="1"/>
        <pt x="603" y="284" on="1"/>
        <pt x="286" y="284" on="1"/>
        <pt x="286" y="173" on="1"/>
        <pt x="651" y="173" on="1"/>
        <pt x="651" y="0" on="1"/>
        <pt x="61" y="0" on="1"/>
      </contour>
    </TTGlyph>
    <TTGlyph name="Edotaccent.sc" xMin="59" yMin="0" xMax="605" yMax="824">
      <contour>
        <pt x="321" y="615" on="1"/>
        <pt x="261" y="615" on="0"/>
        <pt x="211" y="664" on="0"/>
        <pt x="211" y="720" on="1"/>
        <pt x="211" y="774" on="0"/>
        <pt x="261" y="824" on="0"/>
        <pt x="321" y="824" on="1"/>
        <pt x="381" y="824" on="0"/>
        <pt x="430" y="773" on="0"/>
        <pt x="430" y="720" on="1"/>
        <pt x="430" y="666" on="0"/>
        <pt x="381" y="615" on="0"/>
      </contour>
      <contour>
        <pt x="59" y="577" on="1"/>
        <pt x="597" y="577" on="1"/>
        <pt x="597" y="422" on="1"/>
        <pt x="272" y="422" on="1"/>
        <pt x="272" y="357" on="1"/>
        <pt x="561" y="357" on="1"/>
        <pt x="561" y="221" on="1"/>
        <pt x="272" y="221" on="1"/>
        <pt x="272" y="156" on="1"/>
        <pt x="605" y="156" on="1"/>
        <pt x="605" y="0" on="1"/>
        <pt x="59" y="0" on="1"/>
      </contour>
    </TTGlyph>
    <TTGlyph name="Edotbelow" xMin="61" yMin="-220" xMax="651" yMax="740">
      <contour>
        <pt x="61" y="740" on="1"/>
        <pt x="641" y="740" on="1"/>
        <pt x="641" y="568" on="1"/>
        <pt x="286" y="568" on="1"/>
        <pt x="286" y="456" on="1"/>
        <pt x="603" y="456" on="1"/>
        <pt x="603" y="284" on="1"/>
        <pt x="286" y="284" on="1"/>
        <pt x="286" y="173" on="1"/>
        <pt x="651" y="173" on="1"/>
        <pt x="651" y="0" on="1"/>
        <pt x="61" y="0" on="1"/>
      </contour>
      <contour>
        <pt x="367" y="-220" on="1"/>
        <pt x="319" y="-220" on="0"/>
        <pt x="279" y="-181" on="0"/>
        <pt x="279" y="-136" on="1"/>
        <pt x="279" y="-91" on="0"/>
        <pt x="319" y="-51" on="0"/>
        <pt x="367" y="-51" on="1"/>
        <pt x="417" y="-51" on="0"/>
        <pt x="456" y="-92" on="0"/>
        <pt x="456" y="-136" on="1"/>
        <pt x="456" y="-179" on="0"/>
        <pt x="417" y="-220" on="0"/>
      </contour>
    </TTGlyph>
    <TTGlyph name="Edotbelow.sc" xMin="59" yMin="-181" xMax="605" yMax="577">
      <contour>
        <pt x="343" y="-181" on="1"/>
        <pt x="298" y="-181" on="0"/>
        <pt x="261" y="-146" on="0"/>
        <pt x="261" y="-106" on="1"/>
        <pt x="261" y="-66" on="0"/>
        <pt x="298" y="-30" on="0"/>
        <pt x="343" y="-30" on="1"/>
        <pt x="390" y="-30" on="0"/>
        <pt x="425" y="-68" on="0"/>
        <pt x="425" y="-106" on="1"/>
        <pt x="425" y="-144" on="0"/>
        <pt x="390" y="-181" on="0"/>
      </contour>
      <contour>
        <pt x="59" y="577" on="1"/>
        <pt x="597" y="577" on="1"/>
        <pt x="597" y="422" on="1"/>
        <pt x="272" y="422" on="1"/>
        <pt x="272" y="357" on="1"/>
        <pt x="561" y="357" on="1"/>
        <pt x="561" y="221" on="1"/>
        <pt x="272" y="221" on="1"/>
        <pt x="272" y="156" on="1"/>
        <pt x="605" y="156" on="1"/>
        <pt x="605" y="0" on="1"/>
        <pt x="59" y="0" on="1"/>
      </contour>
    </TTGlyph>
    <TTGlyph name="Egrave" xMin="61" yMin="0" xMax="651" yMax="1003">
      <contour>
        <pt x="296" y="803" on="1"/>
        <pt x="165" y="1003" on="1"/>
        <pt x="391" y="1003" on="1"/>
        <pt x="453" y="813" on="1"/>
      </contour>
      <contour>
        <pt x="61" y="740" on="1"/>
        <pt x="641" y="740" on="1"/>
        <pt x="641" y="568" on="1"/>
        <pt x="286" y="568" on="1"/>
        <pt x="286" y="456" on="1"/>
        <pt x="603" y="456" on="1"/>
        <pt x="603" y="284" on="1"/>
        <pt x="286" y="284" on="1"/>
        <pt x="286" y="173" on="1"/>
        <pt x="651" y="173" on="1"/>
        <pt x="651" y="0" on="1"/>
        <pt x="61" y="0" on="1"/>
      </contour>
    </TTGlyph>
    <TTGlyph name="Egrave.sc" xMin="59" yMin="0" xMax="605" yMax="798">
      <contour>
        <pt x="59" y="577" on="1"/>
        <pt x="597" y="577" on="1"/>
        <pt x="597" y="422" on="1"/>
        <pt x="272" y="422" on="1"/>
        <pt x="272" y="357" on="1"/>
        <pt x="561" y="357" on="1"/>
        <pt x="561" y="221" on="1"/>
        <pt x="272" y="221" on="1"/>
        <pt x="272" y="156" on="1"/>
        <pt x="605" y="156" on="1"/>
        <pt x="605" y="0" on="1"/>
        <pt x="59" y="0" on="1"/>
      </contour>
      <contour>
        <pt x="157" y="798" on="1"/>
        <pt x="371" y="798" on="1"/>
        <pt x="426" y="635" on="1"/>
        <pt x="277" y="628" on="1"/>
      </contour>
    </TTGlyph>
    <TTGlyph name="Einvertedbreve" xMin="61" yMin="0" xMax="651" yMax="1009">
      <contour>
        <pt x="61" y="740" on="1"/>
        <pt x="641" y="740" on="1"/>
        <pt x="641" y="568" on="1"/>
        <pt x="286" y="568" on="1"/>
        <pt x="286" y="456" on="1"/>
        <pt x="603" y="456" on="1"/>
        <pt x="603" y="284" on="1"/>
        <pt x="286" y="284" on="1"/>
        <pt x="286" y="173" on="1"/>
        <pt x="651" y="173" on="1"/>
        <pt x="651" y="0" on="1"/>
        <pt x="61" y="0" on="1"/>
      </contour>
      <contour>
        <pt x="448" y="816" on="1"/>
        <pt x="448" y="839" on="0"/>
        <pt x="440" y="873" on="0"/>
        <pt x="419" y="896" on="0"/>
        <pt x="382" y="908" on="0"/>
        <pt x="353" y="908" on="1"/>
        <pt x="295" y="908" on="0"/>
        <pt x="257" y="862" on="0"/>
        <pt x="257" y="816" on="1"/>
        <pt x="114" y="816" on="1"/>
        <pt x="114" y="856" on="0"/>
        <pt x="138" y="927" on="0"/>
        <pt x="194" y="979" on="0"/>
        <pt x="285" y="1009" on="0"/>
        <pt x="353" y="1009" on="1"/>
        <pt x="420" y="1009" on="0"/>
        <pt x="512" y="980" on="0"/>
        <pt x="568" y="928" on="0"/>
        <pt x="592" y="858" on="0"/>
        <pt x="592" y="816" on="1"/>
      </contour>
    </TTGlyph>
    <TTGlyph name="Einvertedbreve.sc" xMin="59" yMin="0" xMax="605" yMax="799">
      <contour>
        <pt x="106" y="638" on="1"/>
        <pt x="106" y="671" on="0"/>
        <pt x="128" y="730" on="0"/>
        <pt x="180" y="773" on="0"/>
        <pt x="265" y="799" on="0"/>
        <pt x="329" y="799" on="1"/>
        <pt x="392" y="799" on="0"/>
        <pt x="478" y="774" on="0"/>
        <pt x="530" y="731" on="0"/>
        <pt x="552" y="672" on="0"/>
        <pt x="552" y="638" on="1"/>
        <pt x="417" y="638" on="1"/>
        <pt x="417" y="672" on="0"/>
        <pt x="383" y="707" on="0"/>
        <pt x="329" y="707" on="1"/>
        <pt x="276" y="707" on="0"/>
        <pt x="241" y="672" on="0"/>
        <pt x="241" y="638" on="1"/>
      </contour>
      <contour>
        <pt x="59" y="577" on="1"/>
        <pt x="597" y="577" on="1"/>
        <pt x="597" y="422" on="1"/>
        <pt x="272" y="422" on="1"/>
        <pt x="272" y="357" on="1"/>
        <pt x="561" y="357" on="1"/>
        <pt x="561" y="221" on="1"/>
        <pt x="272" y="221" on="1"/>
        <pt x="272" y="156" on="1"/>
        <pt x="605" y="156" on="1"/>
        <pt x="605" y="0" on="1"/>
        <pt x="59" y="0" on="1"/>
      </contour>
    </TTGlyph>
    <TTGlyph name="Emacron" xMin="61" yMin="0" xMax="651" yMax="983">
      <contour>
        <pt x="138" y="983" on="1"/>
        <pt x="573" y="983" on="1"/>
        <pt x="573" y="841" on="1"/>
        <pt x="138" y="841" on="1"/>
      </contour>
      <contour>
        <pt x="61" y="740" on="1"/>
        <pt x="641" y="740" on="1"/>
        <pt x="641" y="568" on="1"/>
        <pt x="286" y="568" on="1"/>
        <pt x="286" y="456" on="1"/>
        <pt x="603" y="456" on="1"/>
        <pt x="603" y="284" on="1"/>
        <pt x="286" y="284" on="1"/>
        <pt x="286" y="173" on="1"/>
        <pt x="651" y="173" on="1"/>
        <pt x="651" y="0" on="1"/>
        <pt x="61" y="0" on="1"/>
      </contour>
    </TTGlyph>
    <TTGlyph name="Emacron.sc" xMin="59" yMin="0" xMax="605" yMax="789">
      <contour>
        <pt x="59" y="577" on="1"/>
        <pt x="597" y="577" on="1"/>
        <pt x="597" y="422" on="1"/>
        <pt x="272" y="422" on="1"/>
        <pt x="272" y="357" on="1"/>
        <pt x="561" y="357" on="1"/>
        <pt x="561" y="221" on="1"/>
        <pt x="272" y="221" on="1"/>
        <pt x="272" y="156" on="1"/>
        <pt x="605" y="156" on="1"/>
        <pt x="605" y="0" on="1"/>
        <pt x="59" y="0" on="1"/>
      </contour>
      <contour>
        <pt x="129" y="789" on="1"/>
        <pt x="535" y="789" on="1"/>
        <pt x="535" y="656" on="1"/>
        <pt x="129" y="656" on="1"/>
      </contour>
    </TTGlyph>
    <TTGlyph name="Eng" xMin="61" yMin="-218" xMax="773" yMax="740">
      <contour>
        <pt x="485" y="-170" on="1"/>
        <pt x="501" y="-134" on="0"/>
        <pt x="525" y="-75" on="0"/>
        <pt x="541" y="-21" on="0"/>
        <pt x="552" y="30" on="0"/>
        <pt x="555" y="56" on="1"/>
        <pt x="339" y="316" on="1"/>
        <pt x="270" y="411" on="1"/>
        <pt x="260" y="411" on="1"/>
        <pt x="260" y="0" on="1"/>
        <pt x="61" y="0" on="1"/>
        <pt x="61" y="740" on="1"/>
        <pt x="234" y="740" on="1"/>
        <pt x="505" y="414" on="1"/>
        <pt x="564" y="330" on="1"/>
        <pt x="574" y="330" on="1"/>
        <pt x="574" y="740" on="1"/>
        <pt x="773" y="740" on="1"/>
        <pt x="773" y="136" on="1"/>
        <pt x="773" y="104" on="0"/>
        <pt x="751" y="17" on="0"/>
        <pt x="712" y="-78" on="0"/>
        <pt x="661" y="-176" on="0"/>
        <pt x="631" y="-218" on="1"/>
      </contour>
    </TTGlyph>
    <TTGlyph name="Eng.sc" xMin="60" yMin="-177" xMax="693" yMax="577">
      <contour>
        <pt x="436" y="-132" on="1"/>
        <pt x="451" y="-101" on="0"/>
        <pt x="473" y="-54" on="0"/>
        <pt x="487" y="-15" on="0"/>
        <pt x="495" y="19" on="0"/>
        <pt x="498" y="37" on="1"/>
        <pt x="322" y="201" on="1"/>
        <pt x="256" y="278" on="1"/>
        <pt x="247" y="279" on="1"/>
        <pt x="247" y="0" on="1"/>
        <pt x="60" y="0" on="1"/>
        <pt x="60" y="577" on="1"/>
        <pt x="222" y="577" on="1"/>
        <pt x="441" y="364" on="1"/>
        <pt x="497" y="300" on="1"/>
        <pt x="506" y="300" on="1"/>
        <pt x="506" y="577" on="1"/>
        <pt x="693" y="577" on="1"/>
        <pt x="693" y="119" on="1"/>
        <pt x="693" y="90" on="0"/>
        <pt x="677" y="21" on="0"/>
        <pt x="646" y="-56" on="0"/>
        <pt x="602" y="-137" on="0"/>
        <pt x="574" y="-177" on="1"/>
      </contour>
    </TTGlyph>
    <TTGlyph name="Eogonek" xMin="61" yMin="-220" xMax="653" yMax="740">
      <contour>
        <pt x="61" y="740" on="1"/>
        <pt x="641" y="740" on="1"/>
        <pt x="641" y="568" on="1"/>
        <pt x="286" y="568" on="1"/>
        <pt x="286" y="456" on="1"/>
        <pt x="603" y="456" on="1"/>
        <pt x="603" y="284" on="1"/>
        <pt x="286" y="284" on="1"/>
        <pt x="286" y="173" on="1"/>
        <pt x="651" y="173" on="1"/>
        <pt x="651" y="-5" on="1"/>
        <pt x="616" y="-19" on="0"/>
        <pt x="569" y="-41" on="0"/>
        <pt x="541" y="-61" on="0"/>
        <pt x="529" y="-79" on="0"/>
        <pt x="529" y="-88" on="1"/>
        <pt x="529" y="-107" on="0"/>
        <pt x="558" y="-107" on="1"/>
        <pt x="572" y="-107" on="0"/>
        <pt x="628" y="-97" on="0"/>
        <pt x="653" y="-91" on="1"/>
        <pt x="653" y="-208" on="1"/>
        <pt x="630" y="-214" on="0"/>
        <pt x="582" y="-220" on="0"/>
        <pt x="555" y="-220" on="1"/>
        <pt x="477" y="-220" on="0"/>
        <pt x="391" y="-169" on="0"/>
        <pt x="391" y="-122" on="1"/>
        <pt x="391" y="-90" on="0"/>
        <pt x="434" y="-23" on="0"/>
        <pt x="471" y="0" on="1"/>
        <pt x="61" y="0" on="1"/>
      </contour>
    </TTGlyph>
    <TTGlyph name="Eogonek.sc" xMin="60" yMin="-172" xMax="607" yMax="577">
      <contour>
        <pt x="519" y="-172" on="1"/>
        <pt x="440" y="-172" on="0"/>
        <pt x="364" y="-129" on="0"/>
        <pt x="364" y="-90" on="1"/>
        <pt x="364" y="-61" on="0"/>
        <pt x="402" y="-13" on="0"/>
        <pt x="429" y="0" on="1"/>
        <pt x="60" y="0" on="1"/>
        <pt x="60" y="577" on="1"/>
        <pt x="597" y="577" on="1"/>
        <pt x="597" y="422" on="1"/>
        <pt x="273" y="422" on="1"/>
        <pt x="273" y="357" on="1"/>
        <pt x="561" y="357" on="1"/>
        <pt x="561" y="221" on="1"/>
        <pt x="273" y="221" on="1"/>
        <pt x="273" y="156" on="1"/>
        <pt x="606" y="156" on="1"/>
        <pt x="606" y="0" on="1"/>
        <pt x="568" y="-13" on="0"/>
        <pt x="523" y="-32" on="0"/>
        <pt x="501" y="-46" on="0"/>
        <pt x="495" y="-54" on="0"/>
        <pt x="495" y="-57" on="1"/>
        <pt x="495" y="-64" on="0"/>
        <pt x="516" y="-64" on="1"/>
        <pt x="523" y="-64" on="0"/>
        <pt x="548" y="-62" on="0"/>
        <pt x="574" y="-59" on="0"/>
        <pt x="599" y="-56" on="0"/>
        <pt x="607" y="-54" on="1"/>
        <pt x="607" y="-162" on="1"/>
        <pt x="584" y="-168" on="0"/>
        <pt x="540" y="-172" on="0"/>
      </contour>
    </TTGlyph>
    <TTGlyph name="Eth" xMin="3" yMin="-11" xMax="799" yMax="750">
      <contour>
        <pt x="3" y="458" on="1"/>
        <pt x="89" y="458" on="1"/>
        <pt x="89" y="739" on="1"/>
        <pt x="185" y="744" on="0"/>
        <pt x="317" y="750" on="0"/>
        <pt x="367" y="750" on="1"/>
        <pt x="481" y="750" on="0"/>
        <pt x="644" y="706" on="0"/>
        <pt x="749" y="614" on="0"/>
        <pt x="799" y="469" on="0"/>
        <pt x="799" y="369" on="1"/>
        <pt x="799" y="266" on="0"/>
        <pt x="747" y="122" on="0"/>
        <pt x="633" y="31" on="0"/>
        <pt x="452" y="-11" on="0"/>
        <pt x="323" y="-11" on="1"/>
        <pt x="262" y="-11" on="0"/>
        <pt x="136" y="-4" on="0"/>
        <pt x="89" y="2" on="1"/>
        <pt x="89" y="291" on="1"/>
        <pt x="3" y="291" on="1"/>
      </contour>
      <contour>
        <pt x="414" y="166" on="1"/>
        <pt x="459" y="166" on="0"/>
        <pt x="519" y="184" on="0"/>
        <pt x="555" y="231" on="0"/>
        <pt x="569" y="309" on="0"/>
        <pt x="569" y="369" on="1"/>
        <pt x="569" y="428" on="0"/>
        <pt x="553" y="506" on="0"/>
        <pt x="514" y="553" on="0"/>
        <pt x="450" y="573" on="0"/>
        <pt x="402" y="573" on="1"/>
        <pt x="385" y="573" on="0"/>
        <pt x="345" y="571" on="0"/>
        <pt x="313" y="569" on="1"/>
        <pt x="313" y="458" on="1"/>
        <pt x="404" y="458" on="1"/>
        <pt x="404" y="291" on="1"/>
        <pt x="313" y="291" on="1"/>
        <pt x="313" y="173" on="1"/>
        <pt x="336" y="169" on="0"/>
        <pt x="389" y="166" on="0"/>
      </contour>
    </TTGlyph>
    <TTGlyph name="Eth.sc" xMin="10" yMin="-8" xMax="743" yMax="585">
      <contour>
        <pt x="10" y="364" on="1"/>
        <pt x="87" y="364" on="1"/>
        <pt x="87" y="576" on="1"/>
        <pt x="178" y="581" on="0"/>
        <pt x="300" y="585" on="0"/>
        <pt x="347" y="585" on="1"/>
        <pt x="451" y="585" on="0"/>
        <pt x="601" y="551" on="0"/>
        <pt x="697" y="479" on="0"/>
        <pt x="743" y="366" on="0"/>
        <pt x="743" y="287" on="1"/>
        <pt x="743" y="206" on="0"/>
        <pt x="695" y="94" on="0"/>
        <pt x="590" y="23" on="0"/>
        <pt x="422" y="-8" on="0"/>
        <pt x="303" y="-8" on="1"/>
        <pt x="246" y="-8" on="0"/>
        <pt x="128" y="-3" on="0"/>
        <pt x="87" y="1" on="1"/>
        <pt x="87" y="219" on="1"/>
        <pt x="10" y="219" on="1"/>
      </contour>
      <contour>
        <pt x="390" y="157" on="1"/>
        <pt x="430" y="157" on="0"/>
        <pt x="482" y="167" on="0"/>
        <pt x="513" y="195" on="0"/>
        <pt x="525" y="247" on="0"/>
        <pt x="525" y="288" on="1"/>
        <pt x="525" y="327" on="0"/>
        <pt x="511" y="378" on="0"/>
        <pt x="478" y="408" on="0"/>
        <pt x="422" y="419" on="0"/>
        <pt x="380" y="419" on="1"/>
        <pt x="365" y="419" on="0"/>
        <pt x="329" y="419" on="0"/>
        <pt x="299" y="417" on="1"/>
        <pt x="299" y="364" on="1"/>
        <pt x="377" y="364" on="1"/>
        <pt x="377" y="219" on="1"/>
        <pt x="299" y="219" on="1"/>
        <pt x="299" y="163" on="1"/>
        <pt x="319" y="161" on="0"/>
        <pt x="367" y="157" on="0"/>
      </contour>
    </TTGlyph>
    <TTGlyph name="Etilde" xMin="61" yMin="0" xMax="651" yMax="1000">
      <contour>
        <pt x="103" y="854" on="1"/>
        <pt x="140" y="927" on="0"/>
        <pt x="235" y="1000" on="0"/>
        <pt x="280" y="1000" on="1"/>
        <pt x="307" y="1000" on="0"/>
        <pt x="359" y="988" on="0"/>
        <pt x="412" y="975" on="0"/>
        <pt x="465" y="963" on="0"/>
        <pt x="492" y="963" on="1"/>
        <pt x="515" y="963" on="0"/>
        <pt x="559" y="977" on="0"/>
        <pt x="590" y="1000" on="1"/>
        <pt x="613" y="966" on="1"/>
        <pt x="575" y="892" on="0"/>
        <pt x="480" y="820" on="0"/>
        <pt x="437" y="820" on="1"/>
        <pt x="410" y="820" on="0"/>
        <pt x="357" y="832" on="0"/>
        <pt x="304" y="845" on="0"/>
        <pt x="251" y="857" on="0"/>
        <pt x="224" y="857" on="1"/>
        <pt x="200" y="857" on="0"/>
        <pt x="155" y="843" on="0"/>
        <pt x="126" y="820" on="1"/>
      </contour>
      <contour>
        <pt x="61" y="740" on="1"/>
        <pt x="641" y="740" on="1"/>
        <pt x="641" y="568" on="1"/>
        <pt x="286" y="568" on="1"/>
        <pt x="286" y="456" on="1"/>
        <pt x="603" y="456" on="1"/>
        <pt x="603" y="284" on="1"/>
        <pt x="286" y="284" on="1"/>
        <pt x="286" y="173" on="1"/>
        <pt x="651" y="173" on="1"/>
        <pt x="651" y="0" on="1"/>
        <pt x="61" y="0" on="1"/>
      </contour>
    </TTGlyph>
    <TTGlyph name="Etilde.sc" xMin="59" yMin="0" xMax="605" yMax="800">
      <contour>
        <pt x="95" y="666" on="1"/>
        <pt x="129" y="733" on="0"/>
        <pt x="218" y="799" on="0"/>
        <pt x="260" y="799" on="1"/>
        <pt x="285" y="799" on="0"/>
        <pt x="334" y="791" on="0"/>
        <pt x="383" y="780" on="0"/>
        <pt x="433" y="772" on="0"/>
        <pt x="458" y="772" on="1"/>
        <pt x="479" y="772" on="0"/>
        <pt x="519" y="782" on="0"/>
        <pt x="548" y="800" on="1"/>
        <pt x="569" y="770" on="1"/>
        <pt x="534" y="703" on="0"/>
        <pt x="444" y="638" on="0"/>
        <pt x="406" y="638" on="1"/>
        <pt x="381" y="638" on="0"/>
        <pt x="331" y="646" on="0"/>
        <pt x="281" y="657" on="0"/>
        <pt x="231" y="665" on="0"/>
        <pt x="206" y="665" on="1"/>
        <pt x="184" y="665" on="0"/>
        <pt x="143" y="655" on="0"/>
        <pt x="117" y="637" on="1"/>
      </contour>
      <contour>
        <pt x="59" y="577" on="1"/>
        <pt x="597" y="577" on="1"/>
        <pt x="597" y="422" on="1"/>
        <pt x="272" y="422" on="1"/>
        <pt x="272" y="357" on="1"/>
        <pt x="561" y="357" on="1"/>
        <pt x="561" y="221" on="1"/>
        <pt x="272" y="221" on="1"/>
        <pt x="272" y="156" on="1"/>
        <pt x="605" y="156" on="1"/>
        <pt x="605" y="0" on="1"/>
        <pt x="59" y="0" on="1"/>
      </contour>
    </TTGlyph>
    <TTGlyph name="Euro" xMin="30" yMin="-10" xMax="701" yMax="750">
      <contour>
        <pt x="30" y="514" on="1"/>
        <pt x="118" y="514" on="1"/>
        <pt x="150" y="630" on="0"/>
        <pt x="339" y="750" on="0"/>
        <pt x="504" y="750" on="1"/>
        <pt x="571" y="750" on="0"/>
        <pt x="671" y="734" on="0"/>
        <pt x="701" y="728" on="1"/>
        <pt x="652" y="553" on="1"/>
        <pt x="644" y="554" on="0"/>
        <pt x="618" y="558" on="0"/>
        <pt x="589" y="561" on="0"/>
        <pt x="560" y="563" on="0"/>
        <pt x="548" y="563" on="1"/>
        <pt x="464" y="563" on="0"/>
        <pt x="373" y="543" on="0"/>
        <pt x="352" y="514" on="1"/>
        <pt x="632" y="514" on="1"/>
        <pt x="612" y="395" on="1"/>
        <pt x="326" y="395" on="1"/>
        <pt x="326" y="345" on="1"/>
        <pt x="600" y="345" on="1"/>
        <pt x="580" y="226" on="1"/>
        <pt x="351" y="226" on="1"/>
        <pt x="372" y="196" on="0"/>
        <pt x="465" y="176" on="0"/>
        <pt x="551" y="176" on="1"/>
        <pt x="592" y="176" on="0"/>
        <pt x="663" y="183" on="0"/>
        <pt x="701" y="193" on="1"/>
        <pt x="701" y="11" on="1"/>
        <pt x="670" y="1" on="0"/>
        <pt x="570" y="-10" on="0"/>
        <pt x="516" y="-10" on="1"/>
        <pt x="343" y="-10" on="0"/>
        <pt x="149" y="110" on="0"/>
        <pt x="117" y="226" on="1"/>
        <pt x="30" y="226" on="1"/>
        <pt x="30" y="345" on="1"/>
        <pt x="100" y="345" on="1"/>
        <pt x="100" y="395" on="1"/>
        <pt x="30" y="395" on="1"/>
      </contour>
    </TTGlyph>
    <TTGlyph name="Euro.tab" xMin="2" yMin="-10" xMax="645" yMax="750">
      <contour>
        <pt x="2" y="514" on="1"/>
        <pt x="84" y="514" on="1"/>
        <pt x="116" y="630" on="0"/>
        <pt x="294" y="750" on="0"/>
        <pt x="452" y="750" on="1"/>
        <pt x="518" y="750" on="0"/>
        <pt x="615" y="734" on="0"/>
        <pt x="644" y="728" on="1"/>
        <pt x="597" y="553" on="1"/>
        <pt x="589" y="554" on="0"/>
        <pt x="564" y="558" on="0"/>
        <pt x="536" y="561" on="0"/>
        <pt x="507" y="563" on="0"/>
        <pt x="496" y="563" on="1"/>
        <pt x="418" y="563" on="0"/>
        <pt x="334" y="543" on="0"/>
        <pt x="314" y="514" on="1"/>
        <pt x="579" y="514" on="1"/>
        <pt x="561" y="395" on="1"/>
        <pt x="289" y="395" on="1"/>
        <pt x="289" y="345" on="1"/>
        <pt x="550" y="345" on="1"/>
        <pt x="530" y="226" on="1"/>
        <pt x="314" y="226" on="1"/>
        <pt x="334" y="196" on="0"/>
        <pt x="420" y="176" on="0"/>
        <pt x="499" y="176" on="1"/>
        <pt x="539" y="176" on="0"/>
        <pt x="609" y="183" on="0"/>
        <pt x="645" y="193" on="1"/>
        <pt x="645" y="11" on="1"/>
        <pt x="616" y="1" on="0"/>
        <pt x="517" y="-10" on="0"/>
        <pt x="465" y="-10" on="1"/>
        <pt x="299" y="-10" on="0"/>
        <pt x="115" y="109" on="0"/>
        <pt x="84" y="226" on="1"/>
        <pt x="2" y="226" on="1"/>
        <pt x="2" y="345" on="1"/>
        <pt x="67" y="345" on="1"/>
        <pt x="67" y="395" on="1"/>
        <pt x="2" y="395" on="1"/>
      </contour>
    </TTGlyph>
    <TTGlyph name="F" xMin="61" yMin="0" xMax="639" yMax="740">
      <contour>
        <pt x="61" y="740" on="1"/>
        <pt x="639" y="740" on="1"/>
        <pt x="639" y="568" on="1"/>
        <pt x="286" y="568" on="1"/>
        <pt x="286" y="429" on="1"/>
        <pt x="601" y="429" on="1"/>
        <pt x="601" y="256" on="1"/>
        <pt x="286" y="256" on="1"/>
        <pt x="286" y="0" on="1"/>
        <pt x="61" y="0" on="1"/>
      </contour>
    </TTGlyph>
    <TTGlyph name="F.sc" xMin="59" yMin="0" xMax="595" yMax="577">
      <contour>
        <pt x="59" y="577" on="1"/>
        <pt x="595" y="577" on="1"/>
        <pt x="595" y="417" on="1"/>
        <pt x="272" y="417" on="1"/>
        <pt x="272" y="333" on="1"/>
        <pt x="560" y="333" on="1"/>
        <pt x="560" y="187" on="1"/>
        <pt x="272" y="187" on="1"/>
        <pt x="272" y="0" on="1"/>
        <pt x="59" y="0" on="1"/>
      </contour>
    </TTGlyph>
    <TTGlyph name="F_B.sc" xMin="59" yMin="-8" xMax="1284" yMax="585">
      <contour>
        <pt x="59" y="577" on="1"/>
        <pt x="595" y="577" on="1"/>
        <pt x="595" y="417" on="1"/>
        <pt x="272" y="417" on="1"/>
        <pt x="272" y="333" on="1"/>
        <pt x="560" y="333" on="1"/>
        <pt x="560" y="187" on="1"/>
        <pt x="272" y="187" on="1"/>
        <pt x="272" y="0" on="1"/>
        <pt x="59" y="0" on="1"/>
      </contour>
      <contour>
        <pt x="980" y="-8" on="1"/>
        <pt x="902" y="-8" on="0"/>
        <pt x="756" y="-2" on="0"/>
        <pt x="673" y="4" on="1"/>
        <pt x="673" y="573" on="1"/>
        <pt x="745" y="579" on="0"/>
        <pt x="880" y="585" on="0"/>
        <pt x="947" y="585" on="1"/>
        <pt x="1110" y="585" on="0"/>
        <pt x="1262" y="504" on="0"/>
        <pt x="1262" y="416" on="1"/>
        <pt x="1262" y="371" on="0"/>
        <pt x="1205" y="315" on="0"/>
        <pt x="1146" y="300" on="1"/>
        <pt x="1146" y="297" on="1"/>
        <pt x="1213" y="286" on="0"/>
        <pt x="1284" y="217" on="0"/>
        <pt x="1284" y="163" on="1"/>
        <pt x="1284" y="74" on="0"/>
        <pt x="1137" y="-8" on="0"/>
      </contour>
      <contour>
        <pt x="975" y="133" on="1"/>
        <pt x="1026" y="133" on="0"/>
        <pt x="1075" y="157" on="0"/>
        <pt x="1075" y="185" on="1"/>
        <pt x="1075" y="212" on="0"/>
        <pt x="1030" y="231" on="0"/>
        <pt x="973" y="231" on="1"/>
        <pt x="875" y="231" on="1"/>
        <pt x="875" y="134" on="1"/>
        <pt x="881" y="133" on="0"/>
        <pt x="892" y="133" on="0"/>
        <pt x="912" y="133" on="0"/>
        <pt x="946" y="133" on="0"/>
      </contour>
      <contour>
        <pt x="957" y="353" on="1"/>
        <pt x="1011" y="353" on="0"/>
        <pt x="1054" y="373" on="0"/>
        <pt x="1054" y="400" on="1"/>
        <pt x="1054" y="425" on="0"/>
        <pt x="1011" y="445" on="0"/>
        <pt x="959" y="445" on="1"/>
        <pt x="936" y="445" on="0"/>
        <pt x="892" y="444" on="0"/>
        <pt x="875" y="441" on="1"/>
        <pt x="875" y="353" on="1"/>
      </contour>
    </TTGlyph>
    <TTGlyph name="F_F.sc" xMin="59" yMin="0" xMax="1208" yMax="577">
      <contour>
        <pt x="59" y="577" on="1"/>
        <pt x="595" y="577" on="1"/>
        <pt x="595" y="417" on="1"/>
        <pt x="272" y="417" on="1"/>
        <pt x="272" y="333" on="1"/>
        <pt x="560" y="333" on="1"/>
        <pt x="560" y="187" on="1"/>
        <pt x="272" y="187" on="1"/>
        <pt x="272" y="0" on="1"/>
        <pt x="59" y="0" on="1"/>
      </contour>
      <contour>
        <pt x="672" y="577" on="1"/>
        <pt x="1208" y="577" on="1"/>
        <pt x="1208" y="417" on="1"/>
        <pt x="885" y="417" on="1"/>
        <pt x="885" y="333" on="1"/>
        <pt x="1173" y="333" on="1"/>
        <pt x="1173" y="187" on="1"/>
        <pt x="885" y="187" on="1"/>
        <pt x="885" y="0" on="1"/>
        <pt x="672" y="0" on="1"/>
      </contour>
    </TTGlyph>
    <TTGlyph name="F_F_B.sc" xMin="59" yMin="-8" xMax="1897" yMax="585">
      <contour>
        <pt x="59" y="577" on="1"/>
        <pt x="595" y="577" on="1"/>
        <pt x="595" y="417" on="1"/>
        <pt x="272" y="417" on="1"/>
        <pt x="272" y="333" on="1"/>
        <pt x="560" y="333" on="1"/>
        <pt x="560" y="187" on="1"/>
        <pt x="272" y="187" on="1"/>
        <pt x="272" y="0" on="1"/>
        <pt x="59" y="0" on="1"/>
      </contour>
      <contour>
        <pt x="672" y="577" on="1"/>
        <pt x="1208" y="577" on="1"/>
        <pt x="1208" y="417" on="1"/>
        <pt x="885" y="417" on="1"/>
        <pt x="885" y="333" on="1"/>
        <pt x="1173" y="333" on="1"/>
        <pt x="1173" y="187" on="1"/>
        <pt x="885" y="187" on="1"/>
        <pt x="885" y="0" on="1"/>
        <pt x="672" y="0" on="1"/>
      </contour>
      <contour>
        <pt x="1593" y="-8" on="1"/>
        <pt x="1515" y="-8" on="0"/>
        <pt x="1369" y="-2" on="0"/>
        <pt x="1286" y="4" on="1"/>
        <pt x="1286" y="573" on="1"/>
        <pt x="1358" y="579" on="0"/>
        <pt x="1493" y="585" on="0"/>
        <pt x="1560" y="585" on="1"/>
        <pt x="1723" y="585" on="0"/>
        <pt x="1875" y="504" on="0"/>
        <pt x="1875" y="416" on="1"/>
        <pt x="1875" y="371" on="0"/>
        <pt x="1818" y="315" on="0"/>
        <pt x="1759" y="300" on="1"/>
        <pt x="1759" y="297" on="1"/>
        <pt x="1826" y="286" on="0"/>
        <pt x="1897" y="217" on="0"/>
        <pt x="1897" y="163" on="1"/>
        <pt x="1897" y="74" on="0"/>
        <pt x="1750" y="-8" on="0"/>
      </contour>
      <contour>
        <pt x="1588" y="133" on="1"/>
        <pt x="1639" y="133" on="0"/>
        <pt x="1688" y="157" on="0"/>
        <pt x="1688" y="185" on="1"/>
        <pt x="1688" y="212" on="0"/>
        <pt x="1643" y="231" on="0"/>
        <pt x="1586" y="231" on="1"/>
        <pt x="1488" y="231" on="1"/>
        <pt x="1488" y="134" on="1"/>
        <pt x="1494" y="133" on="0"/>
        <pt x="1505" y="133" on="0"/>
        <pt x="1525" y="133" on="0"/>
        <pt x="1559" y="133" on="0"/>
      </contour>
      <contour>
        <pt x="1570" y="353" on="1"/>
        <pt x="1624" y="353" on="0"/>
        <pt x="1667" y="373" on="0"/>
        <pt x="1667" y="400" on="1"/>
        <pt x="1667" y="425" on="0"/>
        <pt x="1624" y="445" on="0"/>
        <pt x="1572" y="445" on="1"/>
        <pt x="1549" y="445" on="0"/>
        <pt x="1505" y="444" on="0"/>
        <pt x="1488" y="441" on="1"/>
        <pt x="1488" y="353" on="1"/>
      </contour>
    </TTGlyph>
    <TTGlyph name="F_F_H.sc" xMin="59" yMin="0" xMax="1955" yMax="577">
      <contour>
        <pt x="59" y="577" on="1"/>
        <pt x="595" y="577" on="1"/>
        <pt x="595" y="417" on="1"/>
        <pt x="272" y="417" on="1"/>
        <pt x="272" y="333" on="1"/>
        <pt x="560" y="333" on="1"/>
        <pt x="560" y="187" on="1"/>
        <pt x="272" y="187" on="1"/>
        <pt x="272" y="0" on="1"/>
        <pt x="59" y="0" on="1"/>
      </contour>
      <contour>
        <pt x="672" y="577" on="1"/>
        <pt x="1208" y="577" on="1"/>
        <pt x="1208" y="417" on="1"/>
        <pt x="885" y="417" on="1"/>
        <pt x="885" y="333" on="1"/>
        <pt x="1173" y="333" on="1"/>
        <pt x="1173" y="187" on="1"/>
        <pt x="885" y="187" on="1"/>
        <pt x="885" y="0" on="1"/>
        <pt x="672" y="0" on="1"/>
      </contour>
      <contour>
        <pt x="1285" y="577" on="1"/>
        <pt x="1498" y="577" on="1"/>
        <pt x="1498" y="377" on="1"/>
        <pt x="1742" y="377" on="1"/>
        <pt x="1742" y="577" on="1"/>
        <pt x="1955" y="577" on="1"/>
        <pt x="1955" y="0" on="1"/>
        <pt x="1742" y="0" on="1"/>
        <pt x="1742" y="216" on="1"/>
        <pt x="1498" y="216" on="1"/>
        <pt x="1498" y="0" on="1"/>
        <pt x="1285" y="0" on="1"/>
      </contour>
    </TTGlyph>
    <TTGlyph name="F_F_I.sc" xMin="59" yMin="0" xMax="1498" yMax="577">
      <contour>
        <pt x="59" y="577" on="1"/>
        <pt x="595" y="577" on="1"/>
        <pt x="595" y="417" on="1"/>
        <pt x="272" y="417" on="1"/>
        <pt x="272" y="333" on="1"/>
        <pt x="560" y="333" on="1"/>
        <pt x="560" y="187" on="1"/>
        <pt x="272" y="187" on="1"/>
        <pt x="272" y="0" on="1"/>
        <pt x="59" y="0" on="1"/>
      </contour>
      <contour>
        <pt x="672" y="577" on="1"/>
        <pt x="1208" y="577" on="1"/>
        <pt x="1208" y="417" on="1"/>
        <pt x="885" y="417" on="1"/>
        <pt x="885" y="333" on="1"/>
        <pt x="1173" y="333" on="1"/>
        <pt x="1173" y="187" on="1"/>
        <pt x="885" y="187" on="1"/>
        <pt x="885" y="0" on="1"/>
        <pt x="672" y="0" on="1"/>
      </contour>
      <contour>
        <pt x="1285" y="577" on="1"/>
        <pt x="1498" y="577" on="1"/>
        <pt x="1498" y="0" on="1"/>
        <pt x="1285" y="0" on="1"/>
      </contour>
    </TTGlyph>
    <TTGlyph name="F_F_J.sc" xMin="59" yMin="-179" xMax="1508" yMax="577">
      <contour>
        <pt x="59" y="577" on="1"/>
        <pt x="595" y="577" on="1"/>
        <pt x="595" y="417" on="1"/>
        <pt x="272" y="417" on="1"/>
        <pt x="272" y="333" on="1"/>
        <pt x="560" y="333" on="1"/>
        <pt x="560" y="187" on="1"/>
        <pt x="272" y="187" on="1"/>
        <pt x="272" y="0" on="1"/>
        <pt x="59" y="0" on="1"/>
      </contour>
      <contour>
        <pt x="672" y="577" on="1"/>
        <pt x="1208" y="577" on="1"/>
        <pt x="1208" y="417" on="1"/>
        <pt x="885" y="417" on="1"/>
        <pt x="885" y="333" on="1"/>
        <pt x="1173" y="333" on="1"/>
        <pt x="1173" y="187" on="1"/>
        <pt x="885" y="187" on="1"/>
        <pt x="885" y="0" on="1"/>
        <pt x="672" y="0" on="1"/>
      </contour>
      <contour>
        <pt x="1227" y="-122" on="1"/>
        <pt x="1246" y="-82" on="0"/>
        <pt x="1272" y="-14" on="0"/>
        <pt x="1288" y="52" on="0"/>
        <pt x="1294" y="120" on="0"/>
        <pt x="1294" y="161" on="1"/>
        <pt x="1294" y="577" on="1"/>
        <pt x="1508" y="577" on="1"/>
        <pt x="1508" y="144" on="1"/>
        <pt x="1508" y="102" on="0"/>
        <pt x="1493" y="25" on="0"/>
        <pt x="1459" y="-51" on="0"/>
        <pt x="1403" y="-132" on="0"/>
        <pt x="1362" y="-179" on="1"/>
      </contour>
    </TTGlyph>
    <TTGlyph name="F_F_K.sc" xMin="59" yMin="0" xMax="1951" yMax="577">
      <contour>
        <pt x="59" y="577" on="1"/>
        <pt x="595" y="577" on="1"/>
        <pt x="595" y="417" on="1"/>
        <pt x="272" y="417" on="1"/>
        <pt x="272" y="333" on="1"/>
        <pt x="560" y="333" on="1"/>
        <pt x="560" y="187" on="1"/>
        <pt x="272" y="187" on="1"/>
        <pt x="272" y="0" on="1"/>
        <pt x="59" y="0" on="1"/>
      </contour>
      <contour>
        <pt x="672" y="577" on="1"/>
        <pt x="1208" y="577" on="1"/>
        <pt x="1208" y="417" on="1"/>
        <pt x="885" y="417" on="1"/>
        <pt x="885" y="333" on="1"/>
        <pt x="1173" y="333" on="1"/>
        <pt x="1173" y="187" on="1"/>
        <pt x="885" y="187" on="1"/>
        <pt x="885" y="0" on="1"/>
        <pt x="672" y="0" on="1"/>
      </contour>
      <contour>
        <pt x="1285" y="577" on="1"/>
        <pt x="1498" y="577" on="1"/>
        <pt x="1498" y="369" on="1"/>
        <pt x="1570" y="369" on="1"/>
        <pt x="1699" y="577" on="1"/>
        <pt x="1935" y="577" on="1"/>
        <pt x="1766" y="329" on="1"/>
        <pt x="1709" y="308" on="1"/>
        <pt x="1709" y="300" on="1"/>
        <pt x="1769" y="277" on="1"/>
        <pt x="1951" y="0" on="1"/>
        <pt x="1714" y="0" on="1"/>
        <pt x="1584" y="208" on="1"/>
        <pt x="1498" y="208" on="1"/>
        <pt x="1498" y="0" on="1"/>
        <pt x="1285" y="0" on="1"/>
      </contour>
    </TTGlyph>
    <TTGlyph name="F_F_L.sc" xMin="59" yMin="0" xMax="1776" yMax="577">
      <contour>
        <pt x="1285" y="577" on="1"/>
        <pt x="1498" y="577" on="1"/>
        <pt x="1498" y="161" on="1"/>
        <pt x="1776" y="161" on="1"/>
        <pt x="1776" y="0" on="1"/>
        <pt x="1285" y="0" on="1"/>
      </contour>
      <contour>
        <pt x="59" y="577" on="1"/>
        <pt x="595" y="577" on="1"/>
        <pt x="595" y="417" on="1"/>
        <pt x="272" y="417" on="1"/>
        <pt x="272" y="333" on="1"/>
        <pt x="560" y="333" on="1"/>
        <pt x="560" y="187" on="1"/>
        <pt x="272" y="187" on="1"/>
        <pt x="272" y="0" on="1"/>
        <pt x="59" y="0" on="1"/>
      </contour>
      <contour>
        <pt x="672" y="577" on="1"/>
        <pt x="1208" y="577" on="1"/>
        <pt x="1208" y="417" on="1"/>
        <pt x="885" y="417" on="1"/>
        <pt x="885" y="333" on="1"/>
        <pt x="1173" y="333" on="1"/>
        <pt x="1173" y="187" on="1"/>
        <pt x="885" y="187" on="1"/>
        <pt x="885" y="0" on="1"/>
        <pt x="672" y="0" on="1"/>
      </contour>
    </TTGlyph>
    <TTGlyph name="F_F_T.sc" xMin="59" yMin="0" xMax="1797" yMax="577">
      <contour>
        <pt x="1402" y="416" on="1"/>
        <pt x="1221" y="416" on="1"/>
        <pt x="1221" y="577" on="1"/>
        <pt x="1797" y="577" on="1"/>
        <pt x="1797" y="416" on="1"/>
        <pt x="1615" y="416" on="1"/>
        <pt x="1615" y="0" on="1"/>
        <pt x="1402" y="0" on="1"/>
      </contour>
      <contour>
        <pt x="59" y="577" on="1"/>
        <pt x="595" y="577" on="1"/>
        <pt x="595" y="417" on="1"/>
        <pt x="272" y="417" on="1"/>
        <pt x="272" y="333" on="1"/>
        <pt x="560" y="333" on="1"/>
        <pt x="560" y="187" on="1"/>
        <pt x="272" y="187" on="1"/>
        <pt x="272" y="0" on="1"/>
        <pt x="59" y="0" on="1"/>
      </contour>
      <contour>
        <pt x="672" y="577" on="1"/>
        <pt x="1208" y="577" on="1"/>
        <pt x="1208" y="417" on="1"/>
        <pt x="885" y="417" on="1"/>
        <pt x="885" y="333" on="1"/>
        <pt x="1173" y="333" on="1"/>
        <pt x="1173" y="187" on="1"/>
        <pt x="885" y="187" on="1"/>
        <pt x="885" y="0" on="1"/>
        <pt x="672" y="0" on="1"/>
      </contour>
    </TTGlyph>
    <TTGlyph name="F_H.sc" xMin="59" yMin="0" xMax="1342" yMax="577">
      <contour>
        <pt x="59" y="577" on="1"/>
        <pt x="595" y="577" on="1"/>
        <pt x="595" y="417" on="1"/>
        <pt x="272" y="417" on="1"/>
        <pt x="272" y="333" on="1"/>
        <pt x="560" y="333" on="1"/>
        <pt x="560" y="187" on="1"/>
        <pt x="272" y="187" on="1"/>
        <pt x="272" y="0" on="1"/>
        <pt x="59" y="0" on="1"/>
      </contour>
      <contour>
        <pt x="672" y="577" on="1"/>
        <pt x="885" y="577" on="1"/>
        <pt x="885" y="377" on="1"/>
        <pt x="1129" y="377" on="1"/>
        <pt x="1129" y="577" on="1"/>
        <pt x="1342" y="577" on="1"/>
        <pt x="1342" y="0" on="1"/>
        <pt x="1129" y="0" on="1"/>
        <pt x="1129" y="216" on="1"/>
        <pt x="885" y="216" on="1"/>
        <pt x="885" y="0" on="1"/>
        <pt x="672" y="0" on="1"/>
      </contour>
    </TTGlyph>
    <TTGlyph name="F_I.sc" xMin="59" yMin="0" xMax="885" yMax="577">
      <contour>
        <pt x="59" y="577" on="1"/>
        <pt x="595" y="577" on="1"/>
        <pt x="595" y="417" on="1"/>
        <pt x="272" y="417" on="1"/>
        <pt x="272" y="333" on="1"/>
        <pt x="560" y="333" on="1"/>
        <pt x="560" y="187" on="1"/>
        <pt x="272" y="187" on="1"/>
        <pt x="272" y="0" on="1"/>
        <pt x="59" y="0" on="1"/>
      </contour>
      <contour>
        <pt x="672" y="577" on="1"/>
        <pt x="885" y="577" on="1"/>
        <pt x="885" y="0" on="1"/>
        <pt x="672" y="0" on="1"/>
      </contour>
    </TTGlyph>
    <TTGlyph name="F_J.sc" xMin="59" yMin="-179" xMax="895" yMax="577">
      <contour>
        <pt x="59" y="577" on="1"/>
        <pt x="595" y="577" on="1"/>
        <pt x="595" y="417" on="1"/>
        <pt x="272" y="417" on="1"/>
        <pt x="272" y="333" on="1"/>
        <pt x="560" y="333" on="1"/>
        <pt x="560" y="187" on="1"/>
        <pt x="272" y="187" on="1"/>
        <pt x="272" y="0" on="1"/>
        <pt x="59" y="0" on="1"/>
      </contour>
      <contour>
        <pt x="614" y="-122" on="1"/>
        <pt x="633" y="-82" on="0"/>
        <pt x="659" y="-14" on="0"/>
        <pt x="675" y="52" on="0"/>
        <pt x="681" y="120" on="0"/>
        <pt x="681" y="161" on="1"/>
        <pt x="681" y="577" on="1"/>
        <pt x="895" y="577" on="1"/>
        <pt x="895" y="144" on="1"/>
        <pt x="895" y="102" on="0"/>
        <pt x="880" y="25" on="0"/>
        <pt x="846" y="-51" on="0"/>
        <pt x="790" y="-132" on="0"/>
        <pt x="749" y="-179" on="1"/>
      </contour>
    </TTGlyph>
    <TTGlyph name="F_K.sc" xMin="59" yMin="0" xMax="1338" yMax="577">
      <contour>
        <pt x="59" y="577" on="1"/>
        <pt x="595" y="577" on="1"/>
        <pt x="595" y="417" on="1"/>
        <pt x="272" y="417" on="1"/>
        <pt x="272" y="333" on="1"/>
        <pt x="560" y="333" on="1"/>
        <pt x="560" y="187" on="1"/>
        <pt x="272" y="187" on="1"/>
        <pt x="272" y="0" on="1"/>
        <pt x="59" y="0" on="1"/>
      </contour>
      <contour>
        <pt x="672" y="577" on="1"/>
        <pt x="885" y="577" on="1"/>
        <pt x="885" y="369" on="1"/>
        <pt x="957" y="369" on="1"/>
        <pt x="1086" y="577" on="1"/>
        <pt x="1322" y="577" on="1"/>
        <pt x="1153" y="329" on="1"/>
        <pt x="1096" y="308" on="1"/>
        <pt x="1096" y="300" on="1"/>
        <pt x="1156" y="277" on="1"/>
        <pt x="1338" y="0" on="1"/>
        <pt x="1101" y="0" on="1"/>
        <pt x="971" y="208" on="1"/>
        <pt x="885" y="208" on="1"/>
        <pt x="885" y="0" on="1"/>
        <pt x="672" y="0" on="1"/>
      </contour>
    </TTGlyph>
    <TTGlyph name="F_L.sc" xMin="59" yMin="0" xMax="1163" yMax="577">
      <contour>
        <pt x="672" y="577" on="1"/>
        <pt x="885" y="577" on="1"/>
        <pt x="885" y="161" on="1"/>
        <pt x="1163" y="161" on="1"/>
        <pt x="1163" y="0" on="1"/>
        <pt x="672" y="0" on="1"/>
      </contour>
      <contour>
        <pt x="59" y="577" on="1"/>
        <pt x="595" y="577" on="1"/>
        <pt x="595" y="417" on="1"/>
        <pt x="272" y="417" on="1"/>
        <pt x="272" y="333" on="1"/>
        <pt x="560" y="333" on="1"/>
        <pt x="560" y="187" on="1"/>
        <pt x="272" y="187" on="1"/>
        <pt x="272" y="0" on="1"/>
        <pt x="59" y="0" on="1"/>
      </contour>
    </TTGlyph>
    <TTGlyph name="F_T.sc" xMin="59" yMin="0" xMax="1184" yMax="577">
      <contour>
        <pt x="789" y="416" on="1"/>
        <pt x="608" y="416" on="1"/>
        <pt x="608" y="577" on="1"/>
        <pt x="1184" y="577" on="1"/>
        <pt x="1184" y="416" on="1"/>
        <pt x="1002" y="416" on="1"/>
        <pt x="1002" y="0" on="1"/>
        <pt x="789" y="0" on="1"/>
      </contour>
      <contour>
        <pt x="59" y="577" on="1"/>
        <pt x="595" y="577" on="1"/>
        <pt x="595" y="417" on="1"/>
        <pt x="272" y="417" on="1"/>
        <pt x="272" y="333" on="1"/>
        <pt x="560" y="333" on="1"/>
        <pt x="560" y="187" on="1"/>
        <pt x="272" y="187" on="1"/>
        <pt x="272" y="0" on="1"/>
        <pt x="59" y="0" on="1"/>
      </contour>
    </TTGlyph>
    <TTGlyph name="G" xMin="30" yMin="-14" xMax="683" yMax="754">
      <contour>
        <pt x="424" y="-14" on="1"/>
        <pt x="223" y="-14" on="0"/>
        <pt x="30" y="174" on="0"/>
        <pt x="30" y="369" on="1"/>
        <pt x="30" y="754" on="0"/>
        <pt x="445" y="754" on="1"/>
        <pt x="502" y="754" on="0"/>
        <pt x="627" y="741" on="0"/>
        <pt x="672" y="730" on="1"/>
        <pt x="672" y="552" on="1"/>
        <pt x="604" y="563" on="0"/>
        <pt x="498" y="572" on="0"/>
        <pt x="463" y="572" on="1"/>
        <pt x="401" y="572" on="0"/>
        <pt x="322" y="556" on="0"/>
        <pt x="278" y="511" on="0"/>
        <pt x="262" y="432" on="0"/>
        <pt x="262" y="369" on="1"/>
        <pt x="262" y="307" on="0"/>
        <pt x="276" y="230" on="0"/>
        <pt x="313" y="185" on="0"/>
        <pt x="380" y="169" on="0"/>
        <pt x="433" y="169" on="1"/>
        <pt x="443" y="169" on="0"/>
        <pt x="466" y="169" on="0"/>
        <pt x="478" y="170" on="1"/>
        <pt x="478" y="376" on="1"/>
        <pt x="683" y="376" on="1"/>
        <pt x="683" y="26" on="1"/>
        <pt x="617" y="9" on="0"/>
        <pt x="477" y="-14" on="0"/>
      </contour>
    </TTGlyph>
    <TTGlyph name="G.sc" xMin="30" yMin="-12" xMax="634" yMax="589">
      <contour>
        <pt x="395" y="-12" on="1"/>
        <pt x="208" y="-12" on="0"/>
        <pt x="30" y="134" on="0"/>
        <pt x="30" y="288" on="1"/>
        <pt x="30" y="440" on="0"/>
        <pt x="218" y="589" on="0"/>
        <pt x="412" y="589" on="1"/>
        <pt x="438" y="589" on="0"/>
        <pt x="495" y="586" on="0"/>
        <pt x="551" y="581" on="0"/>
        <pt x="603" y="574" on="0"/>
        <pt x="624" y="570" on="1"/>
        <pt x="624" y="407" on="1"/>
        <pt x="561" y="412" on="0"/>
        <pt x="461" y="419" on="0"/>
        <pt x="429" y="419" on="1"/>
        <pt x="370" y="419" on="0"/>
        <pt x="299" y="410" on="0"/>
        <pt x="261" y="382" on="0"/>
        <pt x="250" y="331" on="0"/>
        <pt x="250" y="288" on="1"/>
        <pt x="250" y="246" on="0"/>
        <pt x="260" y="195" on="0"/>
        <pt x="292" y="168" on="0"/>
        <pt x="352" y="160" on="0"/>
        <pt x="402" y="160" on="1"/>
        <pt x="439" y="160" on="1"/>
        <pt x="439" y="293" on="1"/>
        <pt x="634" y="293" on="1"/>
        <pt x="634" y="22" on="1"/>
        <pt x="604" y="14" on="0"/>
        <pt x="539" y="2" on="0"/>
        <pt x="476" y="-7" on="0"/>
        <pt x="419" y="-12" on="0"/>
      </contour>
    </TTGlyph>
    <TTGlyph name="Gacute" xMin="30" yMin="-14" xMax="683" yMax="1003">
      <contour>
        <pt x="297" y="813" on="1"/>
        <pt x="360" y="1003" on="1"/>
        <pt x="584" y="1003" on="1"/>
        <pt x="455" y="803" on="1"/>
      </contour>
      <contour>
        <pt x="424" y="-14" on="1"/>
        <pt x="223" y="-14" on="0"/>
        <pt x="30" y="174" on="0"/>
        <pt x="30" y="369" on="1"/>
        <pt x="30" y="754" on="0"/>
        <pt x="445" y="754" on="1"/>
        <pt x="502" y="754" on="0"/>
        <pt x="627" y="741" on="0"/>
        <pt x="672" y="730" on="1"/>
        <pt x="672" y="552" on="1"/>
        <pt x="604" y="563" on="0"/>
        <pt x="498" y="572" on="0"/>
        <pt x="463" y="572" on="1"/>
        <pt x="401" y="572" on="0"/>
        <pt x="322" y="556" on="0"/>
        <pt x="278" y="511" on="0"/>
        <pt x="262" y="432" on="0"/>
        <pt x="262" y="369" on="1"/>
        <pt x="262" y="307" on="0"/>
        <pt x="276" y="230" on="0"/>
        <pt x="313" y="185" on="0"/>
        <pt x="380" y="169" on="0"/>
        <pt x="433" y="169" on="1"/>
        <pt x="443" y="169" on="0"/>
        <pt x="466" y="169" on="0"/>
        <pt x="478" y="170" on="1"/>
        <pt x="478" y="376" on="1"/>
        <pt x="683" y="376" on="1"/>
        <pt x="683" y="26" on="1"/>
        <pt x="617" y="9" on="0"/>
        <pt x="477" y="-14" on="0"/>
      </contour>
    </TTGlyph>
    <TTGlyph name="Gacute.sc" xMin="30" yMin="-12" xMax="634" yMax="798">
      <contour>
        <pt x="395" y="-12" on="1"/>
        <pt x="209" y="-12" on="0"/>
        <pt x="30" y="134" on="0"/>
        <pt x="30" y="288" on="1"/>
        <pt x="30" y="441" on="0"/>
        <pt x="218" y="589" on="0"/>
        <pt x="412" y="589" on="1"/>
        <pt x="438" y="589" on="0"/>
        <pt x="496" y="586" on="0"/>
        <pt x="553" y="581" on="0"/>
        <pt x="604" y="574" on="0"/>
        <pt x="624" y="570" on="1"/>
        <pt x="624" y="404" on="1"/>
        <pt x="561" y="411" on="0"/>
        <pt x="461" y="419" on="0"/>
        <pt x="429" y="419" on="1"/>
        <pt x="372" y="419" on="0"/>
        <pt x="302" y="412" on="0"/>
        <pt x="263" y="385" on="0"/>
        <pt x="250" y="333" on="0"/>
        <pt x="250" y="288" on="1"/>
        <pt x="250" y="244" on="0"/>
        <pt x="261" y="194" on="0"/>
        <pt x="294" y="167" on="0"/>
        <pt x="354" y="160" on="0"/>
        <pt x="402" y="160" on="1"/>
        <pt x="439" y="160" on="1"/>
        <pt x="439" y="293" on="1"/>
        <pt x="634" y="293" on="1"/>
        <pt x="634" y="22" on="1"/>
        <pt x="605" y="15" on="0"/>
        <pt x="541" y="2" on="0"/>
        <pt x="478" y="-7" on="0"/>
        <pt x="419" y="-12" on="0"/>
      </contour>
      <contour>
        <pt x="273" y="637" on="1"/>
        <pt x="329" y="798" on="1"/>
        <pt x="542" y="798" on="1"/>
        <pt x="423" y="628" on="1"/>
      </contour>
    </TTGlyph>
    <TTGlyph name="Gbreve" xMin="30" yMin="-14" xMax="683" yMax="999">
      <contour>
        <pt x="397" y="806" on="1"/>
        <pt x="329" y="806" on="0"/>
        <pt x="238" y="835" on="0"/>
        <pt x="182" y="887" on="0"/>
        <pt x="158" y="958" on="0"/>
        <pt x="158" y="999" on="1"/>
        <pt x="301" y="999" on="1"/>
        <pt x="301" y="952" on="0"/>
        <pt x="339" y="906" on="0"/>
        <pt x="397" y="906" on="1"/>
        <pt x="426" y="906" on="0"/>
        <pt x="463" y="918" on="0"/>
        <pt x="484" y="941" on="0"/>
        <pt x="492" y="976" on="0"/>
        <pt x="492" y="999" on="1"/>
        <pt x="636" y="999" on="1"/>
        <pt x="636" y="957" on="0"/>
        <pt x="612" y="886" on="0"/>
        <pt x="556" y="835" on="0"/>
        <pt x="464" y="806" on="0"/>
      </contour>
      <contour>
        <pt x="424" y="-14" on="1"/>
        <pt x="223" y="-14" on="0"/>
        <pt x="30" y="174" on="0"/>
        <pt x="30" y="369" on="1"/>
        <pt x="30" y="754" on="0"/>
        <pt x="445" y="754" on="1"/>
        <pt x="502" y="754" on="0"/>
        <pt x="627" y="741" on="0"/>
        <pt x="672" y="730" on="1"/>
        <pt x="672" y="552" on="1"/>
        <pt x="604" y="563" on="0"/>
        <pt x="498" y="572" on="0"/>
        <pt x="463" y="572" on="1"/>
        <pt x="401" y="572" on="0"/>
        <pt x="322" y="556" on="0"/>
        <pt x="278" y="511" on="0"/>
        <pt x="262" y="432" on="0"/>
        <pt x="262" y="369" on="1"/>
        <pt x="262" y="307" on="0"/>
        <pt x="276" y="230" on="0"/>
        <pt x="313" y="185" on="0"/>
        <pt x="380" y="169" on="0"/>
        <pt x="433" y="169" on="1"/>
        <pt x="443" y="169" on="0"/>
        <pt x="466" y="169" on="0"/>
        <pt x="478" y="170" on="1"/>
        <pt x="478" y="376" on="1"/>
        <pt x="683" y="376" on="1"/>
        <pt x="683" y="26" on="1"/>
        <pt x="617" y="9" on="0"/>
        <pt x="477" y="-14" on="0"/>
      </contour>
    </TTGlyph>
    <TTGlyph name="Gbreve.sc" xMin="30" yMin="-12" xMax="634" yMax="790">
      <contour>
        <pt x="395" y="-12" on="1"/>
        <pt x="209" y="-12" on="0"/>
        <pt x="30" y="134" on="0"/>
        <pt x="30" y="288" on="1"/>
        <pt x="30" y="441" on="0"/>
        <pt x="218" y="589" on="0"/>
        <pt x="412" y="589" on="1"/>
        <pt x="438" y="589" on="0"/>
        <pt x="496" y="586" on="0"/>
        <pt x="553" y="581" on="0"/>
        <pt x="604" y="574" on="0"/>
        <pt x="624" y="570" on="1"/>
        <pt x="624" y="404" on="1"/>
        <pt x="561" y="411" on="0"/>
        <pt x="461" y="419" on="0"/>
        <pt x="429" y="419" on="1"/>
        <pt x="372" y="419" on="0"/>
        <pt x="302" y="412" on="0"/>
        <pt x="263" y="385" on="0"/>
        <pt x="250" y="333" on="0"/>
        <pt x="250" y="288" on="1"/>
        <pt x="250" y="244" on="0"/>
        <pt x="261" y="194" on="0"/>
        <pt x="294" y="167" on="0"/>
        <pt x="354" y="160" on="0"/>
        <pt x="402" y="160" on="1"/>
        <pt x="439" y="160" on="1"/>
        <pt x="439" y="293" on="1"/>
        <pt x="634" y="293" on="1"/>
        <pt x="634" y="22" on="1"/>
        <pt x="605" y="15" on="0"/>
        <pt x="541" y="2" on="0"/>
        <pt x="478" y="-7" on="0"/>
        <pt x="419" y="-12" on="0"/>
      </contour>
      <contour>
        <pt x="368" y="628" on="1"/>
        <pt x="304" y="628" on="0"/>
        <pt x="218" y="654" on="0"/>
        <pt x="167" y="698" on="0"/>
        <pt x="145" y="757" on="0"/>
        <pt x="145" y="790" on="1"/>
        <pt x="280" y="790" on="1"/>
        <pt x="280" y="755" on="0"/>
        <pt x="315" y="719" on="0"/>
        <pt x="368" y="719" on="1"/>
        <pt x="422" y="719" on="0"/>
        <pt x="455" y="755" on="0"/>
        <pt x="455" y="790" on="1"/>
        <pt x="591" y="790" on="1"/>
        <pt x="591" y="755" on="0"/>
        <pt x="569" y="696" on="0"/>
        <pt x="517" y="653" on="0"/>
        <pt x="432" y="628" on="0"/>
      </contour>
    </TTGlyph>
    <TTGlyph name="Gcircumflex" xMin="30" yMin="-14" xMax="683" yMax="1016">
      <contour>
        <pt x="424" y="-14" on="1"/>
        <pt x="223" y="-14" on="0"/>
        <pt x="30" y="174" on="0"/>
        <pt x="30" y="369" on="1"/>
        <pt x="30" y="754" on="0"/>
        <pt x="445" y="754" on="1"/>
        <pt x="502" y="754" on="0"/>
        <pt x="627" y="741" on="0"/>
        <pt x="672" y="730" on="1"/>
        <pt x="672" y="552" on="1"/>
        <pt x="604" y="563" on="0"/>
        <pt x="498" y="572" on="0"/>
        <pt x="463" y="572" on="1"/>
        <pt x="401" y="572" on="0"/>
        <pt x="322" y="556" on="0"/>
        <pt x="278" y="511" on="0"/>
        <pt x="262" y="432" on="0"/>
        <pt x="262" y="369" on="1"/>
        <pt x="262" y="307" on="0"/>
        <pt x="276" y="230" on="0"/>
        <pt x="313" y="185" on="0"/>
        <pt x="380" y="169" on="0"/>
        <pt x="433" y="169" on="1"/>
        <pt x="443" y="169" on="0"/>
        <pt x="466" y="169" on="0"/>
        <pt x="478" y="170" on="1"/>
        <pt x="478" y="376" on="1"/>
        <pt x="683" y="376" on="1"/>
        <pt x="683" y="26" on="1"/>
        <pt x="617" y="9" on="0"/>
        <pt x="477" y="-14" on="0"/>
      </contour>
      <contour>
        <pt x="164" y="936" on="1"/>
        <pt x="381" y="1016" on="1"/>
        <pt x="602" y="936" on="1"/>
        <pt x="602" y="794" on="1"/>
        <pt x="383" y="873" on="1"/>
        <pt x="164" y="794" on="1"/>
      </contour>
    </TTGlyph>
    <TTGlyph name="Gcircumflex.sc" xMin="30" yMin="-12" xMax="634" yMax="811">
      <contour>
        <pt x="395" y="-12" on="1"/>
        <pt x="209" y="-12" on="0"/>
        <pt x="30" y="134" on="0"/>
        <pt x="30" y="288" on="1"/>
        <pt x="30" y="441" on="0"/>
        <pt x="218" y="589" on="0"/>
        <pt x="412" y="589" on="1"/>
        <pt x="438" y="589" on="0"/>
        <pt x="496" y="586" on="0"/>
        <pt x="553" y="581" on="0"/>
        <pt x="604" y="574" on="0"/>
        <pt x="624" y="570" on="1"/>
        <pt x="624" y="404" on="1"/>
        <pt x="561" y="411" on="0"/>
        <pt x="461" y="419" on="0"/>
        <pt x="429" y="419" on="1"/>
        <pt x="372" y="419" on="0"/>
        <pt x="302" y="412" on="0"/>
        <pt x="263" y="385" on="0"/>
        <pt x="250" y="333" on="0"/>
        <pt x="250" y="288" on="1"/>
        <pt x="250" y="244" on="0"/>
        <pt x="261" y="194" on="0"/>
        <pt x="294" y="167" on="0"/>
        <pt x="354" y="160" on="0"/>
        <pt x="402" y="160" on="1"/>
        <pt x="439" y="160" on="1"/>
        <pt x="439" y="293" on="1"/>
        <pt x="634" y="293" on="1"/>
        <pt x="634" y="22" on="1"/>
        <pt x="605" y="15" on="0"/>
        <pt x="541" y="2" on="0"/>
        <pt x="478" y="-7" on="0"/>
        <pt x="419" y="-12" on="0"/>
      </contour>
      <contour>
        <pt x="151" y="747" on="1"/>
        <pt x="353" y="811" on="1"/>
        <pt x="559" y="747" on="1"/>
        <pt x="559" y="616" on="1"/>
        <pt x="355" y="679" on="1"/>
        <pt x="151" y="616" on="1"/>
      </contour>
    </TTGlyph>
    <TTGlyph name="Gcommaaccent" xMin="30" yMin="-220" xMax="683" yMax="754">
      <contour>
        <pt x="279" y="-70" on="1"/>
        <pt x="504" y="-70" on="1"/>
        <pt x="403" y="-220" on="1"/>
        <pt x="239" y="-220" on="1"/>
      </contour>
      <contour>
        <pt x="424" y="-14" on="1"/>
        <pt x="223" y="-14" on="0"/>
        <pt x="30" y="174" on="0"/>
        <pt x="30" y="369" on="1"/>
        <pt x="30" y="754" on="0"/>
        <pt x="445" y="754" on="1"/>
        <pt x="502" y="754" on="0"/>
        <pt x="627" y="741" on="0"/>
        <pt x="672" y="730" on="1"/>
        <pt x="672" y="552" on="1"/>
        <pt x="604" y="563" on="0"/>
        <pt x="498" y="572" on="0"/>
        <pt x="463" y="572" on="1"/>
        <pt x="401" y="572" on="0"/>
        <pt x="322" y="556" on="0"/>
        <pt x="278" y="511" on="0"/>
        <pt x="262" y="432" on="0"/>
        <pt x="262" y="369" on="1"/>
        <pt x="262" y="307" on="0"/>
        <pt x="276" y="230" on="0"/>
        <pt x="313" y="185" on="0"/>
        <pt x="380" y="169" on="0"/>
        <pt x="433" y="169" on="1"/>
        <pt x="443" y="169" on="0"/>
        <pt x="466" y="169" on="0"/>
        <pt x="478" y="170" on="1"/>
        <pt x="478" y="376" on="1"/>
        <pt x="683" y="376" on="1"/>
        <pt x="683" y="26" on="1"/>
        <pt x="617" y="9" on="0"/>
        <pt x="477" y="-14" on="0"/>
      </contour>
    </TTGlyph>
    <TTGlyph name="Gcommaaccent.sc" xMin="30" yMin="-172" xMax="634" yMax="589">
      <contour>
        <pt x="395" y="-12" on="1"/>
        <pt x="209" y="-12" on="0"/>
        <pt x="30" y="134" on="0"/>
        <pt x="30" y="288" on="1"/>
        <pt x="30" y="441" on="0"/>
        <pt x="218" y="589" on="0"/>
        <pt x="412" y="589" on="1"/>
        <pt x="438" y="589" on="0"/>
        <pt x="496" y="586" on="0"/>
        <pt x="553" y="581" on="0"/>
        <pt x="604" y="574" on="0"/>
        <pt x="624" y="570" on="1"/>
        <pt x="624" y="404" on="1"/>
        <pt x="561" y="411" on="0"/>
        <pt x="461" y="419" on="0"/>
        <pt x="429" y="419" on="1"/>
        <pt x="372" y="419" on="0"/>
        <pt x="302" y="412" on="0"/>
        <pt x="263" y="385" on="0"/>
        <pt x="250" y="333" on="0"/>
        <pt x="250" y="288" on="1"/>
        <pt x="250" y="244" on="0"/>
        <pt x="261" y="194" on="0"/>
        <pt x="294" y="167" on="0"/>
        <pt x="354" y="160" on="0"/>
        <pt x="402" y="160" on="1"/>
        <pt x="439" y="160" on="1"/>
        <pt x="439" y="293" on="1"/>
        <pt x="634" y="293" on="1"/>
        <pt x="634" y="22" on="1"/>
        <pt x="605" y="15" on="0"/>
        <pt x="541" y="2" on="0"/>
        <pt x="478" y="-7" on="0"/>
        <pt x="419" y="-12" on="0"/>
      </contour>
      <contour>
        <pt x="255" y="-55" on="1"/>
        <pt x="468" y="-55" on="1"/>
        <pt x="375" y="-172" on="1"/>
        <pt x="220" y="-172" on="1"/>
      </contour>
    </TTGlyph>
    <TTGlyph name="Gdotaccent" xMin="30" yMin="-14" xMax="683" yMax="1022">
      <contour>
        <pt x="400" y="795" on="1"/>
        <pt x="337" y="795" on="0"/>
        <pt x="283" y="849" on="0"/>
        <pt x="283" y="909" on="1"/>
        <pt x="283" y="969" on="0"/>
        <pt x="337" y="1022" on="0"/>
        <pt x="400" y="1022" on="1"/>
        <pt x="464" y="1022" on="0"/>
        <pt x="516" y="966" on="0"/>
        <pt x="516" y="909" on="1"/>
        <pt x="516" y="851" on="0"/>
        <pt x="464" y="795" on="0"/>
      </contour>
      <contour>
        <pt x="424" y="-14" on="1"/>
        <pt x="223" y="-14" on="0"/>
        <pt x="30" y="174" on="0"/>
        <pt x="30" y="369" on="1"/>
        <pt x="30" y="754" on="0"/>
        <pt x="445" y="754" on="1"/>
        <pt x="502" y="754" on="0"/>
        <pt x="627" y="741" on="0"/>
        <pt x="672" y="730" on="1"/>
        <pt x="672" y="552" on="1"/>
        <pt x="604" y="563" on="0"/>
        <pt x="498" y="572" on="0"/>
        <pt x="463" y="572" on="1"/>
        <pt x="401" y="572" on="0"/>
        <pt x="322" y="556" on="0"/>
        <pt x="278" y="511" on="0"/>
        <pt x="262" y="432" on="0"/>
        <pt x="262" y="369" on="1"/>
        <pt x="262" y="307" on="0"/>
        <pt x="276" y="230" on="0"/>
        <pt x="313" y="185" on="0"/>
        <pt x="380" y="169" on="0"/>
        <pt x="433" y="169" on="1"/>
        <pt x="443" y="169" on="0"/>
        <pt x="466" y="169" on="0"/>
        <pt x="478" y="170" on="1"/>
        <pt x="478" y="376" on="1"/>
        <pt x="683" y="376" on="1"/>
        <pt x="683" y="26" on="1"/>
        <pt x="617" y="9" on="0"/>
        <pt x="477" y="-14" on="0"/>
      </contour>
    </TTGlyph>
    <TTGlyph name="Gdotaccent.sc" xMin="30" yMin="-12" xMax="634" yMax="824">
      <contour>
        <pt x="395" y="-12" on="1"/>
        <pt x="209" y="-12" on="0"/>
        <pt x="30" y="134" on="0"/>
        <pt x="30" y="288" on="1"/>
        <pt x="30" y="441" on="0"/>
        <pt x="218" y="589" on="0"/>
        <pt x="412" y="589" on="1"/>
        <pt x="438" y="589" on="0"/>
        <pt x="496" y="586" on="0"/>
        <pt x="553" y="581" on="0"/>
        <pt x="604" y="574" on="0"/>
        <pt x="624" y="570" on="1"/>
        <pt x="624" y="404" on="1"/>
        <pt x="561" y="411" on="0"/>
        <pt x="461" y="419" on="0"/>
        <pt x="429" y="419" on="1"/>
        <pt x="372" y="419" on="0"/>
        <pt x="302" y="412" on="0"/>
        <pt x="263" y="385" on="0"/>
        <pt x="250" y="333" on="0"/>
        <pt x="250" y="288" on="1"/>
        <pt x="250" y="244" on="0"/>
        <pt x="261" y="194" on="0"/>
        <pt x="294" y="167" on="0"/>
        <pt x="354" y="160" on="0"/>
        <pt x="402" y="160" on="1"/>
        <pt x="439" y="160" on="1"/>
        <pt x="439" y="293" on="1"/>
        <pt x="634" y="293" on="1"/>
        <pt x="634" y="22" on="1"/>
        <pt x="605" y="15" on="0"/>
        <pt x="541" y="2" on="0"/>
        <pt x="478" y="-7" on="0"/>
        <pt x="419" y="-12" on="0"/>
      </contour>
      <contour>
        <pt x="371" y="615" on="1"/>
        <pt x="311" y="615" on="0"/>
        <pt x="261" y="664" on="0"/>
        <pt x="261" y="720" on="1"/>
        <pt x="261" y="774" on="0"/>
        <pt x="311" y="824" on="0"/>
        <pt x="371" y="824" on="1"/>
        <pt x="433" y="824" on="0"/>
        <pt x="481" y="773" on="0"/>
        <pt x="481" y="720" on="1"/>
        <pt x="481" y="666" on="0"/>
        <pt x="433" y="615" on="0"/>
      </contour>
    </TTGlyph>
    <TTGlyph name="H" xMin="61" yMin="0" xMax="785" yMax="740">
      <contour>
        <pt x="61" y="740" on="1"/>
        <pt x="286" y="740" on="1"/>
        <pt x="286" y="466" on="1"/>
        <pt x="560" y="466" on="1"/>
        <pt x="560" y="740" on="1"/>
        <pt x="785" y="740" on="1"/>
        <pt x="785" y="0" on="1"/>
        <pt x="560" y="0" on="1"/>
        <pt x="560" y="293" on="1"/>
        <pt x="286" y="293" on="1"/>
        <pt x="286" y="0" on="1"/>
        <pt x="61" y="0" on="1"/>
      </contour>
    </TTGlyph>
    <TTGlyph name="H.sc" xMin="59" yMin="0" xMax="729" yMax="577">
      <contour>
        <pt x="59" y="577" on="1"/>
        <pt x="272" y="577" on="1"/>
        <pt x="272" y="377" on="1"/>
        <pt x="516" y="377" on="1"/>
        <pt x="516" y="577" on="1"/>
        <pt x="729" y="577" on="1"/>
        <pt x="729" y="0" on="1"/>
        <pt x="516" y="0" on="1"/>
        <pt x="516" y="216" on="1"/>
        <pt x="272" y="216" on="1"/>
        <pt x="272" y="0" on="1"/>
        <pt x="59" y="0" on="1"/>
      </contour>
    </TTGlyph>
    <TTGlyph name="Hbar" xMin="5" yMin="0" xMax="862" yMax="740">
      <contour>
        <pt x="5" y="634" on="1"/>
        <pt x="69" y="634" on="1"/>
        <pt x="69" y="740" on="1"/>
        <pt x="294" y="740" on="1"/>
        <pt x="294" y="634" on="1"/>
        <pt x="568" y="634" on="1"/>
        <pt x="568" y="740" on="1"/>
        <pt x="793" y="740" on="1"/>
        <pt x="793" y="634" on="1"/>
        <pt x="862" y="634" on="1"/>
        <pt x="862" y="535" on="1"/>
        <pt x="793" y="535" on="1"/>
        <pt x="793" y="0" on="1"/>
        <pt x="568" y="0" on="1"/>
        <pt x="568" y="293" on="1"/>
        <pt x="294" y="293" on="1"/>
        <pt x="294" y="0" on="1"/>
        <pt x="69" y="0" on="1"/>
        <pt x="69" y="535" on="1"/>
        <pt x="5" y="535" on="1"/>
      </contour>
      <contour>
        <pt x="568" y="466" on="1"/>
        <pt x="568" y="535" on="1"/>
        <pt x="294" y="535" on="1"/>
        <pt x="294" y="466" on="1"/>
      </contour>
    </TTGlyph>
    <TTGlyph name="Hbar.sc" xMin="11" yMin="0" xMax="797" yMax="577">
      <contour>
        <pt x="11" y="505" on="1"/>
        <pt x="67" y="505" on="1"/>
        <pt x="67" y="577" on="1"/>
        <pt x="280" y="577" on="1"/>
        <pt x="280" y="505" on="1"/>
        <pt x="523" y="505" on="1"/>
        <pt x="523" y="577" on="1"/>
        <pt x="736" y="577" on="1"/>
        <pt x="736" y="505" on="1"/>
        <pt x="797" y="505" on="1"/>
        <pt x="797" y="414" on="1"/>
        <pt x="736" y="414" on="1"/>
        <pt x="736" y="0" on="1"/>
        <pt x="523" y="0" on="1"/>
        <pt x="523" y="201" on="1"/>
        <pt x="280" y="201" on="1"/>
        <pt x="280" y="0" on="1"/>
        <pt x="67" y="0" on="1"/>
        <pt x="67" y="414" on="1"/>
        <pt x="11" y="414" on="1"/>
      </contour>
      <contour>
        <pt x="523" y="362" on="1"/>
        <pt x="523" y="414" on="1"/>
        <pt x="280" y="414" on="1"/>
        <pt x="280" y="362" on="1"/>
      </contour>
    </TTGlyph>
    <TTGlyph name="Hcircumflex" xMin="61" yMin="0" xMax="785" yMax="1016">
      <contour>
        <pt x="61" y="740" on="1"/>
        <pt x="286" y="740" on="1"/>
        <pt x="286" y="466" on="1"/>
        <pt x="560" y="466" on="1"/>
        <pt x="560" y="740" on="1"/>
        <pt x="785" y="740" on="1"/>
        <pt x="785" y="0" on="1"/>
        <pt x="560" y="0" on="1"/>
        <pt x="560" y="293" on="1"/>
        <pt x="286" y="293" on="1"/>
        <pt x="286" y="0" on="1"/>
        <pt x="61" y="0" on="1"/>
      </contour>
      <contour>
        <pt x="205" y="936" on="1"/>
        <pt x="422" y="1016" on="1"/>
        <pt x="643" y="936" on="1"/>
        <pt x="643" y="794" on="1"/>
        <pt x="424" y="873" on="1"/>
        <pt x="205" y="794" on="1"/>
      </contour>
    </TTGlyph>
    <TTGlyph name="Hcircumflex.sc" xMin="59" yMin="0" xMax="729" yMax="811">
      <contour>
        <pt x="59" y="577" on="1"/>
        <pt x="272" y="577" on="1"/>
        <pt x="272" y="377" on="1"/>
        <pt x="516" y="377" on="1"/>
        <pt x="516" y="577" on="1"/>
        <pt x="729" y="577" on="1"/>
        <pt x="729" y="0" on="1"/>
        <pt x="516" y="0" on="1"/>
        <pt x="516" y="216" on="1"/>
        <pt x="272" y="216" on="1"/>
        <pt x="272" y="0" on="1"/>
        <pt x="59" y="0" on="1"/>
      </contour>
      <contour>
        <pt x="192" y="747" on="1"/>
        <pt x="394" y="811" on="1"/>
        <pt x="600" y="747" on="1"/>
        <pt x="600" y="616" on="1"/>
        <pt x="396" y="679" on="1"/>
        <pt x="192" y="616" on="1"/>
      </contour>
    </TTGlyph>
    <TTGlyph name="Hdotbelow" xMin="61" yMin="-220" xMax="785" yMax="740">
      <contour>
        <pt x="61" y="740" on="1"/>
        <pt x="286" y="740" on="1"/>
        <pt x="286" y="466" on="1"/>
        <pt x="560" y="466" on="1"/>
        <pt x="560" y="740" on="1"/>
        <pt x="785" y="740" on="1"/>
        <pt x="785" y="0" on="1"/>
        <pt x="560" y="0" on="1"/>
        <pt x="560" y="293" on="1"/>
        <pt x="286" y="293" on="1"/>
        <pt x="286" y="0" on="1"/>
        <pt x="61" y="0" on="1"/>
      </contour>
      <contour>
        <pt x="420" y="-220" on="1"/>
        <pt x="372" y="-220" on="0"/>
        <pt x="332" y="-181" on="0"/>
        <pt x="332" y="-136" on="1"/>
        <pt x="332" y="-91" on="0"/>
        <pt x="372" y="-51" on="0"/>
        <pt x="420" y="-51" on="1"/>
        <pt x="470" y="-51" on="0"/>
        <pt x="509" y="-92" on="0"/>
        <pt x="509" y="-136" on="1"/>
        <pt x="509" y="-179" on="0"/>
        <pt x="470" y="-220" on="0"/>
      </contour>
    </TTGlyph>
    <TTGlyph name="Hdotbelow.sc" xMin="59" yMin="-181" xMax="729" yMax="577">
      <contour>
        <pt x="59" y="577" on="1"/>
        <pt x="272" y="577" on="1"/>
        <pt x="272" y="377" on="1"/>
        <pt x="516" y="377" on="1"/>
        <pt x="516" y="577" on="1"/>
        <pt x="729" y="577" on="1"/>
        <pt x="729" y="0" on="1"/>
        <pt x="516" y="0" on="1"/>
        <pt x="516" y="216" on="1"/>
        <pt x="272" y="216" on="1"/>
        <pt x="272" y="0" on="1"/>
        <pt x="59" y="0" on="1"/>
      </contour>
      <contour>
        <pt x="391" y="-181" on="1"/>
        <pt x="346" y="-181" on="0"/>
        <pt x="309" y="-145" on="0"/>
        <pt x="309" y="-106" on="1"/>
        <pt x="309" y="-66" on="0"/>
        <pt x="346" y="-30" on="0"/>
        <pt x="391" y="-30" on="1"/>
        <pt x="438" y="-30" on="0"/>
        <pt x="473" y="-68" on="0"/>
        <pt x="473" y="-106" on="1"/>
        <pt x="473" y="-144" on="0"/>
        <pt x="438" y="-181" on="0"/>
      </contour>
    </TTGlyph>
    <TTGlyph name="I" xMin="61" yMin="0" xMax="286" yMax="740">
      <contour>
        <pt x="61" y="740" on="1"/>
        <pt x="286" y="740" on="1"/>
        <pt x="286" y="0" on="1"/>
        <pt x="61" y="0" on="1"/>
      </contour>
    </TTGlyph>
    <TTGlyph name="I.sc" xMin="59" yMin="0" xMax="272" yMax="577">
      <contour>
        <pt x="59" y="577" on="1"/>
        <pt x="272" y="577" on="1"/>
        <pt x="272" y="0" on="1"/>
        <pt x="59" y="0" on="1"/>
      </contour>
    </TTGlyph>
    <TTGlyph name="IJ" xMin="61" yMin="-219" xMax="637" yMax="740">
      <contour>
        <pt x="61" y="740" on="1"/>
        <pt x="286" y="740" on="1"/>
        <pt x="286" y="0" on="1"/>
        <pt x="61" y="0" on="1"/>
      </contour>
      <contour>
        <pt x="336" y="-157" on="1"/>
        <pt x="358" y="-107" on="0"/>
        <pt x="387" y="-21" on="0"/>
        <pt x="404" y="62" on="0"/>
        <pt x="411" y="149" on="0"/>
        <pt x="411" y="201" on="1"/>
        <pt x="411" y="740" on="1"/>
        <pt x="637" y="740" on="1"/>
        <pt x="637" y="183" on="1"/>
        <pt x="637" y="130" on="0"/>
        <pt x="621" y="35" on="0"/>
        <pt x="583" y="-59" on="0"/>
        <pt x="523" y="-160" on="0"/>
        <pt x="479" y="-219" on="1"/>
      </contour>
    </TTGlyph>
    <TTGlyph name="Iacute" xMin="61" yMin="0" xMax="377" yMax="1003">
      <contour>
        <pt x="61" y="740" on="1"/>
        <pt x="286" y="740" on="1"/>
        <pt x="286" y="0" on="1"/>
        <pt x="61" y="0" on="1"/>
      </contour>
      <contour>
        <pt x="90" y="813" on="1"/>
        <pt x="153" y="1003" on="1"/>
        <pt x="377" y="1003" on="1"/>
        <pt x="248" y="803" on="1"/>
      </contour>
    </TTGlyph>
    <TTGlyph name="Iacute.sc" xMin="59" yMin="0" xMax="356" yMax="798">
      <contour>
        <pt x="59" y="577" on="1"/>
        <pt x="272" y="577" on="1"/>
        <pt x="272" y="0" on="1"/>
        <pt x="59" y="0" on="1"/>
      </contour>
      <contour>
        <pt x="87" y="637" on="1"/>
        <pt x="143" y="798" on="1"/>
        <pt x="356" y="798" on="1"/>
        <pt x="236" y="628" on="1"/>
      </contour>
    </TTGlyph>
    <TTGlyph name="Ibreve" xMin="-65" yMin="0" xMax="413" yMax="999">
      <contour>
        <pt x="61" y="740" on="1"/>
        <pt x="286" y="740" on="1"/>
        <pt x="286" y="0" on="1"/>
        <pt x="61" y="0" on="1"/>
      </contour>
      <contour>
        <pt x="174" y="806" on="1"/>
        <pt x="106" y="806" on="0"/>
        <pt x="15" y="835" on="0"/>
        <pt x="-41" y="887" on="0"/>
        <pt x="-65" y="958" on="0"/>
        <pt x="-65" y="999" on="1"/>
        <pt x="78" y="999" on="1"/>
        <pt x="78" y="952" on="0"/>
        <pt x="116" y="906" on="0"/>
        <pt x="174" y="906" on="1"/>
        <pt x="203" y="906" on="0"/>
        <pt x="240" y="918" on="0"/>
        <pt x="261" y="941" on="0"/>
        <pt x="269" y="976" on="0"/>
        <pt x="269" y="999" on="1"/>
        <pt x="413" y="999" on="1"/>
        <pt x="413" y="957" on="0"/>
        <pt x="389" y="886" on="0"/>
        <pt x="333" y="835" on="0"/>
        <pt x="241" y="806" on="0"/>
      </contour>
    </TTGlyph>
    <TTGlyph name="Ibreve.sc" xMin="-58" yMin="0" xMax="388" yMax="790">
      <contour>
        <pt x="59" y="577" on="1"/>
        <pt x="272" y="577" on="1"/>
        <pt x="272" y="0" on="1"/>
        <pt x="59" y="0" on="1"/>
      </contour>
      <contour>
        <pt x="166" y="628" on="1"/>
        <pt x="102" y="628" on="0"/>
        <pt x="16" y="654" on="0"/>
        <pt x="-36" y="698" on="0"/>
        <pt x="-58" y="757" on="0"/>
        <pt x="-58" y="790" on="1"/>
        <pt x="78" y="790" on="1"/>
        <pt x="78" y="755" on="0"/>
        <pt x="112" y="719" on="0"/>
        <pt x="166" y="719" on="1"/>
        <pt x="220" y="719" on="0"/>
        <pt x="253" y="755" on="0"/>
        <pt x="253" y="790" on="1"/>
        <pt x="388" y="790" on="1"/>
        <pt x="388" y="755" on="0"/>
        <pt x="366" y="696" on="0"/>
        <pt x="315" y="653" on="0"/>
        <pt x="229" y="628" on="0"/>
      </contour>
    </TTGlyph>
    <TTGlyph name="Icircumflex" xMin="-43" yMin="0" xMax="395" yMax="1016">
      <contour>
        <pt x="61" y="740" on="1"/>
        <pt x="286" y="740" on="1"/>
        <pt x="286" y="0" on="1"/>
        <pt x="61" y="0" on="1"/>
      </contour>
      <contour>
        <pt x="-43" y="936" on="1"/>
        <pt x="174" y="1016" on="1"/>
        <pt x="395" y="936" on="1"/>
        <pt x="395" y="794" on="1"/>
        <pt x="176" y="873" on="1"/>
        <pt x="-43" y="794" on="1"/>
      </contour>
    </TTGlyph>
    <TTGlyph name="Icircumflex.sc" xMin="-36" yMin="0" xMax="373" yMax="811">
      <contour>
        <pt x="59" y="577" on="1"/>
        <pt x="272" y="577" on="1"/>
        <pt x="272" y="0" on="1"/>
        <pt x="59" y="0" on="1"/>
      </contour>
      <contour>
        <pt x="-36" y="747" on="1"/>
        <pt x="167" y="811" on="1"/>
        <pt x="373" y="747" on="1"/>
        <pt x="373" y="616" on="1"/>
        <pt x="169" y="679" on="1"/>
        <pt x="-36" y="616" on="1"/>
      </contour>
    </TTGlyph>
    <TTGlyph name="Idblgrave" xMin="-132" yMin="0" xMax="382" yMax="1003">
      <contour>
        <pt x="61" y="740" on="1"/>
        <pt x="286" y="740" on="1"/>
        <pt x="286" y="0" on="1"/>
        <pt x="61" y="0" on="1"/>
      </contour>
      <contour>
        <pt x="-1" y="803" on="1"/>
        <pt x="-132" y="1003" on="1"/>
        <pt x="81" y="1003" on="1"/>
        <pt x="143" y="813" on="1"/>
      </contour>
      <contour>
        <pt x="238" y="803" on="1"/>
        <pt x="107" y="1003" on="1"/>
        <pt x="319" y="1003" on="1"/>
        <pt x="382" y="813" on="1"/>
      </contour>
    </TTGlyph>
    <TTGlyph name="Idblgrave.sc" xMin="-119" yMin="0" xMax="363" yMax="800">
      <contour>
        <pt x="59" y="577" on="1"/>
        <pt x="272" y="577" on="1"/>
        <pt x="272" y="0" on="1"/>
        <pt x="59" y="0" on="1"/>
      </contour>
      <contour>
        <pt x="1" y="629" on="1"/>
        <pt x="-119" y="800" on="1"/>
        <pt x="84" y="800" on="1"/>
        <pt x="139" y="636" on="1"/>
      </contour>
      <contour>
        <pt x="224" y="629" on="1"/>
        <pt x="104" y="800" on="1"/>
        <pt x="307" y="800" on="1"/>
        <pt x="363" y="636" on="1"/>
      </contour>
    </TTGlyph>
    <TTGlyph name="Idieresis" xMin="-93" yMin="0" xMax="447" yMax="1022">
      <contour>
        <pt x="61" y="740" on="1"/>
        <pt x="286" y="740" on="1"/>
        <pt x="286" y="0" on="1"/>
        <pt x="61" y="0" on="1"/>
      </contour>
      <contour>
        <pt x="24" y="795" on="1"/>
        <pt x="-39" y="795" on="0"/>
        <pt x="-93" y="849" on="0"/>
        <pt x="-93" y="909" on="1"/>
        <pt x="-93" y="969" on="0"/>
        <pt x="-39" y="1022" on="0"/>
        <pt x="24" y="1022" on="1"/>
        <pt x="88" y="1022" on="0"/>
        <pt x="140" y="966" on="0"/>
        <pt x="140" y="909" on="1"/>
        <pt x="140" y="851" on="0"/>
        <pt x="88" y="795" on="0"/>
      </contour>
      <contour>
        <pt x="331" y="795" on="1"/>
        <pt x="267" y="795" on="0"/>
        <pt x="214" y="849" on="0"/>
        <pt x="214" y="909" on="1"/>
        <pt x="214" y="969" on="0"/>
        <pt x="267" y="1022" on="0"/>
        <pt x="331" y="1022" on="1"/>
        <pt x="395" y="1022" on="0"/>
        <pt x="447" y="966" on="0"/>
        <pt x="447" y="909" on="1"/>
        <pt x="447" y="851" on="0"/>
        <pt x="395" y="795" on="0"/>
      </contour>
    </TTGlyph>
    <TTGlyph name="Idieresis.sc" xMin="-82" yMin="0" xMax="420" yMax="823">
      <contour>
        <pt x="59" y="577" on="1"/>
        <pt x="272" y="577" on="1"/>
        <pt x="272" y="0" on="1"/>
        <pt x="59" y="0" on="1"/>
      </contour>
      <contour>
        <pt x="28" y="614" on="1"/>
        <pt x="-32" y="614" on="0"/>
        <pt x="-82" y="663" on="0"/>
        <pt x="-82" y="719" on="1"/>
        <pt x="-82" y="773" on="0"/>
        <pt x="-32" y="823" on="0"/>
        <pt x="28" y="823" on="1"/>
        <pt x="90" y="823" on="0"/>
        <pt x="138" y="772" on="0"/>
        <pt x="138" y="719" on="1"/>
        <pt x="138" y="665" on="0"/>
        <pt x="90" y="614" on="0"/>
      </contour>
      <contour>
        <pt x="311" y="614" on="1"/>
        <pt x="251" y="614" on="0"/>
        <pt x="201" y="663" on="0"/>
        <pt x="201" y="719" on="1"/>
        <pt x="201" y="773" on="0"/>
        <pt x="251" y="823" on="0"/>
        <pt x="311" y="823" on="1"/>
        <pt x="371" y="823" on="0"/>
        <pt x="420" y="772" on="0"/>
        <pt x="420" y="719" on="1"/>
        <pt x="420" y="665" on="0"/>
        <pt x="371" y="614" on="0"/>
      </contour>
    </TTGlyph>
    <TTGlyph name="Idotaccent" xMin="58" yMin="0" xMax="291" yMax="1022">
      <contour>
        <pt x="61" y="740" on="1"/>
        <pt x="286" y="740" on="1"/>
        <pt x="286" y="0" on="1"/>
        <pt x="61" y="0" on="1"/>
      </contour>
      <contour>
        <pt x="175" y="795" on="1"/>
        <pt x="112" y="795" on="0"/>
        <pt x="58" y="849" on="0"/>
        <pt x="58" y="909" on="1"/>
        <pt x="58" y="969" on="0"/>
        <pt x="112" y="1022" on="0"/>
        <pt x="175" y="1022" on="1"/>
        <pt x="239" y="1022" on="0"/>
        <pt x="291" y="966" on="0"/>
        <pt x="291" y="909" on="1"/>
        <pt x="291" y="851" on="0"/>
        <pt x="239" y="795" on="0"/>
      </contour>
    </TTGlyph>
    <TTGlyph name="Idotaccent.sc" xMin="57" yMin="0" xMax="277" yMax="824">
      <contour>
        <pt x="59" y="577" on="1"/>
        <pt x="272" y="577" on="1"/>
        <pt x="272" y="0" on="1"/>
        <pt x="59" y="0" on="1"/>
      </contour>
      <contour>
        <pt x="167" y="615" on="1"/>
        <pt x="107" y="615" on="0"/>
        <pt x="57" y="664" on="0"/>
        <pt x="57" y="720" on="1"/>
        <pt x="57" y="774" on="0"/>
        <pt x="107" y="824" on="0"/>
        <pt x="167" y="824" on="1"/>
        <pt x="228" y="824" on="0"/>
        <pt x="277" y="773" on="0"/>
        <pt x="277" y="720" on="1"/>
        <pt x="277" y="666" on="0"/>
        <pt x="228" y="615" on="0"/>
      </contour>
    </TTGlyph>
    <TTGlyph name="Idotbelow" xMin="61" yMin="-220" xMax="286" yMax="740">
      <contour>
        <pt x="61" y="740" on="1"/>
        <pt x="286" y="740" on="1"/>
        <pt x="286" y="0" on="1"/>
        <pt x="61" y="0" on="1"/>
      </contour>
      <contour>
        <pt x="174" y="-220" on="1"/>
        <pt x="126" y="-220" on="0"/>
        <pt x="86" y="-181" on="0"/>
        <pt x="86" y="-136" on="1"/>
        <pt x="86" y="-91" on="0"/>
        <pt x="126" y="-51" on="0"/>
        <pt x="174" y="-51" on="1"/>
        <pt x="224" y="-51" on="0"/>
        <pt x="263" y="-92" on="0"/>
        <pt x="263" y="-136" on="1"/>
        <pt x="263" y="-179" on="0"/>
        <pt x="224" y="-220" on="0"/>
      </contour>
    </TTGlyph>
    <TTGlyph name="Idotbelow.sc" xMin="59" yMin="-181" xMax="272" yMax="577">
      <contour>
        <pt x="59" y="577" on="1"/>
        <pt x="272" y="577" on="1"/>
        <pt x="272" y="0" on="1"/>
        <pt x="59" y="0" on="1"/>
      </contour>
      <contour>
        <pt x="166" y="-181" on="1"/>
        <pt x="121" y="-181" on="0"/>
        <pt x="84" y="-145" on="0"/>
        <pt x="84" y="-106" on="1"/>
        <pt x="84" y="-66" on="0"/>
        <pt x="121" y="-30" on="0"/>
        <pt x="166" y="-30" on="1"/>
        <pt x="213" y="-30" on="0"/>
        <pt x="249" y="-68" on="0"/>
        <pt x="249" y="-106" on="1"/>
        <pt x="249" y="-144" on="0"/>
        <pt x="213" y="-181" on="0"/>
      </contour>
    </TTGlyph>
    <TTGlyph name="Igrave" xMin="-20" yMin="0" xMax="286" yMax="1003">
      <contour>
        <pt x="61" y="740" on="1"/>
        <pt x="286" y="740" on="1"/>
        <pt x="286" y="0" on="1"/>
        <pt x="61" y="0" on="1"/>
      </contour>
      <contour>
        <pt x="111" y="803" on="1"/>
        <pt x="-20" y="1003" on="1"/>
        <pt x="206" y="1003" on="1"/>
        <pt x="268" y="813" on="1"/>
      </contour>
    </TTGlyph>
    <TTGlyph name="Igrave.sc" xMin="-13" yMin="0" xMax="272" yMax="798">
      <contour>
        <pt x="59" y="577" on="1"/>
        <pt x="272" y="577" on="1"/>
        <pt x="272" y="0" on="1"/>
        <pt x="59" y="0" on="1"/>
      </contour>
      <contour>
        <pt x="108" y="628" on="1"/>
        <pt x="-13" y="798" on="1"/>
        <pt x="201" y="798" on="1"/>
        <pt x="256" y="635" on="1"/>
      </contour>
    </TTGlyph>
    <TTGlyph name="Iinvertedbreve" xMin="-61" yMin="0" xMax="417" yMax="1009">
      <contour>
        <pt x="61" y="740" on="1"/>
        <pt x="286" y="740" on="1"/>
        <pt x="286" y="0" on="1"/>
        <pt x="61" y="0" on="1"/>
      </contour>
      <contour>
        <pt x="273" y="816" on="1"/>
        <pt x="273" y="839" on="0"/>
        <pt x="265" y="873" on="0"/>
        <pt x="244" y="896" on="0"/>
        <pt x="207" y="908" on="0"/>
        <pt x="178" y="908" on="1"/>
        <pt x="120" y="908" on="0"/>
        <pt x="82" y="862" on="0"/>
        <pt x="82" y="816" on="1"/>
        <pt x="-61" y="816" on="1"/>
        <pt x="-61" y="856" on="0"/>
        <pt x="-37" y="927" on="0"/>
        <pt x="19" y="979" on="0"/>
        <pt x="110" y="1009" on="0"/>
        <pt x="178" y="1009" on="1"/>
        <pt x="245" y="1009" on="0"/>
        <pt x="337" y="980" on="0"/>
        <pt x="393" y="928" on="0"/>
        <pt x="417" y="858" on="0"/>
        <pt x="417" y="816" on="1"/>
      </contour>
    </TTGlyph>
    <TTGlyph name="Iinvertedbreve.sc" xMin="-54" yMin="0" xMax="392" yMax="799">
      <contour>
        <pt x="59" y="577" on="1"/>
        <pt x="272" y="577" on="1"/>
        <pt x="272" y="0" on="1"/>
        <pt x="59" y="0" on="1"/>
      </contour>
      <contour>
        <pt x="257" y="638" on="1"/>
        <pt x="257" y="672" on="0"/>
        <pt x="224" y="707" on="0"/>
        <pt x="170" y="707" on="1"/>
        <pt x="116" y="707" on="0"/>
        <pt x="82" y="672" on="0"/>
        <pt x="82" y="638" on="1"/>
        <pt x="-54" y="638" on="1"/>
        <pt x="-54" y="671" on="0"/>
        <pt x="-32" y="730" on="0"/>
        <pt x="20" y="773" on="0"/>
        <pt x="106" y="799" on="0"/>
        <pt x="170" y="799" on="1"/>
        <pt x="233" y="799" on="0"/>
        <pt x="319" y="774" on="0"/>
        <pt x="370" y="731" on="0"/>
        <pt x="392" y="672" on="0"/>
        <pt x="392" y="638" on="1"/>
      </contour>
    </TTGlyph>
    <TTGlyph name="Imacron" xMin="-38" yMin="0" xMax="397" yMax="983">
      <contour>
        <pt x="61" y="740" on="1"/>
        <pt x="286" y="740" on="1"/>
        <pt x="286" y="0" on="1"/>
        <pt x="61" y="0" on="1"/>
      </contour>
      <contour>
        <pt x="-38" y="983" on="1"/>
        <pt x="397" y="983" on="1"/>
        <pt x="397" y="841" on="1"/>
        <pt x="-38" y="841" on="1"/>
      </contour>
    </TTGlyph>
    <TTGlyph name="Imacron.sc" xMin="-31" yMin="0" xMax="375" yMax="789">
      <contour>
        <pt x="59" y="577" on="1"/>
        <pt x="272" y="577" on="1"/>
        <pt x="272" y="0" on="1"/>
        <pt x="59" y="0" on="1"/>
      </contour>
      <contour>
        <pt x="-31" y="789" on="1"/>
        <pt x="375" y="789" on="1"/>
        <pt x="375" y="656" on="1"/>
        <pt x="-31" y="656" on="1"/>
      </contour>
    </TTGlyph>
    <TTGlyph name="Iogonek" xMin="26" yMin="-220" xMax="288" yMax="740">
      <contour>
        <pt x="61" y="740" on="1"/>
        <pt x="286" y="740" on="1"/>
        <pt x="286" y="-5" on="1"/>
        <pt x="251" y="-19" on="0"/>
        <pt x="204" y="-41" on="0"/>
        <pt x="176" y="-61" on="0"/>
        <pt x="164" y="-79" on="0"/>
        <pt x="164" y="-88" on="1"/>
        <pt x="164" y="-107" on="0"/>
        <pt x="193" y="-107" on="1"/>
        <pt x="207" y="-107" on="0"/>
        <pt x="263" y="-97" on="0"/>
        <pt x="288" y="-91" on="1"/>
        <pt x="288" y="-208" on="1"/>
        <pt x="265" y="-214" on="0"/>
        <pt x="217" y="-220" on="0"/>
        <pt x="190" y="-220" on="1"/>
        <pt x="112" y="-220" on="0"/>
        <pt x="26" y="-169" on="0"/>
        <pt x="26" y="-122" on="1"/>
        <pt x="26" y="-90" on="0"/>
        <pt x="69" y="-23" on="0"/>
        <pt x="106" y="0" on="1"/>
        <pt x="61" y="0" on="1"/>
      </contour>
    </TTGlyph>
    <TTGlyph name="Iogonek.sc" xMin="31" yMin="-172" xMax="274" yMax="577">
      <contour>
        <pt x="60" y="577" on="1"/>
        <pt x="273" y="577" on="1"/>
        <pt x="273" y="0" on="1"/>
        <pt x="234" y="-13" on="0"/>
        <pt x="190" y="-32" on="0"/>
        <pt x="167" y="-46" on="0"/>
        <pt x="161" y="-54" on="0"/>
        <pt x="161" y="-57" on="1"/>
        <pt x="161" y="-64" on="0"/>
        <pt x="183" y="-64" on="1"/>
        <pt x="190" y="-64" on="0"/>
        <pt x="215" y="-62" on="0"/>
        <pt x="241" y="-59" on="0"/>
        <pt x="266" y="-56" on="0"/>
        <pt x="274" y="-54" on="1"/>
        <pt x="274" y="-162" on="1"/>
        <pt x="251" y="-168" on="0"/>
        <pt x="207" y="-172" on="0"/>
        <pt x="185" y="-172" on="1"/>
        <pt x="111" y="-172" on="0"/>
        <pt x="31" y="-127" on="0"/>
        <pt x="31" y="-90" on="1"/>
        <pt x="31" y="-61" on="0"/>
        <pt x="69" y="-13" on="0"/>
        <pt x="96" y="0" on="1"/>
        <pt x="60" y="0" on="1"/>
      </contour>
    </TTGlyph>
    <TTGlyph name="Itilde" xMin="-75" yMin="0" xMax="435" yMax="1000">
      <contour>
        <pt x="61" y="740" on="1"/>
        <pt x="286" y="740" on="1"/>
        <pt x="286" y="0" on="1"/>
        <pt x="61" y="0" on="1"/>
      </contour>
      <contour>
        <pt x="-75" y="854" on="1"/>
        <pt x="-38" y="927" on="0"/>
        <pt x="57" y="1000" on="0"/>
        <pt x="102" y="1000" on="1"/>
        <pt x="129" y="1000" on="0"/>
        <pt x="181" y="988" on="0"/>
        <pt x="234" y="975" on="0"/>
        <pt x="287" y="963" on="0"/>
        <pt x="314" y="963" on="1"/>
        <pt x="337" y="963" on="0"/>
        <pt x="381" y="977" on="0"/>
        <pt x="412" y="1000" on="1"/>
        <pt x="435" y="966" on="1"/>
        <pt x="397" y="892" on="0"/>
        <pt x="302" y="820" on="0"/>
        <pt x="259" y="820" on="1"/>
        <pt x="232" y="820" on="0"/>
        <pt x="179" y="832" on="0"/>
        <pt x="126" y="845" on="0"/>
        <pt x="73" y="857" on="0"/>
        <pt x="46" y="857" on="1"/>
        <pt x="22" y="857" on="0"/>
        <pt x="-23" y="843" on="0"/>
        <pt x="-52" y="820" on="1"/>
      </contour>
    </TTGlyph>
    <TTGlyph name="Itilde.sc" xMin="-67" yMin="0" xMax="407" yMax="800">
      <contour>
        <pt x="59" y="577" on="1"/>
        <pt x="272" y="577" on="1"/>
        <pt x="272" y="0" on="1"/>
        <pt x="59" y="0" on="1"/>
      </contour>
      <contour>
        <pt x="-67" y="666" on="1"/>
        <pt x="-33" y="733" on="0"/>
        <pt x="56" y="799" on="0"/>
        <pt x="97" y="799" on="1"/>
        <pt x="122" y="799" on="0"/>
        <pt x="172" y="791" on="0"/>
        <pt x="221" y="780" on="0"/>
        <pt x="271" y="772" on="0"/>
        <pt x="296" y="772" on="1"/>
        <pt x="317" y="772" on="0"/>
        <pt x="357" y="782" on="0"/>
        <pt x="386" y="800" on="1"/>
        <pt x="407" y="770" on="1"/>
        <pt x="372" y="703" on="0"/>
        <pt x="282" y="638" on="0"/>
        <pt x="244" y="638" on="1"/>
        <pt x="219" y="638" on="0"/>
        <pt x="169" y="646" on="0"/>
        <pt x="119" y="657" on="0"/>
        <pt x="69" y="665" on="0"/>
        <pt x="44" y="665" on="1"/>
        <pt x="22" y="665" on="0"/>
        <pt x="-19" y="655" on="0"/>
        <pt x="-46" y="637" on="1"/>
      </contour>
    </TTGlyph>
    <TTGlyph name="J" xMin="-12" yMin="-219" xMax="289" yMax="740">
      <contour>
        <pt x="-12" y="-157" on="1"/>
        <pt x="10" y="-107" on="0"/>
        <pt x="39" y="-21" on="0"/>
        <pt x="56" y="62" on="0"/>
        <pt x="63" y="149" on="0"/>
        <pt x="63" y="201" on="1"/>
        <pt x="63" y="740" on="1"/>
        <pt x="289" y="740" on="1"/>
        <pt x="289" y="183" on="1"/>
        <pt x="289" y="130" on="0"/>
        <pt x="273" y="35" on="0"/>
        <pt x="235" y="-59" on="0"/>
        <pt x="175" y="-160" on="0"/>
        <pt x="131" y="-219" on="1"/>
      </contour>
    </TTGlyph>
    <TTGlyph name="J.sc" xMin="-6" yMin="-179" xMax="275" yMax="577">
      <contour>
        <pt x="-6" y="-122" on="1"/>
        <pt x="13" y="-82" on="0"/>
        <pt x="39" y="-14" on="0"/>
        <pt x="55" y="52" on="0"/>
        <pt x="61" y="120" on="0"/>
        <pt x="61" y="161" on="1"/>
        <pt x="61" y="577" on="1"/>
        <pt x="275" y="577" on="1"/>
        <pt x="275" y="144" on="1"/>
        <pt x="275" y="102" on="0"/>
        <pt x="260" y="25" on="0"/>
        <pt x="226" y="-51" on="0"/>
        <pt x="170" y="-132" on="0"/>
        <pt x="129" y="-179" on="1"/>
      </contour>
    </TTGlyph>
    <TTGlyph name="Jcircumflex" xMin="-41" yMin="-219" xMax="397" yMax="1016">
      <contour>
        <pt x="-12" y="-157" on="1"/>
        <pt x="10" y="-107" on="0"/>
        <pt x="39" y="-21" on="0"/>
        <pt x="56" y="62" on="0"/>
        <pt x="63" y="149" on="0"/>
        <pt x="63" y="201" on="1"/>
        <pt x="63" y="740" on="1"/>
        <pt x="289" y="740" on="1"/>
        <pt x="289" y="183" on="1"/>
        <pt x="289" y="130" on="0"/>
        <pt x="273" y="35" on="0"/>
        <pt x="235" y="-59" on="0"/>
        <pt x="175" y="-160" on="0"/>
        <pt x="131" y="-219" on="1"/>
      </contour>
      <contour>
        <pt x="-41" y="936" on="1"/>
        <pt x="176" y="1016" on="1"/>
        <pt x="397" y="936" on="1"/>
        <pt x="397" y="794" on="1"/>
        <pt x="178" y="873" on="1"/>
        <pt x="-41" y="794" on="1"/>
      </contour>
    </TTGlyph>
    <TTGlyph name="Jcircumflex.sc" xMin="-34" yMin="-179" xMax="374" yMax="811">
      <contour>
        <pt x="-6" y="-122" on="1"/>
        <pt x="13" y="-82" on="0"/>
        <pt x="39" y="-14" on="0"/>
        <pt x="54" y="52" on="0"/>
        <pt x="61" y="120" on="0"/>
        <pt x="61" y="161" on="1"/>
        <pt x="61" y="577" on="1"/>
        <pt x="275" y="577" on="1"/>
        <pt x="275" y="144" on="1"/>
        <pt x="275" y="102" on="0"/>
        <pt x="260" y="25" on="0"/>
        <pt x="225" y="-51" on="0"/>
        <pt x="169" y="-132" on="0"/>
        <pt x="128" y="-179" on="1"/>
      </contour>
      <contour>
        <pt x="-34" y="747" on="1"/>
        <pt x="168" y="811" on="1"/>
        <pt x="374" y="747" on="1"/>
        <pt x="374" y="616" on="1"/>
        <pt x="170" y="679" on="1"/>
        <pt x="-34" y="616" on="1"/>
      </contour>
    </TTGlyph>
    <TTGlyph name="K" xMin="61" yMin="0" xMax="780" yMax="740">
      <contour>
        <pt x="61" y="740" on="1"/>
        <pt x="286" y="740" on="1"/>
        <pt x="286" y="458" on="1"/>
        <pt x="369" y="458" on="1"/>
        <pt x="513" y="740" on="1"/>
        <pt x="762" y="740" on="1"/>
        <pt x="577" y="418" on="1"/>
        <pt x="519" y="391" on="1"/>
        <pt x="519" y="382" on="1"/>
        <pt x="579" y="354" on="1"/>
        <pt x="780" y="0" on="1"/>
        <pt x="531" y="0" on="1"/>
        <pt x="382" y="286" on="1"/>
        <pt x="286" y="286" on="1"/>
        <pt x="286" y="0" on="1"/>
        <pt x="61" y="0" on="1"/>
      </contour>
    </TTGlyph>
    <TTGlyph name="K.sc" xMin="59" yMin="0" xMax="725" yMax="577">
      <contour>
        <pt x="59" y="577" on="1"/>
        <pt x="272" y="577" on="1"/>
        <pt x="272" y="369" on="1"/>
        <pt x="344" y="369" on="1"/>
        <pt x="473" y="577" on="1"/>
        <pt x="709" y="577" on="1"/>
        <pt x="540" y="329" on="1"/>
        <pt x="483" y="308" on="1"/>
        <pt x="483" y="300" on="1"/>
        <pt x="543" y="277" on="1"/>
        <pt x="725" y="0" on="1"/>
        <pt x="488" y="0" on="1"/>
        <pt x="358" y="208" on="1"/>
        <pt x="272" y="208" on="1"/>
        <pt x="272" y="0" on="1"/>
        <pt x="59" y="0" on="1"/>
      </contour>
    </TTGlyph>
    <TTGlyph name="Kcommaaccent" xMin="61" yMin="-220" xMax="780" yMax="740">
      <contour>
        <pt x="248" y="-70" on="1"/>
        <pt x="473" y="-70" on="1"/>
        <pt x="372" y="-220" on="1"/>
        <pt x="208" y="-220" on="1"/>
      </contour>
      <contour>
        <pt x="61" y="740" on="1"/>
        <pt x="286" y="740" on="1"/>
        <pt x="286" y="458" on="1"/>
        <pt x="369" y="458" on="1"/>
        <pt x="513" y="740" on="1"/>
        <pt x="762" y="740" on="1"/>
        <pt x="577" y="418" on="1"/>
        <pt x="519" y="391" on="1"/>
        <pt x="519" y="382" on="1"/>
        <pt x="579" y="354" on="1"/>
        <pt x="780" y="0" on="1"/>
        <pt x="531" y="0" on="1"/>
        <pt x="382" y="286" on="1"/>
        <pt x="286" y="286" on="1"/>
        <pt x="286" y="0" on="1"/>
        <pt x="61" y="0" on="1"/>
      </contour>
    </TTGlyph>
    <TTGlyph name="Kcommaaccent.sc" xMin="59" yMin="-172" xMax="725" yMax="577">
      <contour>
        <pt x="59" y="577" on="1"/>
        <pt x="272" y="577" on="1"/>
        <pt x="272" y="369" on="1"/>
        <pt x="344" y="369" on="1"/>
        <pt x="473" y="577" on="1"/>
        <pt x="709" y="577" on="1"/>
        <pt x="540" y="329" on="1"/>
        <pt x="483" y="308" on="1"/>
        <pt x="483" y="300" on="1"/>
        <pt x="543" y="277" on="1"/>
        <pt x="725" y="0" on="1"/>
        <pt x="488" y="0" on="1"/>
        <pt x="358" y="208" on="1"/>
        <pt x="272" y="208" on="1"/>
        <pt x="272" y="0" on="1"/>
        <pt x="59" y="0" on="1"/>
      </contour>
      <contour>
        <pt x="263" y="-55" on="1"/>
        <pt x="477" y="-55" on="1"/>
        <pt x="383" y="-172" on="1"/>
        <pt x="228" y="-172" on="1"/>
      </contour>
    </TTGlyph>
    <TTGlyph name="L" xMin="61" yMin="0" xMax="590" yMax="740">
      <contour>
        <pt x="61" y="740" on="1"/>
        <pt x="286" y="740" on="1"/>
        <pt x="286" y="172" on="1"/>
        <pt x="590" y="172" on="1"/>
        <pt x="590" y="0" on="1"/>
        <pt x="61" y="0" on="1"/>
      </contour>
    </TTGlyph>
    <TTGlyph name="L.sc" xMin="59" yMin="0" xMax="550" yMax="577">
      <contour>
        <pt x="59" y="577" on="1"/>
        <pt x="272" y="577" on="1"/>
        <pt x="272" y="161" on="1"/>
        <pt x="550" y="161" on="1"/>
        <pt x="550" y="0" on="1"/>
        <pt x="59" y="0" on="1"/>
      </contour>
    </TTGlyph>
    <TTGlyph name="Lacute" xMin="61" yMin="0" xMax="590" yMax="1003">
      <contour>
        <pt x="97" y="813" on="1"/>
        <pt x="160" y="1003" on="1"/>
        <pt x="384" y="1003" on="1"/>
        <pt x="255" y="803" on="1"/>
      </contour>
      <contour>
        <pt x="61" y="740" on="1"/>
        <pt x="286" y="740" on="1"/>
        <pt x="286" y="172" on="1"/>
        <pt x="590" y="172" on="1"/>
        <pt x="590" y="0" on="1"/>
        <pt x="61" y="0" on="1"/>
      </contour>
    </TTGlyph>
    <TTGlyph name="Lacute.sc" xMin="59" yMin="0" xMax="550" yMax="798">
      <contour>
        <pt x="59" y="577" on="1"/>
        <pt x="272" y="577" on="1"/>
        <pt x="272" y="161" on="1"/>
        <pt x="550" y="161" on="1"/>
        <pt x="550" y="0" on="1"/>
        <pt x="59" y="0" on="1"/>
      </contour>
      <contour>
        <pt x="94" y="637" on="1"/>
        <pt x="150" y="798" on="1"/>
        <pt x="362" y="798" on="1"/>
        <pt x="243" y="628" on="1"/>
      </contour>
    </TTGlyph>
    <TTGlyph name="Lcaron" xMin="61" yMin="0" xMax="590" yMax="808">
      <contour>
        <pt x="420" y="808" on="1"/>
        <pt x="590" y="808" on="1"/>
        <pt x="539" y="580" on="1"/>
        <pt x="420" y="580" on="1"/>
      </contour>
      <contour>
        <pt x="61" y="740" on="1"/>
        <pt x="286" y="740" on="1"/>
        <pt x="286" y="172" on="1"/>
        <pt x="590" y="172" on="1"/>
        <pt x="590" y="0" on="1"/>
        <pt x="61" y="0" on="1"/>
      </contour>
    </TTGlyph>
    <TTGlyph name="Lcaron.sc" xMin="60" yMin="0" xMax="551" yMax="643">
      <contour>
        <pt x="60" y="577" on="1"/>
        <pt x="273" y="577" on="1"/>
        <pt x="273" y="161" on="1"/>
        <pt x="551" y="161" on="1"/>
        <pt x="551" y="0" on="1"/>
        <pt x="60" y="0" on="1"/>
      </contour>
      <contour>
        <pt x="385" y="643" on="1"/>
        <pt x="547" y="643" on="1"/>
        <pt x="498" y="465" on="1"/>
        <pt x="385" y="465" on="1"/>
      </contour>
    </TTGlyph>
    <TTGlyph name="Lcommaaccent" xMin="61" yMin="-220" xMax="590" yMax="740">
      <contour>
        <pt x="189" y="-70" on="1"/>
        <pt x="414" y="-70" on="1"/>
        <pt x="313" y="-220" on="1"/>
        <pt x="149" y="-220" on="1"/>
      </contour>
      <contour>
        <pt x="61" y="740" on="1"/>
        <pt x="286" y="740" on="1"/>
        <pt x="286" y="172" on="1"/>
        <pt x="590" y="172" on="1"/>
        <pt x="590" y="0" on="1"/>
        <pt x="61" y="0" on="1"/>
      </contour>
    </TTGlyph>
    <TTGlyph name="Lcommaaccent.sc" xMin="59" yMin="-172" xMax="550" yMax="577">
      <contour>
        <pt x="59" y="577" on="1"/>
        <pt x="272" y="577" on="1"/>
        <pt x="272" y="161" on="1"/>
        <pt x="550" y="161" on="1"/>
        <pt x="550" y="0" on="1"/>
        <pt x="59" y="0" on="1"/>
      </contour>
      <contour>
        <pt x="172" y="-55" on="1"/>
        <pt x="386" y="-55" on="1"/>
        <pt x="292" y="-172" on="1"/>
        <pt x="138" y="-172" on="1"/>
      </contour>
    </TTGlyph>
    <TTGlyph name="Ldot" xMin="61" yMin="0" xMax="615" yMax="740">
      <contour>
        <pt x="61" y="740" on="1"/>
        <pt x="286" y="740" on="1"/>
        <pt x="286" y="172" on="1"/>
        <pt x="590" y="172" on="1"/>
        <pt x="590" y="0" on="1"/>
        <pt x="61" y="0" on="1"/>
      </contour>
      <contour>
        <pt x="499" y="283" on="1"/>
        <pt x="436" y="283" on="0"/>
        <pt x="382" y="336" on="0"/>
        <pt x="382" y="396" on="1"/>
        <pt x="382" y="456" on="0"/>
        <pt x="436" y="510" on="0"/>
        <pt x="499" y="510" on="1"/>
        <pt x="563" y="510" on="0"/>
        <pt x="615" y="454" on="0"/>
        <pt x="615" y="396" on="1"/>
        <pt x="615" y="338" on="0"/>
        <pt x="563" y="283" on="0"/>
      </contour>
    </TTGlyph>
    <TTGlyph name="Ldot.sc" xMin="59" yMin="0" xMax="575" yMax="577">
      <contour>
        <pt x="59" y="577" on="1"/>
        <pt x="272" y="577" on="1"/>
        <pt x="272" y="161" on="1"/>
        <pt x="550" y="161" on="1"/>
        <pt x="550" y="0" on="1"/>
        <pt x="59" y="0" on="1"/>
      </contour>
      <contour>
        <pt x="466" y="211" on="1"/>
        <pt x="406" y="211" on="0"/>
        <pt x="356" y="260" on="0"/>
        <pt x="356" y="316" on="1"/>
        <pt x="356" y="371" on="0"/>
        <pt x="406" y="420" on="0"/>
        <pt x="466" y="420" on="1"/>
        <pt x="527" y="420" on="0"/>
        <pt x="575" y="369" on="0"/>
        <pt x="575" y="316" on="1"/>
        <pt x="575" y="262" on="0"/>
        <pt x="527" y="211" on="0"/>
      </contour>
    </TTGlyph>
    <TTGlyph name="Lslash" xMin="10" yMin="0" xMax="607" yMax="740">
      <contour>
        <pt x="10" y="383" on="1"/>
        <pt x="78" y="413" on="1"/>
        <pt x="78" y="740" on="1"/>
        <pt x="303" y="740" on="1"/>
        <pt x="303" y="515" on="1"/>
        <pt x="427" y="571" on="1"/>
        <pt x="427" y="414" on="1"/>
        <pt x="303" y="358" on="1"/>
        <pt x="303" y="172" on="1"/>
        <pt x="607" y="172" on="1"/>
        <pt x="607" y="0" on="1"/>
        <pt x="78" y="0" on="1"/>
        <pt x="78" y="256" on="1"/>
        <pt x="10" y="226" on="1"/>
      </contour>
    </TTGlyph>
    <TTGlyph name="Lslash.sc" xMin="13" yMin="0" xMax="565" yMax="577">
      <contour>
        <pt x="13" y="322" on="1"/>
        <pt x="74" y="345" on="1"/>
        <pt x="74" y="577" on="1"/>
        <pt x="287" y="577" on="1"/>
        <pt x="287" y="422" on="1"/>
        <pt x="398" y="462" on="1"/>
        <pt x="398" y="316" on="1"/>
        <pt x="287" y="276" on="1"/>
        <pt x="287" y="161" on="1"/>
        <pt x="565" y="161" on="1"/>
        <pt x="565" y="0" on="1"/>
        <pt x="74" y="0" on="1"/>
        <pt x="74" y="199" on="1"/>
        <pt x="13" y="176" on="1"/>
      </contour>
    </TTGlyph>
    <TTGlyph name="M" xMin="61" yMin="0" xMax="977" yMax="740">
      <contour>
        <pt x="61" y="740" on="1"/>
        <pt x="368" y="740" on="1"/>
        <pt x="478" y="439" on="1"/>
        <pt x="516" y="290" on="1"/>
        <pt x="522" y="290" on="1"/>
        <pt x="561" y="439" on="1"/>
        <pt x="671" y="740" on="1"/>
        <pt x="977" y="740" on="1"/>
        <pt x="977" y="0" on="1"/>
        <pt x="779" y="0" on="1"/>
        <pt x="779" y="497" on="1"/>
        <pt x="770" y="497" on="1"/>
        <pt x="709" y="297" on="1"/>
        <pt x="608" y="30" on="1"/>
        <pt x="430" y="30" on="1"/>
        <pt x="329" y="297" on="1"/>
        <pt x="268" y="497" on="1"/>
        <pt x="259" y="497" on="1"/>
        <pt x="259" y="0" on="1"/>
        <pt x="61" y="0" on="1"/>
      </contour>
    </TTGlyph>
    <TTGlyph name="M.sc" xMin="59" yMin="0" xMax="903" yMax="577">
      <contour>
        <pt x="59" y="577" on="1"/>
        <pt x="338" y="577" on="1"/>
        <pt x="435" y="373" on="1"/>
        <pt x="476" y="266" on="1"/>
        <pt x="485" y="266" on="1"/>
        <pt x="526" y="373" on="1"/>
        <pt x="624" y="577" on="1"/>
        <pt x="903" y="577" on="1"/>
        <pt x="903" y="0" on="1"/>
        <pt x="714" y="0" on="1"/>
        <pt x="714" y="358" on="1"/>
        <pt x="705" y="358" on="1"/>
        <pt x="640" y="193" on="1"/>
        <pt x="562" y="23" on="1"/>
        <pt x="400" y="23" on="1"/>
        <pt x="323" y="193" on="1"/>
        <pt x="257" y="358" on="1"/>
        <pt x="248" y="358" on="1"/>
        <pt x="248" y="0" on="1"/>
        <pt x="59" y="0" on="1"/>
      </contour>
    </TTGlyph>
    <TTGlyph name="N" xMin="61" yMin="0" xMax="773" yMax="740">
      <contour>
        <pt x="61" y="740" on="1"/>
        <pt x="238" y="740" on="1"/>
        <pt x="507" y="414" on="1"/>
        <pt x="567" y="331" on="1"/>
        <pt x="577" y="331" on="1"/>
        <pt x="577" y="740" on="1"/>
        <pt x="773" y="740" on="1"/>
        <pt x="773" y="0" on="1"/>
        <pt x="596" y="0" on="1"/>
        <pt x="337" y="316" on="1"/>
        <pt x="267" y="410" on="1"/>
        <pt x="257" y="410" on="1"/>
        <pt x="257" y="0" on="1"/>
        <pt x="61" y="0" on="1"/>
      </contour>
    </TTGlyph>
    <TTGlyph name="N.sc" xMin="59" yMin="0" xMax="693" yMax="577">
      <contour>
        <pt x="59" y="577" on="1"/>
        <pt x="221" y="577" on="1"/>
        <pt x="438" y="359" on="1"/>
        <pt x="496" y="295" on="1"/>
        <pt x="506" y="295" on="1"/>
        <pt x="506" y="577" on="1"/>
        <pt x="693" y="577" on="1"/>
        <pt x="693" y="0" on="1"/>
        <pt x="531" y="0" on="1"/>
        <pt x="324" y="206" on="1"/>
        <pt x="256" y="283" on="1"/>
        <pt x="247" y="284" on="1"/>
        <pt x="247" y="0" on="1"/>
        <pt x="59" y="0" on="1"/>
      </contour>
    </TTGlyph>
    <TTGlyph name="Nacute" xMin="61" yMin="0" xMax="773" yMax="1003">
      <contour>
        <pt x="306" y="813" on="1"/>
        <pt x="369" y="1003" on="1"/>
        <pt x="593" y="1003" on="1"/>
        <pt x="464" y="803" on="1"/>
      </contour>
      <contour>
        <pt x="61" y="740" on="1"/>
        <pt x="238" y="740" on="1"/>
        <pt x="507" y="414" on="1"/>
        <pt x="567" y="331" on="1"/>
        <pt x="577" y="331" on="1"/>
        <pt x="577" y="740" on="1"/>
        <pt x="773" y="740" on="1"/>
        <pt x="773" y="0" on="1"/>
        <pt x="596" y="0" on="1"/>
        <pt x="337" y="316" on="1"/>
        <pt x="267" y="410" on="1"/>
        <pt x="257" y="410" on="1"/>
        <pt x="257" y="0" on="1"/>
        <pt x="61" y="0" on="1"/>
      </contour>
    </TTGlyph>
    <TTGlyph name="Nacute.sc" xMin="59" yMin="0" xMax="693" yMax="798">
      <contour>
        <pt x="59" y="577" on="1"/>
        <pt x="221" y="577" on="1"/>
        <pt x="438" y="359" on="1"/>
        <pt x="496" y="295" on="1"/>
        <pt x="506" y="295" on="1"/>
        <pt x="506" y="577" on="1"/>
        <pt x="693" y="577" on="1"/>
        <pt x="693" y="0" on="1"/>
        <pt x="531" y="0" on="1"/>
        <pt x="324" y="206" on="1"/>
        <pt x="256" y="283" on="1"/>
        <pt x="247" y="284" on="1"/>
        <pt x="247" y="0" on="1"/>
        <pt x="59" y="0" on="1"/>
      </contour>
      <contour>
        <pt x="274" y="637" on="1"/>
        <pt x="329" y="798" on="1"/>
        <pt x="542" y="798" on="1"/>
        <pt x="422" y="628" on="1"/>
      </contour>
    </TTGlyph>
    <TTGlyph name="Ncaron" xMin="61" yMin="0" xMax="773" yMax="1016">
      <contour>
        <pt x="200" y="1016" on="1"/>
        <pt x="419" y="936" on="1"/>
        <pt x="638" y="1016" on="1"/>
        <pt x="638" y="873" on="1"/>
        <pt x="417" y="794" on="1"/>
        <pt x="200" y="873" on="1"/>
      </contour>
      <contour>
        <pt x="61" y="740" on="1"/>
        <pt x="238" y="740" on="1"/>
        <pt x="507" y="414" on="1"/>
        <pt x="567" y="331" on="1"/>
        <pt x="577" y="331" on="1"/>
        <pt x="577" y="740" on="1"/>
        <pt x="773" y="740" on="1"/>
        <pt x="773" y="0" on="1"/>
        <pt x="596" y="0" on="1"/>
        <pt x="337" y="316" on="1"/>
        <pt x="267" y="410" on="1"/>
        <pt x="257" y="410" on="1"/>
        <pt x="257" y="0" on="1"/>
        <pt x="61" y="0" on="1"/>
      </contour>
    </TTGlyph>
    <TTGlyph name="Ncaron.sc" xMin="59" yMin="0" xMax="693" yMax="812">
      <contour>
        <pt x="59" y="577" on="1"/>
        <pt x="221" y="577" on="1"/>
        <pt x="438" y="359" on="1"/>
        <pt x="496" y="295" on="1"/>
        <pt x="506" y="295" on="1"/>
        <pt x="506" y="577" on="1"/>
        <pt x="693" y="577" on="1"/>
        <pt x="693" y="0" on="1"/>
        <pt x="531" y="0" on="1"/>
        <pt x="324" y="206" on="1"/>
        <pt x="256" y="283" on="1"/>
        <pt x="247" y="284" on="1"/>
        <pt x="247" y="0" on="1"/>
        <pt x="59" y="0" on="1"/>
      </contour>
      <contour>
        <pt x="174" y="680" on="1"/>
        <pt x="174" y="812" on="1"/>
        <pt x="378" y="747" on="1"/>
        <pt x="583" y="812" on="1"/>
        <pt x="583" y="680" on="1"/>
        <pt x="376" y="616" on="1"/>
      </contour>
    </TTGlyph>
    <TTGlyph name="Ncommaaccent" xMin="61" yMin="-220" xMax="773" yMax="740">
      <contour>
        <pt x="311" y="-70" on="1"/>
        <pt x="536" y="-70" on="1"/>
        <pt x="435" y="-220" on="1"/>
        <pt x="271" y="-220" on="1"/>
      </contour>
      <contour>
        <pt x="61" y="740" on="1"/>
        <pt x="238" y="740" on="1"/>
        <pt x="507" y="414" on="1"/>
        <pt x="567" y="331" on="1"/>
        <pt x="577" y="331" on="1"/>
        <pt x="577" y="740" on="1"/>
        <pt x="773" y="740" on="1"/>
        <pt x="773" y="0" on="1"/>
        <pt x="596" y="0" on="1"/>
        <pt x="337" y="316" on="1"/>
        <pt x="267" y="410" on="1"/>
        <pt x="257" y="410" on="1"/>
        <pt x="257" y="0" on="1"/>
        <pt x="61" y="0" on="1"/>
      </contour>
    </TTGlyph>
</ttFont>
